G04 #@! TF.FileFunction,Copper,L4,Bot,Signal*
%FSLAX46Y46*%
G04 Gerber Fmt 4.6, Leading zero omitted, Abs format (unit mm)*
G04 Created by KiCad (PCBNEW (after 2015-mar-04 BZR unknown)-product) date Wed 22 Apr 2015 11:16:48 PM EDT*
%MOMM*%
G01*
G04 APERTURE LIST*
%ADD10C,0.100000*%
%ADD11R,2.032000X1.727200*%
%ADD12O,2.032000X1.727200*%
%ADD13C,2.300000*%
%ADD14C,2.500000*%
%ADD15C,0.355400*%
%ADD16C,0.300000*%
%ADD17C,0.127000*%
G04 APERTURE END LIST*
D10*
D11*
X93345000Y-78054200D03*
D12*
X93345000Y-80594200D03*
X93345000Y-83134200D03*
D13*
X129260600Y-59829700D03*
D14*
X131800600Y-57289700D03*
X126720600Y-57289700D03*
X126720600Y-62369700D03*
X131800600Y-62369700D03*
D15*
X115062000Y-67490340D03*
X115717320Y-69425820D03*
X133532880Y-66019680D03*
X122483880Y-65928240D03*
X100500000Y-65500000D03*
X100500000Y-72500000D03*
X119207280Y-57348120D03*
X100843080Y-76817220D03*
X118376700Y-80741520D03*
X116240560Y-68620640D03*
X118094760Y-67792600D03*
X111084360Y-65280540D03*
X113621820Y-69164200D03*
X113212880Y-71490840D03*
X114460020Y-68374260D03*
X111615220Y-74637900D03*
X115011200Y-74620120D03*
X116080540Y-72280780D03*
X119359680Y-72260460D03*
X117281960Y-73837800D03*
X117718840Y-75316080D03*
X123738640Y-77434440D03*
X102991920Y-61257180D03*
X103342440Y-60662820D03*
X103068120Y-60030360D03*
X103459280Y-59354720D03*
X114406680Y-57378600D03*
X113157000Y-58374280D03*
X113741200Y-59631580D03*
X113146840Y-59070240D03*
X119415560Y-60487560D03*
X130520440Y-66969640D03*
X134945120Y-66141600D03*
X128877060Y-66949320D03*
X126568200Y-67101720D03*
X122285760Y-72344280D03*
X125798580Y-69697600D03*
X128818640Y-71180960D03*
X131566920Y-71597520D03*
X135087360Y-71556880D03*
X129184400Y-75641200D03*
X129501900Y-73388220D03*
X112948720Y-81264760D03*
X111008160Y-81135220D03*
X101152960Y-82250280D03*
X97876360Y-82255360D03*
X96149160Y-77053440D03*
X102641400Y-75199240D03*
X106923840Y-73055480D03*
X106862880Y-71521320D03*
X103075740Y-70530720D03*
X103243380Y-72420480D03*
X103322120Y-66725800D03*
X103327200Y-66735960D03*
X96918780Y-70035420D03*
X97368360Y-70309740D03*
X98206560Y-70286880D03*
X98648520Y-70309740D03*
X99616260Y-70332600D03*
X99692460Y-69578220D03*
X97162620Y-69303900D03*
X97429320Y-69738240D03*
X98160840Y-69715380D03*
X97002600Y-68557140D03*
X99090480Y-69791580D03*
X108402120Y-80467200D03*
X109270800Y-74764900D03*
X115724940Y-77411580D03*
X120797320Y-81376520D03*
X119192040Y-78889860D03*
X122354340Y-71033640D03*
X115984020Y-71140320D03*
X112410240Y-67795140D03*
X112356900Y-71506080D03*
X113370360Y-77061060D03*
X112905540Y-80208120D03*
X97886520Y-79405480D03*
X105044240Y-80482440D03*
X100614480Y-74493120D03*
X98671380Y-74409300D03*
X98915220Y-73456800D03*
X112555020Y-61241940D03*
X112158780Y-60830460D03*
X111739680Y-61226700D03*
X111475520Y-60736480D03*
X107744260Y-60401200D03*
X107807760Y-59634120D03*
X101201220Y-66695320D03*
X101191060Y-67701160D03*
X108432600Y-78546960D03*
X99197160Y-78287880D03*
X108021120Y-77891640D03*
X96601280Y-78740000D03*
X106974640Y-63802260D03*
X105671620Y-74490580D03*
X105704640Y-81130140D03*
X105521760Y-82194400D03*
X107739180Y-63413640D03*
X108127800Y-71666100D03*
X106451400Y-81026000D03*
X106451400Y-82600800D03*
X129547620Y-72433180D03*
X129532380Y-68816220D03*
X124465080Y-68366640D03*
X122552460Y-69014340D03*
X134576820Y-74330560D03*
X132069840Y-72839580D03*
X121363740Y-75415140D03*
X122910600Y-75430380D03*
X125158500Y-74371200D03*
X108549440Y-81686400D03*
X125651260Y-71815960D03*
X108356400Y-83096100D03*
D16*
X115062000Y-68770500D02*
X115062000Y-67490340D01*
X115717320Y-69425820D02*
X115062000Y-68770500D01*
X122575320Y-66019680D02*
X133532880Y-66019680D01*
X122483880Y-65928240D02*
X122575320Y-66019680D01*
X100500000Y-72500000D02*
X100500000Y-65500000D01*
D17*
X101201220Y-67691000D02*
X101201220Y-66695320D01*
X101191060Y-67701160D02*
X101201220Y-67691000D01*
X99456240Y-78546960D02*
X108432600Y-78546960D01*
X99197160Y-78287880D02*
X99456240Y-78546960D01*
X97449640Y-77891640D02*
X108021120Y-77891640D01*
X96601280Y-78740000D02*
X97449640Y-77891640D01*
X105557320Y-65219580D02*
X106974640Y-63802260D01*
X105557320Y-74376280D02*
X105557320Y-65219580D01*
X105671620Y-74490580D02*
X105557320Y-74376280D01*
X105704640Y-82011520D02*
X105704640Y-81130140D01*
X105521760Y-82194400D02*
X105704640Y-82011520D01*
X107739180Y-71277480D02*
X107739180Y-63413640D01*
X108127800Y-71666100D02*
X107739180Y-71277480D01*
X106451400Y-82600800D02*
X106451400Y-81026000D01*
D16*
X129547620Y-68831460D02*
X129547620Y-72433180D01*
X129532380Y-68816220D02*
X129547620Y-68831460D01*
D17*
X123200160Y-68366640D02*
X124465080Y-68366640D01*
X122552460Y-69014340D02*
X123200160Y-68366640D01*
X133891020Y-73644760D02*
X134576820Y-74330560D01*
X132875020Y-73644760D02*
X133891020Y-73644760D01*
X132069840Y-72839580D02*
X132875020Y-73644760D01*
X122895360Y-75415140D02*
X121363740Y-75415140D01*
X122910600Y-75430380D02*
X122895360Y-75415140D01*
X125158500Y-79590900D02*
X125158500Y-74371200D01*
X122872500Y-81876900D02*
X125158500Y-79590900D01*
X108739940Y-81876900D02*
X122872500Y-81876900D01*
X108549440Y-81686400D02*
X108739940Y-81876900D01*
X125651260Y-80678020D02*
X125651260Y-71815960D01*
X123240800Y-83088480D02*
X125651260Y-80678020D01*
X108364020Y-83088480D02*
X123240800Y-83088480D01*
X108356400Y-83096100D02*
X108364020Y-83088480D01*
G36*
X136759500Y-85759500D02*
X134945083Y-85759500D01*
X134945083Y-74257642D01*
X134889146Y-74122264D01*
X134785661Y-74018598D01*
X134650381Y-73962425D01*
X134567822Y-73962352D01*
X134070625Y-73465155D01*
X133988222Y-73410095D01*
X133901143Y-73392773D01*
X133901143Y-65946762D01*
X133845206Y-65811384D01*
X133741721Y-65707718D01*
X133606441Y-65651545D01*
X133459962Y-65651417D01*
X133392770Y-65679180D01*
X133261147Y-65679180D01*
X133261147Y-62524433D01*
X133261147Y-57444433D01*
X133209184Y-56873727D01*
X133090756Y-56587817D01*
X132931101Y-56428607D01*
X132661693Y-56698015D01*
X132661693Y-56159199D01*
X132502483Y-55999544D01*
X131955333Y-55829153D01*
X131384627Y-55881116D01*
X131098717Y-55999544D01*
X130939507Y-56159199D01*
X131800600Y-57020292D01*
X132661693Y-56159199D01*
X132661693Y-56698015D01*
X132070008Y-57289700D01*
X132931101Y-58150793D01*
X133090756Y-57991583D01*
X133261147Y-57444433D01*
X133261147Y-62524433D01*
X133209184Y-61953727D01*
X133090756Y-61667817D01*
X132931101Y-61508607D01*
X132661693Y-61778015D01*
X132661693Y-61239199D01*
X132661693Y-58420201D01*
X131800600Y-57559108D01*
X131531192Y-57828516D01*
X131531192Y-57289700D01*
X130670099Y-56428607D01*
X130510444Y-56587817D01*
X130340053Y-57134967D01*
X130392016Y-57705673D01*
X130510444Y-57991583D01*
X130670099Y-58150793D01*
X131531192Y-57289700D01*
X131531192Y-57828516D01*
X130939507Y-58420201D01*
X131098717Y-58579856D01*
X131645867Y-58750247D01*
X132216573Y-58698284D01*
X132502483Y-58579856D01*
X132661693Y-58420201D01*
X132661693Y-61239199D01*
X132502483Y-61079544D01*
X131955333Y-60909153D01*
X131384627Y-60961116D01*
X131098717Y-61079544D01*
X130939507Y-61239199D01*
X131800600Y-62100292D01*
X132661693Y-61239199D01*
X132661693Y-61778015D01*
X132070008Y-62369700D01*
X132931101Y-63230793D01*
X133090756Y-63071583D01*
X133261147Y-62524433D01*
X133261147Y-65679180D01*
X132661693Y-65679180D01*
X132661693Y-63500201D01*
X131800600Y-62639108D01*
X131531192Y-62908516D01*
X131531192Y-62369700D01*
X130670099Y-61508607D01*
X130601332Y-61577182D01*
X130601332Y-59564228D01*
X130397683Y-59071360D01*
X130020924Y-58693942D01*
X129528412Y-58489433D01*
X128995128Y-58488968D01*
X128502260Y-58692617D01*
X128181147Y-59013169D01*
X128181147Y-57444433D01*
X128129184Y-56873727D01*
X128010756Y-56587817D01*
X127851101Y-56428607D01*
X127581693Y-56698015D01*
X127581693Y-56159199D01*
X127422483Y-55999544D01*
X126875333Y-55829153D01*
X126304627Y-55881116D01*
X126018717Y-55999544D01*
X125859507Y-56159199D01*
X126720600Y-57020292D01*
X127581693Y-56159199D01*
X127581693Y-56698015D01*
X126990008Y-57289700D01*
X127851101Y-58150793D01*
X128010756Y-57991583D01*
X128181147Y-57444433D01*
X128181147Y-59013169D01*
X128124842Y-59069376D01*
X127920333Y-59561888D01*
X127919868Y-60095172D01*
X128123517Y-60588040D01*
X128500276Y-60965458D01*
X128992788Y-61169967D01*
X129526072Y-61170432D01*
X130018940Y-60966783D01*
X130396358Y-60590024D01*
X130600867Y-60097512D01*
X130601332Y-59564228D01*
X130601332Y-61577182D01*
X130510444Y-61667817D01*
X130340053Y-62214967D01*
X130392016Y-62785673D01*
X130510444Y-63071583D01*
X130670099Y-63230793D01*
X131531192Y-62369700D01*
X131531192Y-62908516D01*
X130939507Y-63500201D01*
X131098717Y-63659856D01*
X131645867Y-63830247D01*
X132216573Y-63778284D01*
X132502483Y-63659856D01*
X132661693Y-63500201D01*
X132661693Y-65679180D01*
X128181147Y-65679180D01*
X128181147Y-62524433D01*
X128129184Y-61953727D01*
X128010756Y-61667817D01*
X127851101Y-61508607D01*
X127581693Y-61778015D01*
X127581693Y-61239199D01*
X127581693Y-58420201D01*
X126720600Y-57559108D01*
X126451192Y-57828516D01*
X126451192Y-57289700D01*
X125590099Y-56428607D01*
X125430444Y-56587817D01*
X125260053Y-57134967D01*
X125312016Y-57705673D01*
X125430444Y-57991583D01*
X125590099Y-58150793D01*
X126451192Y-57289700D01*
X126451192Y-57828516D01*
X125859507Y-58420201D01*
X126018717Y-58579856D01*
X126565867Y-58750247D01*
X127136573Y-58698284D01*
X127422483Y-58579856D01*
X127581693Y-58420201D01*
X127581693Y-61239199D01*
X127422483Y-61079544D01*
X126875333Y-60909153D01*
X126304627Y-60961116D01*
X126018717Y-61079544D01*
X125859507Y-61239199D01*
X126720600Y-62100292D01*
X127581693Y-61239199D01*
X127581693Y-61778015D01*
X126990008Y-62369700D01*
X127851101Y-63230793D01*
X128010756Y-63071583D01*
X128181147Y-62524433D01*
X128181147Y-65679180D01*
X127581693Y-65679180D01*
X127581693Y-63500201D01*
X126720600Y-62639108D01*
X126451192Y-62908516D01*
X126451192Y-62369700D01*
X125590099Y-61508607D01*
X125430444Y-61667817D01*
X125260053Y-62214967D01*
X125312016Y-62785673D01*
X125430444Y-63071583D01*
X125590099Y-63230793D01*
X126451192Y-62369700D01*
X126451192Y-62908516D01*
X125859507Y-63500201D01*
X126018717Y-63659856D01*
X126565867Y-63830247D01*
X127136573Y-63778284D01*
X127422483Y-63659856D01*
X127581693Y-63500201D01*
X127581693Y-65679180D01*
X122755513Y-65679180D01*
X122692721Y-65616278D01*
X122557441Y-65560105D01*
X122410962Y-65559977D01*
X122275584Y-65615914D01*
X122171918Y-65719399D01*
X122115745Y-65854679D01*
X122115617Y-66001158D01*
X122171554Y-66136536D01*
X122275039Y-66240202D01*
X122352194Y-66272239D01*
X122445016Y-66334261D01*
X122445017Y-66334261D01*
X122575320Y-66360180D01*
X133392766Y-66360180D01*
X133459319Y-66387815D01*
X133605798Y-66387943D01*
X133741176Y-66332006D01*
X133844842Y-66228521D01*
X133901015Y-66093241D01*
X133901143Y-65946762D01*
X133901143Y-73392773D01*
X133891020Y-73390760D01*
X132980230Y-73390760D01*
X132438031Y-72848561D01*
X132438103Y-72766662D01*
X132382166Y-72631284D01*
X132278681Y-72527618D01*
X132143401Y-72471445D01*
X131996922Y-72471317D01*
X131861544Y-72527254D01*
X131757878Y-72630739D01*
X131701705Y-72766019D01*
X131701577Y-72912498D01*
X131757514Y-73047876D01*
X131860999Y-73151542D01*
X131996279Y-73207715D01*
X132078837Y-73207787D01*
X132695415Y-73824365D01*
X132777818Y-73879425D01*
X132777819Y-73879425D01*
X132875020Y-73898760D01*
X133785810Y-73898760D01*
X134208628Y-74321578D01*
X134208557Y-74403478D01*
X134264494Y-74538856D01*
X134367979Y-74642522D01*
X134503259Y-74698695D01*
X134649738Y-74698823D01*
X134785116Y-74642886D01*
X134888782Y-74539401D01*
X134944955Y-74404121D01*
X134945083Y-74257642D01*
X134945083Y-85759500D01*
X129915883Y-85759500D01*
X129915883Y-72360262D01*
X129888120Y-72293070D01*
X129888120Y-68919631D01*
X129900515Y-68889781D01*
X129900643Y-68743302D01*
X129844706Y-68607924D01*
X129741221Y-68504258D01*
X129605941Y-68448085D01*
X129459462Y-68447957D01*
X129324084Y-68503894D01*
X129220418Y-68607379D01*
X129164245Y-68742659D01*
X129164117Y-68889138D01*
X129207120Y-68993213D01*
X129207120Y-72293066D01*
X129179485Y-72359619D01*
X129179357Y-72506098D01*
X129235294Y-72641476D01*
X129338779Y-72745142D01*
X129474059Y-72801315D01*
X129620538Y-72801443D01*
X129755916Y-72745506D01*
X129859582Y-72642021D01*
X129915755Y-72506741D01*
X129915883Y-72360262D01*
X129915883Y-85759500D01*
X126019523Y-85759500D01*
X126019523Y-71743042D01*
X125963586Y-71607664D01*
X125860101Y-71503998D01*
X125724821Y-71447825D01*
X125578342Y-71447697D01*
X125442964Y-71503634D01*
X125339298Y-71607119D01*
X125283125Y-71742399D01*
X125282997Y-71888878D01*
X125338934Y-72024256D01*
X125397260Y-72082684D01*
X125397260Y-74089209D01*
X125367341Y-74059238D01*
X125232061Y-74003065D01*
X125085582Y-74002937D01*
X124950204Y-74058874D01*
X124846538Y-74162359D01*
X124833343Y-74194136D01*
X124833343Y-68293722D01*
X124777406Y-68158344D01*
X124673921Y-68054678D01*
X124538641Y-67998505D01*
X124392162Y-67998377D01*
X124256784Y-68054314D01*
X124198355Y-68112640D01*
X123200160Y-68112640D01*
X123102958Y-68131975D01*
X123020555Y-68187035D01*
X122561441Y-68646148D01*
X122479542Y-68646077D01*
X122344164Y-68702014D01*
X122240498Y-68805499D01*
X122184325Y-68940779D01*
X122184197Y-69087258D01*
X122240134Y-69222636D01*
X122343619Y-69326302D01*
X122478899Y-69382475D01*
X122625378Y-69382603D01*
X122760756Y-69326666D01*
X122864422Y-69223181D01*
X122920595Y-69087901D01*
X122920667Y-69005342D01*
X123305370Y-68620640D01*
X124198378Y-68620640D01*
X124256239Y-68678602D01*
X124391519Y-68734775D01*
X124537998Y-68734903D01*
X124673376Y-68678966D01*
X124777042Y-68575481D01*
X124833215Y-68440201D01*
X124833343Y-68293722D01*
X124833343Y-74194136D01*
X124790365Y-74297639D01*
X124790237Y-74444118D01*
X124846174Y-74579496D01*
X124904500Y-74637924D01*
X124904500Y-79485690D01*
X123278863Y-81111327D01*
X123278863Y-75357462D01*
X123222926Y-75222084D01*
X123119441Y-75118418D01*
X122984161Y-75062245D01*
X122837682Y-75062117D01*
X122722603Y-75109666D01*
X122722603Y-70960722D01*
X122666666Y-70825344D01*
X122563181Y-70721678D01*
X122427901Y-70665505D01*
X122281422Y-70665377D01*
X122146044Y-70721314D01*
X122042378Y-70824799D01*
X121986205Y-70960079D01*
X121986077Y-71106558D01*
X122042014Y-71241936D01*
X122145499Y-71345602D01*
X122280779Y-71401775D01*
X122427258Y-71401903D01*
X122562636Y-71345966D01*
X122666302Y-71242481D01*
X122722475Y-71107201D01*
X122722603Y-70960722D01*
X122722603Y-75109666D01*
X122702304Y-75118054D01*
X122659142Y-75161140D01*
X121630441Y-75161140D01*
X121572581Y-75103178D01*
X121437301Y-75047005D01*
X121290822Y-75046877D01*
X121155444Y-75102814D01*
X121051778Y-75206299D01*
X120995605Y-75341579D01*
X120995477Y-75488058D01*
X121051414Y-75623436D01*
X121154899Y-75727102D01*
X121290179Y-75783275D01*
X121436658Y-75783403D01*
X121572036Y-75727466D01*
X121630464Y-75669140D01*
X122628684Y-75669140D01*
X122701759Y-75742342D01*
X122837039Y-75798515D01*
X122983518Y-75798643D01*
X123118896Y-75742706D01*
X123222562Y-75639221D01*
X123278735Y-75503941D01*
X123278863Y-75357462D01*
X123278863Y-81111327D01*
X122767290Y-81622900D01*
X121071677Y-81622900D01*
X121109282Y-81585361D01*
X121165455Y-81450081D01*
X121165583Y-81303602D01*
X121109646Y-81168224D01*
X121006161Y-81064558D01*
X120870881Y-81008385D01*
X120724402Y-81008257D01*
X120589024Y-81064194D01*
X120485358Y-81167679D01*
X120429185Y-81302959D01*
X120429057Y-81449438D01*
X120484994Y-81584816D01*
X120523011Y-81622900D01*
X119560303Y-81622900D01*
X119560303Y-78816942D01*
X119504366Y-78681564D01*
X119400881Y-78577898D01*
X119265601Y-78521725D01*
X119119122Y-78521597D01*
X118983744Y-78577534D01*
X118880078Y-78681019D01*
X118823905Y-78816299D01*
X118823777Y-78962778D01*
X118879714Y-79098156D01*
X118983199Y-79201822D01*
X119118479Y-79257995D01*
X119264958Y-79258123D01*
X119400336Y-79202186D01*
X119504002Y-79098701D01*
X119560175Y-78963421D01*
X119560303Y-78816942D01*
X119560303Y-81622900D01*
X116352283Y-81622900D01*
X116352283Y-71067402D01*
X116296346Y-70932024D01*
X116192861Y-70828358D01*
X116085583Y-70783812D01*
X116085583Y-69352902D01*
X116029646Y-69217524D01*
X115926161Y-69113858D01*
X115859017Y-69085977D01*
X115402500Y-68629460D01*
X115402500Y-67630453D01*
X115430135Y-67563901D01*
X115430263Y-67417422D01*
X115374326Y-67282044D01*
X115270841Y-67178378D01*
X115135561Y-67122205D01*
X114989082Y-67122077D01*
X114853704Y-67178014D01*
X114750038Y-67281499D01*
X114693865Y-67416779D01*
X114693737Y-67563258D01*
X114721500Y-67630449D01*
X114721500Y-68770500D01*
X114747419Y-68900804D01*
X114821230Y-69011270D01*
X115377475Y-69567515D01*
X115404994Y-69634116D01*
X115508479Y-69737782D01*
X115643759Y-69793955D01*
X115790238Y-69794083D01*
X115925616Y-69738146D01*
X116029282Y-69634661D01*
X116085455Y-69499381D01*
X116085583Y-69352902D01*
X116085583Y-70783812D01*
X116057581Y-70772185D01*
X115911102Y-70772057D01*
X115775724Y-70827994D01*
X115672058Y-70931479D01*
X115615885Y-71066759D01*
X115615757Y-71213238D01*
X115671694Y-71348616D01*
X115775179Y-71452282D01*
X115910459Y-71508455D01*
X116056938Y-71508583D01*
X116192316Y-71452646D01*
X116295982Y-71349161D01*
X116352155Y-71213881D01*
X116352283Y-71067402D01*
X116352283Y-81622900D01*
X116093203Y-81622900D01*
X116093203Y-77338662D01*
X116037266Y-77203284D01*
X115933781Y-77099618D01*
X115798501Y-77043445D01*
X115652022Y-77043317D01*
X115516644Y-77099254D01*
X115412978Y-77202739D01*
X115356805Y-77338019D01*
X115356677Y-77484498D01*
X115412614Y-77619876D01*
X115516099Y-77723542D01*
X115651379Y-77779715D01*
X115797858Y-77779843D01*
X115933236Y-77723906D01*
X116036902Y-77620421D01*
X116093075Y-77485141D01*
X116093203Y-77338662D01*
X116093203Y-81622900D01*
X113738623Y-81622900D01*
X113738623Y-76988142D01*
X113682686Y-76852764D01*
X113579201Y-76749098D01*
X113443921Y-76692925D01*
X113297442Y-76692797D01*
X113162064Y-76748734D01*
X113058398Y-76852219D01*
X113002225Y-76987499D01*
X113002097Y-77133978D01*
X113058034Y-77269356D01*
X113161519Y-77373022D01*
X113296799Y-77429195D01*
X113443278Y-77429323D01*
X113578656Y-77373386D01*
X113682322Y-77269901D01*
X113738495Y-77134621D01*
X113738623Y-76988142D01*
X113738623Y-81622900D01*
X113273803Y-81622900D01*
X113273803Y-80135202D01*
X113217866Y-79999824D01*
X113114381Y-79896158D01*
X112979101Y-79839985D01*
X112923283Y-79839936D01*
X112923283Y-61169022D01*
X112867346Y-61033644D01*
X112763861Y-60929978D01*
X112628581Y-60873805D01*
X112526941Y-60873716D01*
X112527043Y-60757542D01*
X112471106Y-60622164D01*
X112367621Y-60518498D01*
X112232341Y-60462325D01*
X112085862Y-60462197D01*
X111950484Y-60518134D01*
X111846818Y-60621619D01*
X111836610Y-60646202D01*
X111787846Y-60528184D01*
X111684361Y-60424518D01*
X111549081Y-60368345D01*
X111402602Y-60368217D01*
X111267224Y-60424154D01*
X111163558Y-60527639D01*
X111107385Y-60662919D01*
X111107257Y-60809398D01*
X111163194Y-60944776D01*
X111266679Y-61048442D01*
X111393203Y-61100979D01*
X111371545Y-61153139D01*
X111371417Y-61299618D01*
X111427354Y-61434996D01*
X111530839Y-61538662D01*
X111666119Y-61594835D01*
X111812598Y-61594963D01*
X111947976Y-61539026D01*
X112051642Y-61435541D01*
X112107815Y-61300261D01*
X112107903Y-61198614D01*
X112186858Y-61198683D01*
X112186757Y-61314858D01*
X112242694Y-61450236D01*
X112346179Y-61553902D01*
X112481459Y-61610075D01*
X112627938Y-61610203D01*
X112763316Y-61554266D01*
X112866982Y-61450781D01*
X112923155Y-61315501D01*
X112923283Y-61169022D01*
X112923283Y-79839936D01*
X112832622Y-79839857D01*
X112778503Y-79862218D01*
X112778503Y-67722222D01*
X112722566Y-67586844D01*
X112619081Y-67483178D01*
X112483801Y-67427005D01*
X112337322Y-67426877D01*
X112201944Y-67482814D01*
X112098278Y-67586299D01*
X112042105Y-67721579D01*
X112041977Y-67868058D01*
X112097914Y-68003436D01*
X112201399Y-68107102D01*
X112336679Y-68163275D01*
X112483158Y-68163403D01*
X112618536Y-68107466D01*
X112722202Y-68003981D01*
X112778375Y-67868701D01*
X112778503Y-67722222D01*
X112778503Y-79862218D01*
X112725163Y-79884258D01*
X112725163Y-71433162D01*
X112669226Y-71297784D01*
X112565741Y-71194118D01*
X112430461Y-71137945D01*
X112283982Y-71137817D01*
X112148604Y-71193754D01*
X112044938Y-71297239D01*
X111988765Y-71432519D01*
X111988637Y-71578998D01*
X112044574Y-71714376D01*
X112148059Y-71818042D01*
X112283339Y-71874215D01*
X112429818Y-71874343D01*
X112565196Y-71818406D01*
X112668862Y-71714921D01*
X112725035Y-71579641D01*
X112725163Y-71433162D01*
X112725163Y-79884258D01*
X112697244Y-79895794D01*
X112593578Y-79999279D01*
X112537405Y-80134559D01*
X112537277Y-80281038D01*
X112593214Y-80416416D01*
X112696699Y-80520082D01*
X112831979Y-80576255D01*
X112978458Y-80576383D01*
X113113836Y-80520446D01*
X113217502Y-80416961D01*
X113273675Y-80281681D01*
X113273803Y-80135202D01*
X113273803Y-81622900D01*
X109639063Y-81622900D01*
X109639063Y-74691982D01*
X109583126Y-74556604D01*
X109479641Y-74452938D01*
X109344361Y-74396765D01*
X109197882Y-74396637D01*
X109062504Y-74452574D01*
X108958838Y-74556059D01*
X108902665Y-74691339D01*
X108902537Y-74837818D01*
X108958474Y-74973196D01*
X109061959Y-75076862D01*
X109197239Y-75133035D01*
X109343718Y-75133163D01*
X109479096Y-75077226D01*
X109582762Y-74973741D01*
X109638935Y-74838461D01*
X109639063Y-74691982D01*
X109639063Y-81622900D01*
X108917694Y-81622900D01*
X108917703Y-81613482D01*
X108861766Y-81478104D01*
X108800863Y-81417094D01*
X108800863Y-78474042D01*
X108744926Y-78338664D01*
X108641441Y-78234998D01*
X108506161Y-78178825D01*
X108496063Y-78178816D01*
X108496063Y-71593182D01*
X108440126Y-71457804D01*
X108336641Y-71354138D01*
X108201361Y-71297965D01*
X108176023Y-71297942D01*
X108176023Y-59561202D01*
X108120086Y-59425824D01*
X108016601Y-59322158D01*
X107881321Y-59265985D01*
X107734842Y-59265857D01*
X107599464Y-59321794D01*
X107495798Y-59425279D01*
X107439625Y-59560559D01*
X107439497Y-59707038D01*
X107495434Y-59842416D01*
X107598919Y-59946082D01*
X107734199Y-60002255D01*
X107880678Y-60002383D01*
X108016056Y-59946446D01*
X108119722Y-59842961D01*
X108175895Y-59707681D01*
X108176023Y-59561202D01*
X108176023Y-71297942D01*
X108118802Y-71297892D01*
X108112523Y-71291613D01*
X108112523Y-60328282D01*
X108056586Y-60192904D01*
X107953101Y-60089238D01*
X107817821Y-60033065D01*
X107671342Y-60032937D01*
X107535964Y-60088874D01*
X107432298Y-60192359D01*
X107376125Y-60327639D01*
X107375997Y-60474118D01*
X107431934Y-60609496D01*
X107535419Y-60713162D01*
X107670699Y-60769335D01*
X107817178Y-60769463D01*
X107952556Y-60713526D01*
X108056222Y-60610041D01*
X108112395Y-60474761D01*
X108112523Y-60328282D01*
X108112523Y-71291613D01*
X107993180Y-71172270D01*
X107993180Y-63680341D01*
X108051142Y-63622481D01*
X108107315Y-63487201D01*
X108107443Y-63340722D01*
X108051506Y-63205344D01*
X107948021Y-63101678D01*
X107812741Y-63045505D01*
X107666262Y-63045377D01*
X107530884Y-63101314D01*
X107427218Y-63204799D01*
X107371045Y-63340079D01*
X107370917Y-63486558D01*
X107426854Y-63621936D01*
X107485180Y-63680364D01*
X107485180Y-71277480D01*
X107504515Y-71374682D01*
X107559575Y-71457085D01*
X107759608Y-71657118D01*
X107759537Y-71739018D01*
X107815474Y-71874396D01*
X107918959Y-71978062D01*
X108054239Y-72034235D01*
X108200718Y-72034363D01*
X108336096Y-71978426D01*
X108439762Y-71874941D01*
X108495935Y-71739661D01*
X108496063Y-71593182D01*
X108496063Y-78178816D01*
X108359682Y-78178697D01*
X108224304Y-78234634D01*
X108165875Y-78292960D01*
X99565354Y-78292960D01*
X99565423Y-78214962D01*
X99536779Y-78145640D01*
X107754418Y-78145640D01*
X107812279Y-78203602D01*
X107947559Y-78259775D01*
X108094038Y-78259903D01*
X108229416Y-78203966D01*
X108333082Y-78100481D01*
X108389255Y-77965201D01*
X108389383Y-77818722D01*
X108333446Y-77683344D01*
X108229961Y-77579678D01*
X108094681Y-77523505D01*
X107948202Y-77523377D01*
X107812824Y-77579314D01*
X107754395Y-77637640D01*
X107342903Y-77637640D01*
X107342903Y-63729342D01*
X107286966Y-63593964D01*
X107183481Y-63490298D01*
X107048201Y-63434125D01*
X106901722Y-63433997D01*
X106766344Y-63489934D01*
X106662678Y-63593419D01*
X106606505Y-63728699D01*
X106606432Y-63811257D01*
X105377715Y-65039975D01*
X105322655Y-65122378D01*
X105303320Y-65219580D01*
X105303320Y-74376280D01*
X105308852Y-74404092D01*
X105303485Y-74417019D01*
X105303357Y-74563498D01*
X105359294Y-74698876D01*
X105462779Y-74802542D01*
X105598059Y-74858715D01*
X105744538Y-74858843D01*
X105879916Y-74802906D01*
X105983582Y-74699421D01*
X106039755Y-74564141D01*
X106039883Y-74417662D01*
X105983946Y-74282284D01*
X105880461Y-74178618D01*
X105811320Y-74149908D01*
X105811320Y-65324790D01*
X106965658Y-64170451D01*
X107047558Y-64170523D01*
X107182936Y-64114586D01*
X107286602Y-64011101D01*
X107342775Y-63875821D01*
X107342903Y-63729342D01*
X107342903Y-77637640D01*
X101569483Y-77637640D01*
X101569483Y-66622402D01*
X101513546Y-66487024D01*
X101410061Y-66383358D01*
X101274781Y-66327185D01*
X101128302Y-66327057D01*
X100992924Y-66382994D01*
X100889258Y-66486479D01*
X100840500Y-66603901D01*
X100840500Y-65640113D01*
X100868135Y-65573561D01*
X100868263Y-65427082D01*
X100812326Y-65291704D01*
X100708841Y-65188038D01*
X100573561Y-65131865D01*
X100427082Y-65131737D01*
X100291704Y-65187674D01*
X100188038Y-65291159D01*
X100131865Y-65426439D01*
X100131737Y-65572918D01*
X100159500Y-65640109D01*
X100159500Y-72359886D01*
X100131865Y-72426439D01*
X100131737Y-72572918D01*
X100187674Y-72708296D01*
X100291159Y-72811962D01*
X100426439Y-72868135D01*
X100572918Y-72868263D01*
X100708296Y-72812326D01*
X100811962Y-72708841D01*
X100868135Y-72573561D01*
X100868263Y-72427082D01*
X100840500Y-72359890D01*
X100840500Y-67816922D01*
X100878734Y-67909456D01*
X100982219Y-68013122D01*
X101117499Y-68069295D01*
X101263978Y-68069423D01*
X101399356Y-68013486D01*
X101503022Y-67910001D01*
X101559195Y-67774721D01*
X101559323Y-67628242D01*
X101503386Y-67492864D01*
X101455220Y-67444613D01*
X101455220Y-66962021D01*
X101513182Y-66904161D01*
X101569355Y-66768881D01*
X101569483Y-66622402D01*
X101569483Y-77637640D01*
X100982743Y-77637640D01*
X100982743Y-74420202D01*
X100926806Y-74284824D01*
X100823321Y-74181158D01*
X100688041Y-74124985D01*
X100541562Y-74124857D01*
X100406184Y-74180794D01*
X100302518Y-74284279D01*
X100246345Y-74419559D01*
X100246217Y-74566038D01*
X100302154Y-74701416D01*
X100405639Y-74805082D01*
X100540919Y-74861255D01*
X100687398Y-74861383D01*
X100822776Y-74805446D01*
X100926442Y-74701961D01*
X100982615Y-74566681D01*
X100982743Y-74420202D01*
X100982743Y-77637640D01*
X99283483Y-77637640D01*
X99283483Y-73383882D01*
X99227546Y-73248504D01*
X99124061Y-73144838D01*
X98988781Y-73088665D01*
X98842302Y-73088537D01*
X98706924Y-73144474D01*
X98603258Y-73247959D01*
X98547085Y-73383239D01*
X98546957Y-73529718D01*
X98602894Y-73665096D01*
X98706379Y-73768762D01*
X98841659Y-73824935D01*
X98988138Y-73825063D01*
X99123516Y-73769126D01*
X99227182Y-73665641D01*
X99283355Y-73530361D01*
X99283483Y-73383882D01*
X99283483Y-77637640D01*
X99039643Y-77637640D01*
X99039643Y-74336382D01*
X98983706Y-74201004D01*
X98880221Y-74097338D01*
X98744941Y-74041165D01*
X98598462Y-74041037D01*
X98463084Y-74096974D01*
X98359418Y-74200459D01*
X98303245Y-74335739D01*
X98303117Y-74482218D01*
X98359054Y-74617596D01*
X98462539Y-74721262D01*
X98597819Y-74777435D01*
X98744298Y-74777563D01*
X98879676Y-74721626D01*
X98983342Y-74618141D01*
X99039515Y-74482861D01*
X99039643Y-74336382D01*
X99039643Y-77637640D01*
X97449640Y-77637640D01*
X97352438Y-77656975D01*
X97270035Y-77712035D01*
X96931591Y-78050478D01*
X96931591Y-69332079D01*
X96931591Y-64932799D01*
X96834350Y-64697457D01*
X96654450Y-64517243D01*
X96419278Y-64419591D01*
X96164639Y-64419369D01*
X95929297Y-64516610D01*
X95749083Y-64696510D01*
X95651431Y-64931682D01*
X95651209Y-65186321D01*
X95748450Y-65421663D01*
X95928350Y-65601877D01*
X96163522Y-65699529D01*
X96418161Y-65699751D01*
X96653503Y-65602510D01*
X96833717Y-65422610D01*
X96931369Y-65187438D01*
X96931591Y-64932799D01*
X96931591Y-69332079D01*
X96834350Y-69096737D01*
X96654450Y-68916523D01*
X96419278Y-68818871D01*
X96164639Y-68818649D01*
X95929297Y-68915890D01*
X95749083Y-69095790D01*
X95651431Y-69330962D01*
X95651209Y-69585601D01*
X95748450Y-69820943D01*
X95928350Y-70001157D01*
X96163522Y-70098809D01*
X96418161Y-70099031D01*
X96653503Y-70001790D01*
X96833717Y-69821890D01*
X96931369Y-69586718D01*
X96931591Y-69332079D01*
X96931591Y-78050478D01*
X96610261Y-78371808D01*
X96528362Y-78371737D01*
X96392984Y-78427674D01*
X96289318Y-78531159D01*
X96233145Y-78666439D01*
X96233017Y-78812918D01*
X96288954Y-78948296D01*
X96392439Y-79051962D01*
X96527719Y-79108135D01*
X96674198Y-79108263D01*
X96809576Y-79052326D01*
X96913242Y-78948841D01*
X96969415Y-78813561D01*
X96969487Y-78731002D01*
X97554850Y-78145640D01*
X98857542Y-78145640D01*
X98829025Y-78214319D01*
X98828897Y-78360798D01*
X98884834Y-78496176D01*
X98988319Y-78599842D01*
X99123599Y-78656015D01*
X99206157Y-78656087D01*
X99276635Y-78726565D01*
X99359038Y-78781625D01*
X99359039Y-78781625D01*
X99456240Y-78800960D01*
X108165898Y-78800960D01*
X108223759Y-78858922D01*
X108359039Y-78915095D01*
X108505518Y-78915223D01*
X108640896Y-78859286D01*
X108744562Y-78755801D01*
X108800735Y-78620521D01*
X108800863Y-78474042D01*
X108800863Y-81417094D01*
X108770383Y-81386561D01*
X108770383Y-80394282D01*
X108714446Y-80258904D01*
X108610961Y-80155238D01*
X108475681Y-80099065D01*
X108329202Y-80098937D01*
X108193824Y-80154874D01*
X108090158Y-80258359D01*
X108033985Y-80393639D01*
X108033857Y-80540118D01*
X108089794Y-80675496D01*
X108193279Y-80779162D01*
X108328559Y-80835335D01*
X108475038Y-80835463D01*
X108610416Y-80779526D01*
X108714082Y-80676041D01*
X108770255Y-80540761D01*
X108770383Y-80394282D01*
X108770383Y-81386561D01*
X108758281Y-81374438D01*
X108623001Y-81318265D01*
X108476522Y-81318137D01*
X108341144Y-81374074D01*
X108237478Y-81477559D01*
X108181305Y-81612839D01*
X108181177Y-81759318D01*
X108237114Y-81894696D01*
X108340599Y-81998362D01*
X108475879Y-82054535D01*
X108558437Y-82054607D01*
X108560335Y-82056505D01*
X108642738Y-82111565D01*
X108642739Y-82111566D01*
X108739940Y-82130900D01*
X122872500Y-82130900D01*
X122969701Y-82111565D01*
X122969702Y-82111565D01*
X123052105Y-82056505D01*
X125338105Y-79770505D01*
X125393165Y-79688102D01*
X125393165Y-79688101D01*
X125397260Y-79667515D01*
X125397260Y-80572810D01*
X123135590Y-82834480D01*
X108615495Y-82834480D01*
X108565241Y-82784138D01*
X108429961Y-82727965D01*
X108283482Y-82727837D01*
X108148104Y-82783774D01*
X108044438Y-82887259D01*
X107988265Y-83022539D01*
X107988137Y-83169018D01*
X108044074Y-83304396D01*
X108147559Y-83408062D01*
X108282839Y-83464235D01*
X108429318Y-83464363D01*
X108564696Y-83408426D01*
X108630757Y-83342480D01*
X123240800Y-83342480D01*
X123338001Y-83323145D01*
X123338002Y-83323145D01*
X123420405Y-83268085D01*
X125830865Y-80857625D01*
X125885925Y-80775222D01*
X125885925Y-80775221D01*
X125905260Y-80678020D01*
X125905260Y-72082661D01*
X125963222Y-72024801D01*
X126019395Y-71889521D01*
X126019523Y-71743042D01*
X126019523Y-85759500D01*
X106819663Y-85759500D01*
X106819663Y-82527882D01*
X106763726Y-82392504D01*
X106705400Y-82334075D01*
X106705400Y-81292701D01*
X106763362Y-81234841D01*
X106819535Y-81099561D01*
X106819663Y-80953082D01*
X106763726Y-80817704D01*
X106660241Y-80714038D01*
X106524961Y-80657865D01*
X106378482Y-80657737D01*
X106243104Y-80713674D01*
X106139438Y-80817159D01*
X106083265Y-80952439D01*
X106083137Y-81098918D01*
X106139074Y-81234296D01*
X106197400Y-81292724D01*
X106197400Y-82334098D01*
X106139438Y-82391959D01*
X106083265Y-82527239D01*
X106083137Y-82673718D01*
X106139074Y-82809096D01*
X106242559Y-82912762D01*
X106377839Y-82968935D01*
X106524318Y-82969063D01*
X106659696Y-82913126D01*
X106763362Y-82809641D01*
X106819535Y-82674361D01*
X106819663Y-82527882D01*
X106819663Y-85759500D01*
X106072903Y-85759500D01*
X106072903Y-81057222D01*
X106016966Y-80921844D01*
X105913481Y-80818178D01*
X105778201Y-80762005D01*
X105631722Y-80761877D01*
X105496344Y-80817814D01*
X105412503Y-80901508D01*
X105412503Y-80409522D01*
X105356566Y-80274144D01*
X105253081Y-80170478D01*
X105117801Y-80114305D01*
X104971322Y-80114177D01*
X104835944Y-80170114D01*
X104732278Y-80273599D01*
X104676105Y-80408879D01*
X104675977Y-80555358D01*
X104731914Y-80690736D01*
X104835399Y-80794402D01*
X104970679Y-80850575D01*
X105117158Y-80850703D01*
X105252536Y-80794766D01*
X105356202Y-80691281D01*
X105412375Y-80556001D01*
X105412503Y-80409522D01*
X105412503Y-80901508D01*
X105392678Y-80921299D01*
X105336505Y-81056579D01*
X105336377Y-81203058D01*
X105392314Y-81338436D01*
X105450640Y-81396864D01*
X105450640Y-81826138D01*
X105448842Y-81826137D01*
X105313464Y-81882074D01*
X105209798Y-81985559D01*
X105153625Y-82120839D01*
X105153497Y-82267318D01*
X105209434Y-82402696D01*
X105312919Y-82506362D01*
X105448199Y-82562535D01*
X105594678Y-82562663D01*
X105730056Y-82506726D01*
X105833722Y-82403241D01*
X105889895Y-82267961D01*
X105889969Y-82182557D01*
X105939305Y-82108722D01*
X105939305Y-82108721D01*
X105958640Y-82011520D01*
X105958640Y-81396841D01*
X106016602Y-81338981D01*
X106072775Y-81203701D01*
X106072903Y-81057222D01*
X106072903Y-85759500D01*
X98254783Y-85759500D01*
X98254783Y-79332562D01*
X98198846Y-79197184D01*
X98095361Y-79093518D01*
X97960081Y-79037345D01*
X97813602Y-79037217D01*
X97678224Y-79093154D01*
X97574558Y-79196639D01*
X97518385Y-79331919D01*
X97518257Y-79478398D01*
X97574194Y-79613776D01*
X97677679Y-79717442D01*
X97812959Y-79773615D01*
X97959438Y-79773743D01*
X98094816Y-79717806D01*
X98198482Y-79614321D01*
X98254655Y-79479041D01*
X98254783Y-79332562D01*
X98254783Y-85759500D01*
X94575137Y-85759500D01*
X94575137Y-80594200D01*
X94555232Y-80494131D01*
X94555232Y-78917800D01*
X94555232Y-77190600D01*
X94541139Y-77117963D01*
X94499202Y-77054122D01*
X94435892Y-77011387D01*
X94361000Y-76996368D01*
X92329000Y-76996368D01*
X92256363Y-77010461D01*
X92192522Y-77052398D01*
X92149787Y-77115708D01*
X92134768Y-77190600D01*
X92134768Y-78917800D01*
X92148861Y-78990437D01*
X92190798Y-79054278D01*
X92254108Y-79097013D01*
X92329000Y-79112032D01*
X94361000Y-79112032D01*
X94433637Y-79097939D01*
X94497478Y-79056002D01*
X94540213Y-78992692D01*
X94555232Y-78917800D01*
X94555232Y-80494131D01*
X94494898Y-80190813D01*
X94266398Y-79848839D01*
X93924424Y-79620339D01*
X93521037Y-79540100D01*
X93168963Y-79540100D01*
X92765576Y-79620339D01*
X92423602Y-79848839D01*
X92195102Y-80190813D01*
X92114863Y-80594200D01*
X92195102Y-80997587D01*
X92423602Y-81339561D01*
X92765576Y-81568061D01*
X93168963Y-81648300D01*
X93521037Y-81648300D01*
X93924424Y-81568061D01*
X94266398Y-81339561D01*
X94494898Y-80997587D01*
X94575137Y-80594200D01*
X94575137Y-85759500D01*
X94491578Y-85759500D01*
X94491578Y-83484537D01*
X94491578Y-82783863D01*
X94369794Y-82547463D01*
X94078852Y-82258275D01*
X93699390Y-82102439D01*
X93535500Y-82131169D01*
X93535500Y-82943700D01*
X94485682Y-82943700D01*
X94491578Y-82783863D01*
X94491578Y-83484537D01*
X94485682Y-83324700D01*
X93535500Y-83324700D01*
X93535500Y-84137231D01*
X93699390Y-84165961D01*
X94078852Y-84010125D01*
X94369794Y-83720937D01*
X94491578Y-83484537D01*
X94491578Y-85759500D01*
X93154500Y-85759500D01*
X93154500Y-84137231D01*
X93154500Y-83324700D01*
X93154500Y-82943700D01*
X93154500Y-82131169D01*
X92990610Y-82102439D01*
X92611148Y-82258275D01*
X92320206Y-82547463D01*
X92198422Y-82783863D01*
X92204318Y-82943700D01*
X93154500Y-82943700D01*
X93154500Y-83324700D01*
X92204318Y-83324700D01*
X92198422Y-83484537D01*
X92320206Y-83720937D01*
X92611148Y-84010125D01*
X92990610Y-84165961D01*
X93154500Y-84137231D01*
X93154500Y-85759500D01*
X91240500Y-85759500D01*
X91240500Y-55240500D01*
X133000000Y-55240500D01*
X136759500Y-55240500D01*
X136759500Y-85759500D01*
X136759500Y-85759500D01*
G37*
X136759500Y-85759500D02*
X134945083Y-85759500D01*
X134945083Y-74257642D01*
X134889146Y-74122264D01*
X134785661Y-74018598D01*
X134650381Y-73962425D01*
X134567822Y-73962352D01*
X134070625Y-73465155D01*
X133988222Y-73410095D01*
X133901143Y-73392773D01*
X133901143Y-65946762D01*
X133845206Y-65811384D01*
X133741721Y-65707718D01*
X133606441Y-65651545D01*
X133459962Y-65651417D01*
X133392770Y-65679180D01*
X133261147Y-65679180D01*
X133261147Y-62524433D01*
X133261147Y-57444433D01*
X133209184Y-56873727D01*
X133090756Y-56587817D01*
X132931101Y-56428607D01*
X132661693Y-56698015D01*
X132661693Y-56159199D01*
X132502483Y-55999544D01*
X131955333Y-55829153D01*
X131384627Y-55881116D01*
X131098717Y-55999544D01*
X130939507Y-56159199D01*
X131800600Y-57020292D01*
X132661693Y-56159199D01*
X132661693Y-56698015D01*
X132070008Y-57289700D01*
X132931101Y-58150793D01*
X133090756Y-57991583D01*
X133261147Y-57444433D01*
X133261147Y-62524433D01*
X133209184Y-61953727D01*
X133090756Y-61667817D01*
X132931101Y-61508607D01*
X132661693Y-61778015D01*
X132661693Y-61239199D01*
X132661693Y-58420201D01*
X131800600Y-57559108D01*
X131531192Y-57828516D01*
X131531192Y-57289700D01*
X130670099Y-56428607D01*
X130510444Y-56587817D01*
X130340053Y-57134967D01*
X130392016Y-57705673D01*
X130510444Y-57991583D01*
X130670099Y-58150793D01*
X131531192Y-57289700D01*
X131531192Y-57828516D01*
X130939507Y-58420201D01*
X131098717Y-58579856D01*
X131645867Y-58750247D01*
X132216573Y-58698284D01*
X132502483Y-58579856D01*
X132661693Y-58420201D01*
X132661693Y-61239199D01*
X132502483Y-61079544D01*
X131955333Y-60909153D01*
X131384627Y-60961116D01*
X131098717Y-61079544D01*
X130939507Y-61239199D01*
X131800600Y-62100292D01*
X132661693Y-61239199D01*
X132661693Y-61778015D01*
X132070008Y-62369700D01*
X132931101Y-63230793D01*
X133090756Y-63071583D01*
X133261147Y-62524433D01*
X133261147Y-65679180D01*
X132661693Y-65679180D01*
X132661693Y-63500201D01*
X131800600Y-62639108D01*
X131531192Y-62908516D01*
X131531192Y-62369700D01*
X130670099Y-61508607D01*
X130601332Y-61577182D01*
X130601332Y-59564228D01*
X130397683Y-59071360D01*
X130020924Y-58693942D01*
X129528412Y-58489433D01*
X128995128Y-58488968D01*
X128502260Y-58692617D01*
X128181147Y-59013169D01*
X128181147Y-57444433D01*
X128129184Y-56873727D01*
X128010756Y-56587817D01*
X127851101Y-56428607D01*
X127581693Y-56698015D01*
X127581693Y-56159199D01*
X127422483Y-55999544D01*
X126875333Y-55829153D01*
X126304627Y-55881116D01*
X126018717Y-55999544D01*
X125859507Y-56159199D01*
X126720600Y-57020292D01*
X127581693Y-56159199D01*
X127581693Y-56698015D01*
X126990008Y-57289700D01*
X127851101Y-58150793D01*
X128010756Y-57991583D01*
X128181147Y-57444433D01*
X128181147Y-59013169D01*
X128124842Y-59069376D01*
X127920333Y-59561888D01*
X127919868Y-60095172D01*
X128123517Y-60588040D01*
X128500276Y-60965458D01*
X128992788Y-61169967D01*
X129526072Y-61170432D01*
X130018940Y-60966783D01*
X130396358Y-60590024D01*
X130600867Y-60097512D01*
X130601332Y-59564228D01*
X130601332Y-61577182D01*
X130510444Y-61667817D01*
X130340053Y-62214967D01*
X130392016Y-62785673D01*
X130510444Y-63071583D01*
X130670099Y-63230793D01*
X131531192Y-62369700D01*
X131531192Y-62908516D01*
X130939507Y-63500201D01*
X131098717Y-63659856D01*
X131645867Y-63830247D01*
X132216573Y-63778284D01*
X132502483Y-63659856D01*
X132661693Y-63500201D01*
X132661693Y-65679180D01*
X128181147Y-65679180D01*
X128181147Y-62524433D01*
X128129184Y-61953727D01*
X128010756Y-61667817D01*
X127851101Y-61508607D01*
X127581693Y-61778015D01*
X127581693Y-61239199D01*
X127581693Y-58420201D01*
X126720600Y-57559108D01*
X126451192Y-57828516D01*
X126451192Y-57289700D01*
X125590099Y-56428607D01*
X125430444Y-56587817D01*
X125260053Y-57134967D01*
X125312016Y-57705673D01*
X125430444Y-57991583D01*
X125590099Y-58150793D01*
X126451192Y-57289700D01*
X126451192Y-57828516D01*
X125859507Y-58420201D01*
X126018717Y-58579856D01*
X126565867Y-58750247D01*
X127136573Y-58698284D01*
X127422483Y-58579856D01*
X127581693Y-58420201D01*
X127581693Y-61239199D01*
X127422483Y-61079544D01*
X126875333Y-60909153D01*
X126304627Y-60961116D01*
X126018717Y-61079544D01*
X125859507Y-61239199D01*
X126720600Y-62100292D01*
X127581693Y-61239199D01*
X127581693Y-61778015D01*
X126990008Y-62369700D01*
X127851101Y-63230793D01*
X128010756Y-63071583D01*
X128181147Y-62524433D01*
X128181147Y-65679180D01*
X127581693Y-65679180D01*
X127581693Y-63500201D01*
X126720600Y-62639108D01*
X126451192Y-62908516D01*
X126451192Y-62369700D01*
X125590099Y-61508607D01*
X125430444Y-61667817D01*
X125260053Y-62214967D01*
X125312016Y-62785673D01*
X125430444Y-63071583D01*
X125590099Y-63230793D01*
X126451192Y-62369700D01*
X126451192Y-62908516D01*
X125859507Y-63500201D01*
X126018717Y-63659856D01*
X126565867Y-63830247D01*
X127136573Y-63778284D01*
X127422483Y-63659856D01*
X127581693Y-63500201D01*
X127581693Y-65679180D01*
X122755513Y-65679180D01*
X122692721Y-65616278D01*
X122557441Y-65560105D01*
X122410962Y-65559977D01*
X122275584Y-65615914D01*
X122171918Y-65719399D01*
X122115745Y-65854679D01*
X122115617Y-66001158D01*
X122171554Y-66136536D01*
X122275039Y-66240202D01*
X122352194Y-66272239D01*
X122445016Y-66334261D01*
X122445017Y-66334261D01*
X122575320Y-66360180D01*
X133392766Y-66360180D01*
X133459319Y-66387815D01*
X133605798Y-66387943D01*
X133741176Y-66332006D01*
X133844842Y-66228521D01*
X133901015Y-66093241D01*
X133901143Y-65946762D01*
X133901143Y-73392773D01*
X133891020Y-73390760D01*
X132980230Y-73390760D01*
X132438031Y-72848561D01*
X132438103Y-72766662D01*
X132382166Y-72631284D01*
X132278681Y-72527618D01*
X132143401Y-72471445D01*
X131996922Y-72471317D01*
X131861544Y-72527254D01*
X131757878Y-72630739D01*
X131701705Y-72766019D01*
X131701577Y-72912498D01*
X131757514Y-73047876D01*
X131860999Y-73151542D01*
X131996279Y-73207715D01*
X132078837Y-73207787D01*
X132695415Y-73824365D01*
X132777818Y-73879425D01*
X132777819Y-73879425D01*
X132875020Y-73898760D01*
X133785810Y-73898760D01*
X134208628Y-74321578D01*
X134208557Y-74403478D01*
X134264494Y-74538856D01*
X134367979Y-74642522D01*
X134503259Y-74698695D01*
X134649738Y-74698823D01*
X134785116Y-74642886D01*
X134888782Y-74539401D01*
X134944955Y-74404121D01*
X134945083Y-74257642D01*
X134945083Y-85759500D01*
X129915883Y-85759500D01*
X129915883Y-72360262D01*
X129888120Y-72293070D01*
X129888120Y-68919631D01*
X129900515Y-68889781D01*
X129900643Y-68743302D01*
X129844706Y-68607924D01*
X129741221Y-68504258D01*
X129605941Y-68448085D01*
X129459462Y-68447957D01*
X129324084Y-68503894D01*
X129220418Y-68607379D01*
X129164245Y-68742659D01*
X129164117Y-68889138D01*
X129207120Y-68993213D01*
X129207120Y-72293066D01*
X129179485Y-72359619D01*
X129179357Y-72506098D01*
X129235294Y-72641476D01*
X129338779Y-72745142D01*
X129474059Y-72801315D01*
X129620538Y-72801443D01*
X129755916Y-72745506D01*
X129859582Y-72642021D01*
X129915755Y-72506741D01*
X129915883Y-72360262D01*
X129915883Y-85759500D01*
X126019523Y-85759500D01*
X126019523Y-71743042D01*
X125963586Y-71607664D01*
X125860101Y-71503998D01*
X125724821Y-71447825D01*
X125578342Y-71447697D01*
X125442964Y-71503634D01*
X125339298Y-71607119D01*
X125283125Y-71742399D01*
X125282997Y-71888878D01*
X125338934Y-72024256D01*
X125397260Y-72082684D01*
X125397260Y-74089209D01*
X125367341Y-74059238D01*
X125232061Y-74003065D01*
X125085582Y-74002937D01*
X124950204Y-74058874D01*
X124846538Y-74162359D01*
X124833343Y-74194136D01*
X124833343Y-68293722D01*
X124777406Y-68158344D01*
X124673921Y-68054678D01*
X124538641Y-67998505D01*
X124392162Y-67998377D01*
X124256784Y-68054314D01*
X124198355Y-68112640D01*
X123200160Y-68112640D01*
X123102958Y-68131975D01*
X123020555Y-68187035D01*
X122561441Y-68646148D01*
X122479542Y-68646077D01*
X122344164Y-68702014D01*
X122240498Y-68805499D01*
X122184325Y-68940779D01*
X122184197Y-69087258D01*
X122240134Y-69222636D01*
X122343619Y-69326302D01*
X122478899Y-69382475D01*
X122625378Y-69382603D01*
X122760756Y-69326666D01*
X122864422Y-69223181D01*
X122920595Y-69087901D01*
X122920667Y-69005342D01*
X123305370Y-68620640D01*
X124198378Y-68620640D01*
X124256239Y-68678602D01*
X124391519Y-68734775D01*
X124537998Y-68734903D01*
X124673376Y-68678966D01*
X124777042Y-68575481D01*
X124833215Y-68440201D01*
X124833343Y-68293722D01*
X124833343Y-74194136D01*
X124790365Y-74297639D01*
X124790237Y-74444118D01*
X124846174Y-74579496D01*
X124904500Y-74637924D01*
X124904500Y-79485690D01*
X123278863Y-81111327D01*
X123278863Y-75357462D01*
X123222926Y-75222084D01*
X123119441Y-75118418D01*
X122984161Y-75062245D01*
X122837682Y-75062117D01*
X122722603Y-75109666D01*
X122722603Y-70960722D01*
X122666666Y-70825344D01*
X122563181Y-70721678D01*
X122427901Y-70665505D01*
X122281422Y-70665377D01*
X122146044Y-70721314D01*
X122042378Y-70824799D01*
X121986205Y-70960079D01*
X121986077Y-71106558D01*
X122042014Y-71241936D01*
X122145499Y-71345602D01*
X122280779Y-71401775D01*
X122427258Y-71401903D01*
X122562636Y-71345966D01*
X122666302Y-71242481D01*
X122722475Y-71107201D01*
X122722603Y-70960722D01*
X122722603Y-75109666D01*
X122702304Y-75118054D01*
X122659142Y-75161140D01*
X121630441Y-75161140D01*
X121572581Y-75103178D01*
X121437301Y-75047005D01*
X121290822Y-75046877D01*
X121155444Y-75102814D01*
X121051778Y-75206299D01*
X120995605Y-75341579D01*
X120995477Y-75488058D01*
X121051414Y-75623436D01*
X121154899Y-75727102D01*
X121290179Y-75783275D01*
X121436658Y-75783403D01*
X121572036Y-75727466D01*
X121630464Y-75669140D01*
X122628684Y-75669140D01*
X122701759Y-75742342D01*
X122837039Y-75798515D01*
X122983518Y-75798643D01*
X123118896Y-75742706D01*
X123222562Y-75639221D01*
X123278735Y-75503941D01*
X123278863Y-75357462D01*
X123278863Y-81111327D01*
X122767290Y-81622900D01*
X121071677Y-81622900D01*
X121109282Y-81585361D01*
X121165455Y-81450081D01*
X121165583Y-81303602D01*
X121109646Y-81168224D01*
X121006161Y-81064558D01*
X120870881Y-81008385D01*
X120724402Y-81008257D01*
X120589024Y-81064194D01*
X120485358Y-81167679D01*
X120429185Y-81302959D01*
X120429057Y-81449438D01*
X120484994Y-81584816D01*
X120523011Y-81622900D01*
X119560303Y-81622900D01*
X119560303Y-78816942D01*
X119504366Y-78681564D01*
X119400881Y-78577898D01*
X119265601Y-78521725D01*
X119119122Y-78521597D01*
X118983744Y-78577534D01*
X118880078Y-78681019D01*
X118823905Y-78816299D01*
X118823777Y-78962778D01*
X118879714Y-79098156D01*
X118983199Y-79201822D01*
X119118479Y-79257995D01*
X119264958Y-79258123D01*
X119400336Y-79202186D01*
X119504002Y-79098701D01*
X119560175Y-78963421D01*
X119560303Y-78816942D01*
X119560303Y-81622900D01*
X116352283Y-81622900D01*
X116352283Y-71067402D01*
X116296346Y-70932024D01*
X116192861Y-70828358D01*
X116085583Y-70783812D01*
X116085583Y-69352902D01*
X116029646Y-69217524D01*
X115926161Y-69113858D01*
X115859017Y-69085977D01*
X115402500Y-68629460D01*
X115402500Y-67630453D01*
X115430135Y-67563901D01*
X115430263Y-67417422D01*
X115374326Y-67282044D01*
X115270841Y-67178378D01*
X115135561Y-67122205D01*
X114989082Y-67122077D01*
X114853704Y-67178014D01*
X114750038Y-67281499D01*
X114693865Y-67416779D01*
X114693737Y-67563258D01*
X114721500Y-67630449D01*
X114721500Y-68770500D01*
X114747419Y-68900804D01*
X114821230Y-69011270D01*
X115377475Y-69567515D01*
X115404994Y-69634116D01*
X115508479Y-69737782D01*
X115643759Y-69793955D01*
X115790238Y-69794083D01*
X115925616Y-69738146D01*
X116029282Y-69634661D01*
X116085455Y-69499381D01*
X116085583Y-69352902D01*
X116085583Y-70783812D01*
X116057581Y-70772185D01*
X115911102Y-70772057D01*
X115775724Y-70827994D01*
X115672058Y-70931479D01*
X115615885Y-71066759D01*
X115615757Y-71213238D01*
X115671694Y-71348616D01*
X115775179Y-71452282D01*
X115910459Y-71508455D01*
X116056938Y-71508583D01*
X116192316Y-71452646D01*
X116295982Y-71349161D01*
X116352155Y-71213881D01*
X116352283Y-71067402D01*
X116352283Y-81622900D01*
X116093203Y-81622900D01*
X116093203Y-77338662D01*
X116037266Y-77203284D01*
X115933781Y-77099618D01*
X115798501Y-77043445D01*
X115652022Y-77043317D01*
X115516644Y-77099254D01*
X115412978Y-77202739D01*
X115356805Y-77338019D01*
X115356677Y-77484498D01*
X115412614Y-77619876D01*
X115516099Y-77723542D01*
X115651379Y-77779715D01*
X115797858Y-77779843D01*
X115933236Y-77723906D01*
X116036902Y-77620421D01*
X116093075Y-77485141D01*
X116093203Y-77338662D01*
X116093203Y-81622900D01*
X113738623Y-81622900D01*
X113738623Y-76988142D01*
X113682686Y-76852764D01*
X113579201Y-76749098D01*
X113443921Y-76692925D01*
X113297442Y-76692797D01*
X113162064Y-76748734D01*
X113058398Y-76852219D01*
X113002225Y-76987499D01*
X113002097Y-77133978D01*
X113058034Y-77269356D01*
X113161519Y-77373022D01*
X113296799Y-77429195D01*
X113443278Y-77429323D01*
X113578656Y-77373386D01*
X113682322Y-77269901D01*
X113738495Y-77134621D01*
X113738623Y-76988142D01*
X113738623Y-81622900D01*
X113273803Y-81622900D01*
X113273803Y-80135202D01*
X113217866Y-79999824D01*
X113114381Y-79896158D01*
X112979101Y-79839985D01*
X112923283Y-79839936D01*
X112923283Y-61169022D01*
X112867346Y-61033644D01*
X112763861Y-60929978D01*
X112628581Y-60873805D01*
X112526941Y-60873716D01*
X112527043Y-60757542D01*
X112471106Y-60622164D01*
X112367621Y-60518498D01*
X112232341Y-60462325D01*
X112085862Y-60462197D01*
X111950484Y-60518134D01*
X111846818Y-60621619D01*
X111836610Y-60646202D01*
X111787846Y-60528184D01*
X111684361Y-60424518D01*
X111549081Y-60368345D01*
X111402602Y-60368217D01*
X111267224Y-60424154D01*
X111163558Y-60527639D01*
X111107385Y-60662919D01*
X111107257Y-60809398D01*
X111163194Y-60944776D01*
X111266679Y-61048442D01*
X111393203Y-61100979D01*
X111371545Y-61153139D01*
X111371417Y-61299618D01*
X111427354Y-61434996D01*
X111530839Y-61538662D01*
X111666119Y-61594835D01*
X111812598Y-61594963D01*
X111947976Y-61539026D01*
X112051642Y-61435541D01*
X112107815Y-61300261D01*
X112107903Y-61198614D01*
X112186858Y-61198683D01*
X112186757Y-61314858D01*
X112242694Y-61450236D01*
X112346179Y-61553902D01*
X112481459Y-61610075D01*
X112627938Y-61610203D01*
X112763316Y-61554266D01*
X112866982Y-61450781D01*
X112923155Y-61315501D01*
X112923283Y-61169022D01*
X112923283Y-79839936D01*
X112832622Y-79839857D01*
X112778503Y-79862218D01*
X112778503Y-67722222D01*
X112722566Y-67586844D01*
X112619081Y-67483178D01*
X112483801Y-67427005D01*
X112337322Y-67426877D01*
X112201944Y-67482814D01*
X112098278Y-67586299D01*
X112042105Y-67721579D01*
X112041977Y-67868058D01*
X112097914Y-68003436D01*
X112201399Y-68107102D01*
X112336679Y-68163275D01*
X112483158Y-68163403D01*
X112618536Y-68107466D01*
X112722202Y-68003981D01*
X112778375Y-67868701D01*
X112778503Y-67722222D01*
X112778503Y-79862218D01*
X112725163Y-79884258D01*
X112725163Y-71433162D01*
X112669226Y-71297784D01*
X112565741Y-71194118D01*
X112430461Y-71137945D01*
X112283982Y-71137817D01*
X112148604Y-71193754D01*
X112044938Y-71297239D01*
X111988765Y-71432519D01*
X111988637Y-71578998D01*
X112044574Y-71714376D01*
X112148059Y-71818042D01*
X112283339Y-71874215D01*
X112429818Y-71874343D01*
X112565196Y-71818406D01*
X112668862Y-71714921D01*
X112725035Y-71579641D01*
X112725163Y-71433162D01*
X112725163Y-79884258D01*
X112697244Y-79895794D01*
X112593578Y-79999279D01*
X112537405Y-80134559D01*
X112537277Y-80281038D01*
X112593214Y-80416416D01*
X112696699Y-80520082D01*
X112831979Y-80576255D01*
X112978458Y-80576383D01*
X113113836Y-80520446D01*
X113217502Y-80416961D01*
X113273675Y-80281681D01*
X113273803Y-80135202D01*
X113273803Y-81622900D01*
X109639063Y-81622900D01*
X109639063Y-74691982D01*
X109583126Y-74556604D01*
X109479641Y-74452938D01*
X109344361Y-74396765D01*
X109197882Y-74396637D01*
X109062504Y-74452574D01*
X108958838Y-74556059D01*
X108902665Y-74691339D01*
X108902537Y-74837818D01*
X108958474Y-74973196D01*
X109061959Y-75076862D01*
X109197239Y-75133035D01*
X109343718Y-75133163D01*
X109479096Y-75077226D01*
X109582762Y-74973741D01*
X109638935Y-74838461D01*
X109639063Y-74691982D01*
X109639063Y-81622900D01*
X108917694Y-81622900D01*
X108917703Y-81613482D01*
X108861766Y-81478104D01*
X108800863Y-81417094D01*
X108800863Y-78474042D01*
X108744926Y-78338664D01*
X108641441Y-78234998D01*
X108506161Y-78178825D01*
X108496063Y-78178816D01*
X108496063Y-71593182D01*
X108440126Y-71457804D01*
X108336641Y-71354138D01*
X108201361Y-71297965D01*
X108176023Y-71297942D01*
X108176023Y-59561202D01*
X108120086Y-59425824D01*
X108016601Y-59322158D01*
X107881321Y-59265985D01*
X107734842Y-59265857D01*
X107599464Y-59321794D01*
X107495798Y-59425279D01*
X107439625Y-59560559D01*
X107439497Y-59707038D01*
X107495434Y-59842416D01*
X107598919Y-59946082D01*
X107734199Y-60002255D01*
X107880678Y-60002383D01*
X108016056Y-59946446D01*
X108119722Y-59842961D01*
X108175895Y-59707681D01*
X108176023Y-59561202D01*
X108176023Y-71297942D01*
X108118802Y-71297892D01*
X108112523Y-71291613D01*
X108112523Y-60328282D01*
X108056586Y-60192904D01*
X107953101Y-60089238D01*
X107817821Y-60033065D01*
X107671342Y-60032937D01*
X107535964Y-60088874D01*
X107432298Y-60192359D01*
X107376125Y-60327639D01*
X107375997Y-60474118D01*
X107431934Y-60609496D01*
X107535419Y-60713162D01*
X107670699Y-60769335D01*
X107817178Y-60769463D01*
X107952556Y-60713526D01*
X108056222Y-60610041D01*
X108112395Y-60474761D01*
X108112523Y-60328282D01*
X108112523Y-71291613D01*
X107993180Y-71172270D01*
X107993180Y-63680341D01*
X108051142Y-63622481D01*
X108107315Y-63487201D01*
X108107443Y-63340722D01*
X108051506Y-63205344D01*
X107948021Y-63101678D01*
X107812741Y-63045505D01*
X107666262Y-63045377D01*
X107530884Y-63101314D01*
X107427218Y-63204799D01*
X107371045Y-63340079D01*
X107370917Y-63486558D01*
X107426854Y-63621936D01*
X107485180Y-63680364D01*
X107485180Y-71277480D01*
X107504515Y-71374682D01*
X107559575Y-71457085D01*
X107759608Y-71657118D01*
X107759537Y-71739018D01*
X107815474Y-71874396D01*
X107918959Y-71978062D01*
X108054239Y-72034235D01*
X108200718Y-72034363D01*
X108336096Y-71978426D01*
X108439762Y-71874941D01*
X108495935Y-71739661D01*
X108496063Y-71593182D01*
X108496063Y-78178816D01*
X108359682Y-78178697D01*
X108224304Y-78234634D01*
X108165875Y-78292960D01*
X99565354Y-78292960D01*
X99565423Y-78214962D01*
X99536779Y-78145640D01*
X107754418Y-78145640D01*
X107812279Y-78203602D01*
X107947559Y-78259775D01*
X108094038Y-78259903D01*
X108229416Y-78203966D01*
X108333082Y-78100481D01*
X108389255Y-77965201D01*
X108389383Y-77818722D01*
X108333446Y-77683344D01*
X108229961Y-77579678D01*
X108094681Y-77523505D01*
X107948202Y-77523377D01*
X107812824Y-77579314D01*
X107754395Y-77637640D01*
X107342903Y-77637640D01*
X107342903Y-63729342D01*
X107286966Y-63593964D01*
X107183481Y-63490298D01*
X107048201Y-63434125D01*
X106901722Y-63433997D01*
X106766344Y-63489934D01*
X106662678Y-63593419D01*
X106606505Y-63728699D01*
X106606432Y-63811257D01*
X105377715Y-65039975D01*
X105322655Y-65122378D01*
X105303320Y-65219580D01*
X105303320Y-74376280D01*
X105308852Y-74404092D01*
X105303485Y-74417019D01*
X105303357Y-74563498D01*
X105359294Y-74698876D01*
X105462779Y-74802542D01*
X105598059Y-74858715D01*
X105744538Y-74858843D01*
X105879916Y-74802906D01*
X105983582Y-74699421D01*
X106039755Y-74564141D01*
X106039883Y-74417662D01*
X105983946Y-74282284D01*
X105880461Y-74178618D01*
X105811320Y-74149908D01*
X105811320Y-65324790D01*
X106965658Y-64170451D01*
X107047558Y-64170523D01*
X107182936Y-64114586D01*
X107286602Y-64011101D01*
X107342775Y-63875821D01*
X107342903Y-63729342D01*
X107342903Y-77637640D01*
X101569483Y-77637640D01*
X101569483Y-66622402D01*
X101513546Y-66487024D01*
X101410061Y-66383358D01*
X101274781Y-66327185D01*
X101128302Y-66327057D01*
X100992924Y-66382994D01*
X100889258Y-66486479D01*
X100840500Y-66603901D01*
X100840500Y-65640113D01*
X100868135Y-65573561D01*
X100868263Y-65427082D01*
X100812326Y-65291704D01*
X100708841Y-65188038D01*
X100573561Y-65131865D01*
X100427082Y-65131737D01*
X100291704Y-65187674D01*
X100188038Y-65291159D01*
X100131865Y-65426439D01*
X100131737Y-65572918D01*
X100159500Y-65640109D01*
X100159500Y-72359886D01*
X100131865Y-72426439D01*
X100131737Y-72572918D01*
X100187674Y-72708296D01*
X100291159Y-72811962D01*
X100426439Y-72868135D01*
X100572918Y-72868263D01*
X100708296Y-72812326D01*
X100811962Y-72708841D01*
X100868135Y-72573561D01*
X100868263Y-72427082D01*
X100840500Y-72359890D01*
X100840500Y-67816922D01*
X100878734Y-67909456D01*
X100982219Y-68013122D01*
X101117499Y-68069295D01*
X101263978Y-68069423D01*
X101399356Y-68013486D01*
X101503022Y-67910001D01*
X101559195Y-67774721D01*
X101559323Y-67628242D01*
X101503386Y-67492864D01*
X101455220Y-67444613D01*
X101455220Y-66962021D01*
X101513182Y-66904161D01*
X101569355Y-66768881D01*
X101569483Y-66622402D01*
X101569483Y-77637640D01*
X100982743Y-77637640D01*
X100982743Y-74420202D01*
X100926806Y-74284824D01*
X100823321Y-74181158D01*
X100688041Y-74124985D01*
X100541562Y-74124857D01*
X100406184Y-74180794D01*
X100302518Y-74284279D01*
X100246345Y-74419559D01*
X100246217Y-74566038D01*
X100302154Y-74701416D01*
X100405639Y-74805082D01*
X100540919Y-74861255D01*
X100687398Y-74861383D01*
X100822776Y-74805446D01*
X100926442Y-74701961D01*
X100982615Y-74566681D01*
X100982743Y-74420202D01*
X100982743Y-77637640D01*
X99283483Y-77637640D01*
X99283483Y-73383882D01*
X99227546Y-73248504D01*
X99124061Y-73144838D01*
X98988781Y-73088665D01*
X98842302Y-73088537D01*
X98706924Y-73144474D01*
X98603258Y-73247959D01*
X98547085Y-73383239D01*
X98546957Y-73529718D01*
X98602894Y-73665096D01*
X98706379Y-73768762D01*
X98841659Y-73824935D01*
X98988138Y-73825063D01*
X99123516Y-73769126D01*
X99227182Y-73665641D01*
X99283355Y-73530361D01*
X99283483Y-73383882D01*
X99283483Y-77637640D01*
X99039643Y-77637640D01*
X99039643Y-74336382D01*
X98983706Y-74201004D01*
X98880221Y-74097338D01*
X98744941Y-74041165D01*
X98598462Y-74041037D01*
X98463084Y-74096974D01*
X98359418Y-74200459D01*
X98303245Y-74335739D01*
X98303117Y-74482218D01*
X98359054Y-74617596D01*
X98462539Y-74721262D01*
X98597819Y-74777435D01*
X98744298Y-74777563D01*
X98879676Y-74721626D01*
X98983342Y-74618141D01*
X99039515Y-74482861D01*
X99039643Y-74336382D01*
X99039643Y-77637640D01*
X97449640Y-77637640D01*
X97352438Y-77656975D01*
X97270035Y-77712035D01*
X96931591Y-78050478D01*
X96931591Y-69332079D01*
X96931591Y-64932799D01*
X96834350Y-64697457D01*
X96654450Y-64517243D01*
X96419278Y-64419591D01*
X96164639Y-64419369D01*
X95929297Y-64516610D01*
X95749083Y-64696510D01*
X95651431Y-64931682D01*
X95651209Y-65186321D01*
X95748450Y-65421663D01*
X95928350Y-65601877D01*
X96163522Y-65699529D01*
X96418161Y-65699751D01*
X96653503Y-65602510D01*
X96833717Y-65422610D01*
X96931369Y-65187438D01*
X96931591Y-64932799D01*
X96931591Y-69332079D01*
X96834350Y-69096737D01*
X96654450Y-68916523D01*
X96419278Y-68818871D01*
X96164639Y-68818649D01*
X95929297Y-68915890D01*
X95749083Y-69095790D01*
X95651431Y-69330962D01*
X95651209Y-69585601D01*
X95748450Y-69820943D01*
X95928350Y-70001157D01*
X96163522Y-70098809D01*
X96418161Y-70099031D01*
X96653503Y-70001790D01*
X96833717Y-69821890D01*
X96931369Y-69586718D01*
X96931591Y-69332079D01*
X96931591Y-78050478D01*
X96610261Y-78371808D01*
X96528362Y-78371737D01*
X96392984Y-78427674D01*
X96289318Y-78531159D01*
X96233145Y-78666439D01*
X96233017Y-78812918D01*
X96288954Y-78948296D01*
X96392439Y-79051962D01*
X96527719Y-79108135D01*
X96674198Y-79108263D01*
X96809576Y-79052326D01*
X96913242Y-78948841D01*
X96969415Y-78813561D01*
X96969487Y-78731002D01*
X97554850Y-78145640D01*
X98857542Y-78145640D01*
X98829025Y-78214319D01*
X98828897Y-78360798D01*
X98884834Y-78496176D01*
X98988319Y-78599842D01*
X99123599Y-78656015D01*
X99206157Y-78656087D01*
X99276635Y-78726565D01*
X99359038Y-78781625D01*
X99359039Y-78781625D01*
X99456240Y-78800960D01*
X108165898Y-78800960D01*
X108223759Y-78858922D01*
X108359039Y-78915095D01*
X108505518Y-78915223D01*
X108640896Y-78859286D01*
X108744562Y-78755801D01*
X108800735Y-78620521D01*
X108800863Y-78474042D01*
X108800863Y-81417094D01*
X108770383Y-81386561D01*
X108770383Y-80394282D01*
X108714446Y-80258904D01*
X108610961Y-80155238D01*
X108475681Y-80099065D01*
X108329202Y-80098937D01*
X108193824Y-80154874D01*
X108090158Y-80258359D01*
X108033985Y-80393639D01*
X108033857Y-80540118D01*
X108089794Y-80675496D01*
X108193279Y-80779162D01*
X108328559Y-80835335D01*
X108475038Y-80835463D01*
X108610416Y-80779526D01*
X108714082Y-80676041D01*
X108770255Y-80540761D01*
X108770383Y-80394282D01*
X108770383Y-81386561D01*
X108758281Y-81374438D01*
X108623001Y-81318265D01*
X108476522Y-81318137D01*
X108341144Y-81374074D01*
X108237478Y-81477559D01*
X108181305Y-81612839D01*
X108181177Y-81759318D01*
X108237114Y-81894696D01*
X108340599Y-81998362D01*
X108475879Y-82054535D01*
X108558437Y-82054607D01*
X108560335Y-82056505D01*
X108642738Y-82111565D01*
X108642739Y-82111566D01*
X108739940Y-82130900D01*
X122872500Y-82130900D01*
X122969701Y-82111565D01*
X122969702Y-82111565D01*
X123052105Y-82056505D01*
X125338105Y-79770505D01*
X125393165Y-79688102D01*
X125393165Y-79688101D01*
X125397260Y-79667515D01*
X125397260Y-80572810D01*
X123135590Y-82834480D01*
X108615495Y-82834480D01*
X108565241Y-82784138D01*
X108429961Y-82727965D01*
X108283482Y-82727837D01*
X108148104Y-82783774D01*
X108044438Y-82887259D01*
X107988265Y-83022539D01*
X107988137Y-83169018D01*
X108044074Y-83304396D01*
X108147559Y-83408062D01*
X108282839Y-83464235D01*
X108429318Y-83464363D01*
X108564696Y-83408426D01*
X108630757Y-83342480D01*
X123240800Y-83342480D01*
X123338001Y-83323145D01*
X123338002Y-83323145D01*
X123420405Y-83268085D01*
X125830865Y-80857625D01*
X125885925Y-80775222D01*
X125885925Y-80775221D01*
X125905260Y-80678020D01*
X125905260Y-72082661D01*
X125963222Y-72024801D01*
X126019395Y-71889521D01*
X126019523Y-71743042D01*
X126019523Y-85759500D01*
X106819663Y-85759500D01*
X106819663Y-82527882D01*
X106763726Y-82392504D01*
X106705400Y-82334075D01*
X106705400Y-81292701D01*
X106763362Y-81234841D01*
X106819535Y-81099561D01*
X106819663Y-80953082D01*
X106763726Y-80817704D01*
X106660241Y-80714038D01*
X106524961Y-80657865D01*
X106378482Y-80657737D01*
X106243104Y-80713674D01*
X106139438Y-80817159D01*
X106083265Y-80952439D01*
X106083137Y-81098918D01*
X106139074Y-81234296D01*
X106197400Y-81292724D01*
X106197400Y-82334098D01*
X106139438Y-82391959D01*
X106083265Y-82527239D01*
X106083137Y-82673718D01*
X106139074Y-82809096D01*
X106242559Y-82912762D01*
X106377839Y-82968935D01*
X106524318Y-82969063D01*
X106659696Y-82913126D01*
X106763362Y-82809641D01*
X106819535Y-82674361D01*
X106819663Y-82527882D01*
X106819663Y-85759500D01*
X106072903Y-85759500D01*
X106072903Y-81057222D01*
X106016966Y-80921844D01*
X105913481Y-80818178D01*
X105778201Y-80762005D01*
X105631722Y-80761877D01*
X105496344Y-80817814D01*
X105412503Y-80901508D01*
X105412503Y-80409522D01*
X105356566Y-80274144D01*
X105253081Y-80170478D01*
X105117801Y-80114305D01*
X104971322Y-80114177D01*
X104835944Y-80170114D01*
X104732278Y-80273599D01*
X104676105Y-80408879D01*
X104675977Y-80555358D01*
X104731914Y-80690736D01*
X104835399Y-80794402D01*
X104970679Y-80850575D01*
X105117158Y-80850703D01*
X105252536Y-80794766D01*
X105356202Y-80691281D01*
X105412375Y-80556001D01*
X105412503Y-80409522D01*
X105412503Y-80901508D01*
X105392678Y-80921299D01*
X105336505Y-81056579D01*
X105336377Y-81203058D01*
X105392314Y-81338436D01*
X105450640Y-81396864D01*
X105450640Y-81826138D01*
X105448842Y-81826137D01*
X105313464Y-81882074D01*
X105209798Y-81985559D01*
X105153625Y-82120839D01*
X105153497Y-82267318D01*
X105209434Y-82402696D01*
X105312919Y-82506362D01*
X105448199Y-82562535D01*
X105594678Y-82562663D01*
X105730056Y-82506726D01*
X105833722Y-82403241D01*
X105889895Y-82267961D01*
X105889969Y-82182557D01*
X105939305Y-82108722D01*
X105939305Y-82108721D01*
X105958640Y-82011520D01*
X105958640Y-81396841D01*
X106016602Y-81338981D01*
X106072775Y-81203701D01*
X106072903Y-81057222D01*
X106072903Y-85759500D01*
X98254783Y-85759500D01*
X98254783Y-79332562D01*
X98198846Y-79197184D01*
X98095361Y-79093518D01*
X97960081Y-79037345D01*
X97813602Y-79037217D01*
X97678224Y-79093154D01*
X97574558Y-79196639D01*
X97518385Y-79331919D01*
X97518257Y-79478398D01*
X97574194Y-79613776D01*
X97677679Y-79717442D01*
X97812959Y-79773615D01*
X97959438Y-79773743D01*
X98094816Y-79717806D01*
X98198482Y-79614321D01*
X98254655Y-79479041D01*
X98254783Y-79332562D01*
X98254783Y-85759500D01*
X94575137Y-85759500D01*
X94575137Y-80594200D01*
X94555232Y-80494131D01*
X94555232Y-78917800D01*
X94555232Y-77190600D01*
X94541139Y-77117963D01*
X94499202Y-77054122D01*
X94435892Y-77011387D01*
X94361000Y-76996368D01*
X92329000Y-76996368D01*
X92256363Y-77010461D01*
X92192522Y-77052398D01*
X92149787Y-77115708D01*
X92134768Y-77190600D01*
X92134768Y-78917800D01*
X92148861Y-78990437D01*
X92190798Y-79054278D01*
X92254108Y-79097013D01*
X92329000Y-79112032D01*
X94361000Y-79112032D01*
X94433637Y-79097939D01*
X94497478Y-79056002D01*
X94540213Y-78992692D01*
X94555232Y-78917800D01*
X94555232Y-80494131D01*
X94494898Y-80190813D01*
X94266398Y-79848839D01*
X93924424Y-79620339D01*
X93521037Y-79540100D01*
X93168963Y-79540100D01*
X92765576Y-79620339D01*
X92423602Y-79848839D01*
X92195102Y-80190813D01*
X92114863Y-80594200D01*
X92195102Y-80997587D01*
X92423602Y-81339561D01*
X92765576Y-81568061D01*
X93168963Y-81648300D01*
X93521037Y-81648300D01*
X93924424Y-81568061D01*
X94266398Y-81339561D01*
X94494898Y-80997587D01*
X94575137Y-80594200D01*
X94575137Y-85759500D01*
X94491578Y-85759500D01*
X94491578Y-83484537D01*
X94491578Y-82783863D01*
X94369794Y-82547463D01*
X94078852Y-82258275D01*
X93699390Y-82102439D01*
X93535500Y-82131169D01*
X93535500Y-82943700D01*
X94485682Y-82943700D01*
X94491578Y-82783863D01*
X94491578Y-83484537D01*
X94485682Y-83324700D01*
X93535500Y-83324700D01*
X93535500Y-84137231D01*
X93699390Y-84165961D01*
X94078852Y-84010125D01*
X94369794Y-83720937D01*
X94491578Y-83484537D01*
X94491578Y-85759500D01*
X93154500Y-85759500D01*
X93154500Y-84137231D01*
X93154500Y-83324700D01*
X93154500Y-82943700D01*
X93154500Y-82131169D01*
X92990610Y-82102439D01*
X92611148Y-82258275D01*
X92320206Y-82547463D01*
X92198422Y-82783863D01*
X92204318Y-82943700D01*
X93154500Y-82943700D01*
X93154500Y-83324700D01*
X92204318Y-83324700D01*
X92198422Y-83484537D01*
X92320206Y-83720937D01*
X92611148Y-84010125D01*
X92990610Y-84165961D01*
X93154500Y-84137231D01*
X93154500Y-85759500D01*
X91240500Y-85759500D01*
X91240500Y-55240500D01*
X133000000Y-55240500D01*
X136759500Y-55240500D01*
X136759500Y-85759500D01*
M02*
