M48
;DRILL file {kicad (after 2015-mar-04 BZR unknown)-product} date Wed 22 Apr 2015 11:16:24 PM EDT
;FORMAT={-:-/ absolute / inch / decimal}
FMAT,2
INCH,TZ
T1C0.010
T2C0.040
T3C0.053
T4C0.057
%
G90
G05
M72
T1
X3.7854Y-3.0336
X3.8032Y-3.1
X3.8157Y-2.7573
X3.819Y-2.6991
X3.8253Y-2.7285
X3.8334Y-2.7681
X3.8358Y-2.7456
X3.8534Y-3.2384
X3.8538Y-3.1262
X3.8646Y-2.7447
X3.8664Y-2.7672
X3.8838Y-2.7681
X3.8847Y-2.9295
X3.8943Y-2.892
X3.9012Y-2.7477
X3.9054Y-3.0822
X3.9219Y-2.769
X3.9249Y-2.7393
X3.9567Y-2.5787
X3.9567Y-2.8543
X3.9612Y-2.9328
X3.9702Y-3.0243
X3.9824Y-3.2382
X3.9839Y-2.6654
X3.9843Y-2.6258
X4.041Y-2.9606
X4.0548Y-2.4117
X4.0578Y-2.3634
X4.0581Y-2.7768
X4.0647Y-2.8512
X4.0678Y-2.627
X4.068Y-2.6274
X4.0686Y-2.3883
X4.0732Y-2.3368
X4.1356Y-3.1686
X4.1544Y-3.236
X4.1603Y-2.9327
X4.1616Y-3.1941
X4.191Y-3.19
X4.191Y-3.252
X4.2072Y-2.8158
X4.2096Y-2.8762
X4.2116Y-2.5119
X4.2417Y-2.4966
X4.2419Y-2.378
X4.2444Y-2.3478
X4.2528Y-3.0666
X4.257Y-2.8215
X4.266Y-3.2715
X4.2678Y-3.168
X4.269Y-3.0924
X4.2736Y-3.216
X4.302Y-2.9435
X4.3704Y-3.1943
X4.3734Y-2.5701
X4.3888Y-2.3912
X4.3943Y-2.9385
X4.3992Y-2.4105
X4.4157Y-2.3949
X4.4235Y-2.8152
X4.4256Y-2.6691
X4.4313Y-2.4111
X4.4451Y-3.1578
X4.4468Y-3.1994
X4.4546Y-2.3256
X4.455Y-2.2982
X4.4572Y-2.8146
X4.4634Y-3.0339
X4.4733Y-2.723
X4.478Y-2.3477
X4.5042Y-2.259
X4.5063Y-2.6919
X4.528Y-2.9378
X4.53Y-2.6571
X4.5558Y-2.7333
X4.5561Y-3.0477
X4.5663Y-2.8008
X4.5701Y-2.8457
X4.5764Y-2.7016
X4.6174Y-2.907
X4.6346Y-2.9652
X4.6494Y-2.669
X4.6605Y-3.1788
X4.6926Y-3.1059
X4.6932Y-2.2578
X4.6992Y-2.8449
X4.7014Y-2.3814
X4.7558Y-3.2038
X4.7781Y-2.9691
X4.8144Y-2.8482
X4.8171Y-2.7966
X4.8222Y-2.5956
X4.8249Y-2.7171
X4.839Y-2.9697
X4.8716Y-3.0486
X4.9002Y-2.6916
X4.9275Y-2.928
X4.9469Y-2.8274
X4.9527Y-2.744
X4.983Y-2.6418
X5.0716Y-2.8024
X5.0739Y-2.6358
X5.086Y-2.978
X5.0985Y-2.8893
X5.0997Y-2.7093
X5.1003Y-2.8517
X5.1386Y-2.6366
X5.1798Y-2.8188
X5.1996Y-2.8677
X5.2572Y-2.5992
X5.2983Y-2.9264
X5.3128Y-2.604
X5.3184Y-2.8172
T2
X3.675Y-3.073
X3.675Y-3.173
X3.675Y-3.273
T3
X5.089Y-2.3555
T4
X4.989Y-2.2555
X4.989Y-2.4555
X5.189Y-2.2555
X5.189Y-2.4555
T0
M30
