G04 #@! TF.FileFunction,Copper,L2,Inr,Plane*
%FSLAX46Y46*%
G04 Gerber Fmt 4.6, Leading zero omitted, Abs format (unit mm)*
G04 Created by KiCad (PCBNEW (after 2015-mar-04 BZR unknown)-product) date Wed 22 Apr 2015 11:16:48 PM EDT*
%MOMM*%
G01*
G04 APERTURE LIST*
%ADD10C,0.100000*%
%ADD11R,2.032000X1.727200*%
%ADD12O,2.032000X1.727200*%
%ADD13C,2.300000*%
%ADD14C,2.500000*%
%ADD15C,0.355400*%
%ADD16C,0.300000*%
%ADD17C,0.127000*%
G04 APERTURE END LIST*
D10*
D11*
X93345000Y-78054200D03*
D12*
X93345000Y-80594200D03*
X93345000Y-83134200D03*
D13*
X129260600Y-59829700D03*
D14*
X131800600Y-57289700D03*
X126720600Y-57289700D03*
X126720600Y-62369700D03*
X131800600Y-62369700D03*
D15*
X115062000Y-67490340D03*
X115717320Y-69425820D03*
X133532880Y-66019680D03*
X122483880Y-65928240D03*
X100500000Y-65500000D03*
X100500000Y-72500000D03*
X119207280Y-57348120D03*
X100843080Y-76817220D03*
X118376700Y-80741520D03*
X116240560Y-68620640D03*
X118094760Y-67792600D03*
X111084360Y-65280540D03*
X113621820Y-69164200D03*
X113212880Y-71490840D03*
X114460020Y-68374260D03*
X111615220Y-74637900D03*
X115011200Y-74620120D03*
X116080540Y-72280780D03*
X119359680Y-72260460D03*
X117281960Y-73837800D03*
X117718840Y-75316080D03*
X123738640Y-77434440D03*
X102991920Y-61257180D03*
X103342440Y-60662820D03*
X103068120Y-60030360D03*
X103459280Y-59354720D03*
X114406680Y-57378600D03*
X113157000Y-58374280D03*
X113741200Y-59631580D03*
X113146840Y-59070240D03*
X119415560Y-60487560D03*
X130520440Y-66969640D03*
X134945120Y-66141600D03*
X128877060Y-66949320D03*
X126568200Y-67101720D03*
X122285760Y-72344280D03*
X125798580Y-69697600D03*
X128818640Y-71180960D03*
X131566920Y-71597520D03*
X135087360Y-71556880D03*
X129184400Y-75641200D03*
X129501900Y-73388220D03*
X112948720Y-81264760D03*
X111008160Y-81135220D03*
X101152960Y-82250280D03*
X97876360Y-82255360D03*
X96149160Y-77053440D03*
X102641400Y-75199240D03*
X106923840Y-73055480D03*
X106862880Y-71521320D03*
X103075740Y-70530720D03*
X103243380Y-72420480D03*
X103322120Y-66725800D03*
X103327200Y-66735960D03*
X96918780Y-70035420D03*
X97368360Y-70309740D03*
X98206560Y-70286880D03*
X98648520Y-70309740D03*
X99616260Y-70332600D03*
X99692460Y-69578220D03*
X97162620Y-69303900D03*
X97429320Y-69738240D03*
X98160840Y-69715380D03*
X97002600Y-68557140D03*
X99090480Y-69791580D03*
X108402120Y-80467200D03*
X109270800Y-74764900D03*
X115724940Y-77411580D03*
X120797320Y-81376520D03*
X119192040Y-78889860D03*
X122354340Y-71033640D03*
X115984020Y-71140320D03*
X112410240Y-67795140D03*
X112356900Y-71506080D03*
X113370360Y-77061060D03*
X112905540Y-80208120D03*
X97886520Y-79405480D03*
X105044240Y-80482440D03*
X100614480Y-74493120D03*
X98671380Y-74409300D03*
X98915220Y-73456800D03*
X112555020Y-61241940D03*
X112158780Y-60830460D03*
X111739680Y-61226700D03*
X111475520Y-60736480D03*
X107744260Y-60401200D03*
X107807760Y-59634120D03*
X101201220Y-66695320D03*
X101191060Y-67701160D03*
X108432600Y-78546960D03*
X99197160Y-78287880D03*
X108021120Y-77891640D03*
X96601280Y-78740000D03*
X106974640Y-63802260D03*
X105671620Y-74490580D03*
X105704640Y-81130140D03*
X105521760Y-82194400D03*
X107739180Y-63413640D03*
X108127800Y-71666100D03*
X106451400Y-81026000D03*
X106451400Y-82600800D03*
X129547620Y-72433180D03*
X129532380Y-68816220D03*
X124465080Y-68366640D03*
X122552460Y-69014340D03*
X134576820Y-74330560D03*
X132069840Y-72839580D03*
X121363740Y-75415140D03*
X122910600Y-75430380D03*
X125158500Y-74371200D03*
X108549440Y-81686400D03*
X125651260Y-71815960D03*
X108356400Y-83096100D03*
D16*
X108424980Y-80490060D02*
X108424980Y-80502760D01*
X108402120Y-80467200D02*
X108424980Y-80490060D01*
X120797320Y-81376520D02*
X120812560Y-81376520D01*
X112913160Y-80215740D02*
X112920780Y-80215740D01*
X112905540Y-80208120D02*
X112913160Y-80215740D01*
X97876360Y-79415640D02*
X97853500Y-79415640D01*
X97886520Y-79405480D02*
X97876360Y-79415640D01*
X112135920Y-60830460D02*
X112158780Y-60830460D01*
X111739680Y-61226700D02*
X112135920Y-60830460D01*
X111511080Y-60772040D02*
X111511080Y-60784740D01*
X111475520Y-60736480D02*
X111511080Y-60772040D01*
D17*
G36*
X136759500Y-85759500D02*
X135455623Y-85759500D01*
X135455623Y-71483962D01*
X135399686Y-71348584D01*
X135313383Y-71262130D01*
X135313383Y-66068682D01*
X135257446Y-65933304D01*
X135153961Y-65829638D01*
X135018681Y-65773465D01*
X134872202Y-65773337D01*
X134736824Y-65829274D01*
X134633158Y-65932759D01*
X134576985Y-66068039D01*
X134576857Y-66214518D01*
X134632794Y-66349896D01*
X134736279Y-66453562D01*
X134871559Y-66509735D01*
X135018038Y-66509863D01*
X135153416Y-66453926D01*
X135257082Y-66350441D01*
X135313255Y-66215161D01*
X135313383Y-66068682D01*
X135313383Y-71262130D01*
X135296201Y-71244918D01*
X135160921Y-71188745D01*
X135014442Y-71188617D01*
X134879064Y-71244554D01*
X134775398Y-71348039D01*
X134719225Y-71483319D01*
X134719097Y-71629798D01*
X134775034Y-71765176D01*
X134878519Y-71868842D01*
X135013799Y-71925015D01*
X135160278Y-71925143D01*
X135295656Y-71869206D01*
X135399322Y-71765721D01*
X135455495Y-71630441D01*
X135455623Y-71483962D01*
X135455623Y-85759500D01*
X134945083Y-85759500D01*
X134945083Y-74257642D01*
X134889146Y-74122264D01*
X134785661Y-74018598D01*
X134650381Y-73962425D01*
X134503902Y-73962297D01*
X134368524Y-74018234D01*
X134264858Y-74121719D01*
X134208685Y-74256999D01*
X134208557Y-74403478D01*
X134264494Y-74538856D01*
X134367979Y-74642522D01*
X134503259Y-74698695D01*
X134649738Y-74698823D01*
X134785116Y-74642886D01*
X134888782Y-74539401D01*
X134944955Y-74404121D01*
X134945083Y-74257642D01*
X134945083Y-85759500D01*
X133901143Y-85759500D01*
X133901143Y-65946762D01*
X133845206Y-65811384D01*
X133741721Y-65707718D01*
X133606441Y-65651545D01*
X133459962Y-65651417D01*
X133324584Y-65707354D01*
X133241349Y-65790443D01*
X133241349Y-62084424D01*
X133241349Y-57004424D01*
X133022508Y-56474788D01*
X132617643Y-56069216D01*
X132088390Y-55849451D01*
X131515324Y-55848951D01*
X130985688Y-56067792D01*
X130580116Y-56472657D01*
X130360351Y-57001910D01*
X130359851Y-57574976D01*
X130578692Y-58104612D01*
X130983557Y-58510184D01*
X131512810Y-58729949D01*
X132085876Y-58730449D01*
X132615512Y-58511608D01*
X133021084Y-58106743D01*
X133240849Y-57577490D01*
X133241349Y-57004424D01*
X133241349Y-62084424D01*
X133022508Y-61554788D01*
X132617643Y-61149216D01*
X132088390Y-60929451D01*
X131515324Y-60928951D01*
X130985688Y-61147792D01*
X130601332Y-61531477D01*
X130601332Y-59564228D01*
X130397683Y-59071360D01*
X130020924Y-58693942D01*
X129528412Y-58489433D01*
X128995128Y-58488968D01*
X128502260Y-58692617D01*
X128161349Y-59032932D01*
X128161349Y-57004424D01*
X127942508Y-56474788D01*
X127537643Y-56069216D01*
X127008390Y-55849451D01*
X126435324Y-55848951D01*
X125905688Y-56067792D01*
X125500116Y-56472657D01*
X125280351Y-57001910D01*
X125279851Y-57574976D01*
X125498692Y-58104612D01*
X125903557Y-58510184D01*
X126432810Y-58729949D01*
X127005876Y-58730449D01*
X127535512Y-58511608D01*
X127941084Y-58106743D01*
X128160849Y-57577490D01*
X128161349Y-57004424D01*
X128161349Y-59032932D01*
X128124842Y-59069376D01*
X127920333Y-59561888D01*
X127919868Y-60095172D01*
X128123517Y-60588040D01*
X128500276Y-60965458D01*
X128992788Y-61169967D01*
X129526072Y-61170432D01*
X130018940Y-60966783D01*
X130396358Y-60590024D01*
X130600867Y-60097512D01*
X130601332Y-59564228D01*
X130601332Y-61531477D01*
X130580116Y-61552657D01*
X130360351Y-62081910D01*
X130359851Y-62654976D01*
X130578692Y-63184612D01*
X130983557Y-63590184D01*
X131512810Y-63809949D01*
X132085876Y-63810449D01*
X132615512Y-63591608D01*
X133021084Y-63186743D01*
X133240849Y-62657490D01*
X133241349Y-62084424D01*
X133241349Y-65790443D01*
X133220918Y-65810839D01*
X133164745Y-65946119D01*
X133164617Y-66092598D01*
X133220554Y-66227976D01*
X133324039Y-66331642D01*
X133459319Y-66387815D01*
X133605798Y-66387943D01*
X133741176Y-66332006D01*
X133844842Y-66228521D01*
X133901015Y-66093241D01*
X133901143Y-65946762D01*
X133901143Y-85759500D01*
X132438103Y-85759500D01*
X132438103Y-72766662D01*
X132382166Y-72631284D01*
X132278681Y-72527618D01*
X132143401Y-72471445D01*
X131996922Y-72471317D01*
X131935183Y-72496827D01*
X131935183Y-71524602D01*
X131879246Y-71389224D01*
X131775761Y-71285558D01*
X131640481Y-71229385D01*
X131494002Y-71229257D01*
X131358624Y-71285194D01*
X131254958Y-71388679D01*
X131198785Y-71523959D01*
X131198657Y-71670438D01*
X131254594Y-71805816D01*
X131358079Y-71909482D01*
X131493359Y-71965655D01*
X131639838Y-71965783D01*
X131775216Y-71909846D01*
X131878882Y-71806361D01*
X131935055Y-71671081D01*
X131935183Y-71524602D01*
X131935183Y-72496827D01*
X131861544Y-72527254D01*
X131757878Y-72630739D01*
X131701705Y-72766019D01*
X131701577Y-72912498D01*
X131757514Y-73047876D01*
X131860999Y-73151542D01*
X131996279Y-73207715D01*
X132142758Y-73207843D01*
X132278136Y-73151906D01*
X132381802Y-73048421D01*
X132437975Y-72913141D01*
X132438103Y-72766662D01*
X132438103Y-85759500D01*
X130888703Y-85759500D01*
X130888703Y-66896722D01*
X130832766Y-66761344D01*
X130729281Y-66657678D01*
X130594001Y-66601505D01*
X130447522Y-66601377D01*
X130312144Y-66657314D01*
X130208478Y-66760799D01*
X130152305Y-66896079D01*
X130152177Y-67042558D01*
X130208114Y-67177936D01*
X130311599Y-67281602D01*
X130446879Y-67337775D01*
X130593358Y-67337903D01*
X130728736Y-67281966D01*
X130832402Y-67178481D01*
X130888575Y-67043201D01*
X130888703Y-66896722D01*
X130888703Y-85759500D01*
X129915883Y-85759500D01*
X129915883Y-72360262D01*
X129900643Y-72323378D01*
X129900643Y-68743302D01*
X129844706Y-68607924D01*
X129741221Y-68504258D01*
X129605941Y-68448085D01*
X129459462Y-68447957D01*
X129324084Y-68503894D01*
X129245323Y-68582517D01*
X129245323Y-66876402D01*
X129189386Y-66741024D01*
X129085901Y-66637358D01*
X128950621Y-66581185D01*
X128804142Y-66581057D01*
X128668764Y-66636994D01*
X128565098Y-66740479D01*
X128508925Y-66875759D01*
X128508797Y-67022238D01*
X128564734Y-67157616D01*
X128668219Y-67261282D01*
X128803499Y-67317455D01*
X128949978Y-67317583D01*
X129085356Y-67261646D01*
X129189022Y-67158161D01*
X129245195Y-67022881D01*
X129245323Y-66876402D01*
X129245323Y-68582517D01*
X129220418Y-68607379D01*
X129164245Y-68742659D01*
X129164117Y-68889138D01*
X129220054Y-69024516D01*
X129323539Y-69128182D01*
X129458819Y-69184355D01*
X129605298Y-69184483D01*
X129740676Y-69128546D01*
X129844342Y-69025061D01*
X129900515Y-68889781D01*
X129900643Y-68743302D01*
X129900643Y-72323378D01*
X129859946Y-72224884D01*
X129756461Y-72121218D01*
X129621181Y-72065045D01*
X129474702Y-72064917D01*
X129339324Y-72120854D01*
X129235658Y-72224339D01*
X129186903Y-72341754D01*
X129186903Y-71108042D01*
X129130966Y-70972664D01*
X129027481Y-70868998D01*
X128892201Y-70812825D01*
X128745722Y-70812697D01*
X128610344Y-70868634D01*
X128506678Y-70972119D01*
X128450505Y-71107399D01*
X128450377Y-71253878D01*
X128506314Y-71389256D01*
X128609799Y-71492922D01*
X128745079Y-71549095D01*
X128891558Y-71549223D01*
X129026936Y-71493286D01*
X129130602Y-71389801D01*
X129186775Y-71254521D01*
X129186903Y-71108042D01*
X129186903Y-72341754D01*
X129179485Y-72359619D01*
X129179357Y-72506098D01*
X129235294Y-72641476D01*
X129338779Y-72745142D01*
X129474059Y-72801315D01*
X129620538Y-72801443D01*
X129755916Y-72745506D01*
X129859582Y-72642021D01*
X129915755Y-72506741D01*
X129915883Y-72360262D01*
X129915883Y-85759500D01*
X129870163Y-85759500D01*
X129870163Y-73315302D01*
X129814226Y-73179924D01*
X129710741Y-73076258D01*
X129575461Y-73020085D01*
X129428982Y-73019957D01*
X129293604Y-73075894D01*
X129189938Y-73179379D01*
X129133765Y-73314659D01*
X129133637Y-73461138D01*
X129189574Y-73596516D01*
X129293059Y-73700182D01*
X129428339Y-73756355D01*
X129574818Y-73756483D01*
X129710196Y-73700546D01*
X129813862Y-73597061D01*
X129870035Y-73461781D01*
X129870163Y-73315302D01*
X129870163Y-85759500D01*
X129552663Y-85759500D01*
X129552663Y-75568282D01*
X129496726Y-75432904D01*
X129393241Y-75329238D01*
X129257961Y-75273065D01*
X129111482Y-75272937D01*
X128976104Y-75328874D01*
X128872438Y-75432359D01*
X128816265Y-75567639D01*
X128816137Y-75714118D01*
X128872074Y-75849496D01*
X128975559Y-75953162D01*
X129110839Y-76009335D01*
X129257318Y-76009463D01*
X129392696Y-75953526D01*
X129496362Y-75850041D01*
X129552535Y-75714761D01*
X129552663Y-75568282D01*
X129552663Y-85759500D01*
X128161349Y-85759500D01*
X128161349Y-62084424D01*
X127942508Y-61554788D01*
X127537643Y-61149216D01*
X127008390Y-60929451D01*
X126435324Y-60928951D01*
X125905688Y-61147792D01*
X125500116Y-61552657D01*
X125280351Y-62081910D01*
X125279851Y-62654976D01*
X125498692Y-63184612D01*
X125903557Y-63590184D01*
X126432810Y-63809949D01*
X127005876Y-63810449D01*
X127535512Y-63591608D01*
X127941084Y-63186743D01*
X128160849Y-62657490D01*
X128161349Y-62084424D01*
X128161349Y-85759500D01*
X126936463Y-85759500D01*
X126936463Y-67028802D01*
X126880526Y-66893424D01*
X126777041Y-66789758D01*
X126641761Y-66733585D01*
X126495282Y-66733457D01*
X126359904Y-66789394D01*
X126256238Y-66892879D01*
X126200065Y-67028159D01*
X126199937Y-67174638D01*
X126255874Y-67310016D01*
X126359359Y-67413682D01*
X126494639Y-67469855D01*
X126641118Y-67469983D01*
X126776496Y-67414046D01*
X126880162Y-67310561D01*
X126936335Y-67175281D01*
X126936463Y-67028802D01*
X126936463Y-85759500D01*
X126166843Y-85759500D01*
X126166843Y-69624682D01*
X126110906Y-69489304D01*
X126007421Y-69385638D01*
X125872141Y-69329465D01*
X125725662Y-69329337D01*
X125590284Y-69385274D01*
X125486618Y-69488759D01*
X125430445Y-69624039D01*
X125430317Y-69770518D01*
X125486254Y-69905896D01*
X125589739Y-70009562D01*
X125725019Y-70065735D01*
X125871498Y-70065863D01*
X126006876Y-70009926D01*
X126110542Y-69906441D01*
X126166715Y-69771161D01*
X126166843Y-69624682D01*
X126166843Y-85759500D01*
X126019523Y-85759500D01*
X126019523Y-71743042D01*
X125963586Y-71607664D01*
X125860101Y-71503998D01*
X125724821Y-71447825D01*
X125578342Y-71447697D01*
X125442964Y-71503634D01*
X125339298Y-71607119D01*
X125283125Y-71742399D01*
X125282997Y-71888878D01*
X125338934Y-72024256D01*
X125442419Y-72127922D01*
X125577699Y-72184095D01*
X125724178Y-72184223D01*
X125859556Y-72128286D01*
X125963222Y-72024801D01*
X126019395Y-71889521D01*
X126019523Y-71743042D01*
X126019523Y-85759500D01*
X125526763Y-85759500D01*
X125526763Y-74298282D01*
X125470826Y-74162904D01*
X125367341Y-74059238D01*
X125232061Y-74003065D01*
X125085582Y-74002937D01*
X124950204Y-74058874D01*
X124846538Y-74162359D01*
X124833343Y-74194136D01*
X124833343Y-68293722D01*
X124777406Y-68158344D01*
X124673921Y-68054678D01*
X124538641Y-67998505D01*
X124392162Y-67998377D01*
X124256784Y-68054314D01*
X124153118Y-68157799D01*
X124096945Y-68293079D01*
X124096817Y-68439558D01*
X124152754Y-68574936D01*
X124256239Y-68678602D01*
X124391519Y-68734775D01*
X124537998Y-68734903D01*
X124673376Y-68678966D01*
X124777042Y-68575481D01*
X124833215Y-68440201D01*
X124833343Y-68293722D01*
X124833343Y-74194136D01*
X124790365Y-74297639D01*
X124790237Y-74444118D01*
X124846174Y-74579496D01*
X124949659Y-74683162D01*
X125084939Y-74739335D01*
X125231418Y-74739463D01*
X125366796Y-74683526D01*
X125470462Y-74580041D01*
X125526635Y-74444761D01*
X125526763Y-74298282D01*
X125526763Y-85759500D01*
X124106903Y-85759500D01*
X124106903Y-77361522D01*
X124050966Y-77226144D01*
X123947481Y-77122478D01*
X123812201Y-77066305D01*
X123665722Y-77066177D01*
X123530344Y-77122114D01*
X123426678Y-77225599D01*
X123370505Y-77360879D01*
X123370377Y-77507358D01*
X123426314Y-77642736D01*
X123529799Y-77746402D01*
X123665079Y-77802575D01*
X123811558Y-77802703D01*
X123946936Y-77746766D01*
X124050602Y-77643281D01*
X124106775Y-77508001D01*
X124106903Y-77361522D01*
X124106903Y-85759500D01*
X123278863Y-85759500D01*
X123278863Y-75357462D01*
X123222926Y-75222084D01*
X123119441Y-75118418D01*
X122984161Y-75062245D01*
X122920723Y-75062189D01*
X122920723Y-68941422D01*
X122864786Y-68806044D01*
X122852143Y-68793378D01*
X122852143Y-65855322D01*
X122796206Y-65719944D01*
X122692721Y-65616278D01*
X122557441Y-65560105D01*
X122410962Y-65559977D01*
X122275584Y-65615914D01*
X122171918Y-65719399D01*
X122115745Y-65854679D01*
X122115617Y-66001158D01*
X122171554Y-66136536D01*
X122275039Y-66240202D01*
X122410319Y-66296375D01*
X122556798Y-66296503D01*
X122692176Y-66240566D01*
X122795842Y-66137081D01*
X122852015Y-66001801D01*
X122852143Y-65855322D01*
X122852143Y-68793378D01*
X122761301Y-68702378D01*
X122626021Y-68646205D01*
X122479542Y-68646077D01*
X122344164Y-68702014D01*
X122240498Y-68805499D01*
X122184325Y-68940779D01*
X122184197Y-69087258D01*
X122240134Y-69222636D01*
X122343619Y-69326302D01*
X122478899Y-69382475D01*
X122625378Y-69382603D01*
X122760756Y-69326666D01*
X122864422Y-69223181D01*
X122920595Y-69087901D01*
X122920723Y-68941422D01*
X122920723Y-75062189D01*
X122837682Y-75062117D01*
X122702304Y-75118054D01*
X122654023Y-75166250D01*
X122654023Y-72271362D01*
X122598086Y-72135984D01*
X122494601Y-72032318D01*
X122359321Y-71976145D01*
X122212842Y-71976017D01*
X122077464Y-72031954D01*
X121973798Y-72135439D01*
X121917625Y-72270719D01*
X121917497Y-72417198D01*
X121973434Y-72552576D01*
X122076919Y-72656242D01*
X122212199Y-72712415D01*
X122358678Y-72712543D01*
X122494056Y-72656606D01*
X122597722Y-72553121D01*
X122653895Y-72417841D01*
X122654023Y-72271362D01*
X122654023Y-75166250D01*
X122598638Y-75221539D01*
X122542465Y-75356819D01*
X122542337Y-75503298D01*
X122598274Y-75638676D01*
X122701759Y-75742342D01*
X122837039Y-75798515D01*
X122983518Y-75798643D01*
X123118896Y-75742706D01*
X123222562Y-75639221D01*
X123278735Y-75503941D01*
X123278863Y-75357462D01*
X123278863Y-85759500D01*
X121732003Y-85759500D01*
X121732003Y-75342222D01*
X121676066Y-75206844D01*
X121572581Y-75103178D01*
X121437301Y-75047005D01*
X121290822Y-75046877D01*
X121155444Y-75102814D01*
X121051778Y-75206299D01*
X120995605Y-75341579D01*
X120995477Y-75488058D01*
X121051414Y-75623436D01*
X121154899Y-75727102D01*
X121290179Y-75783275D01*
X121436658Y-75783403D01*
X121572036Y-75727466D01*
X121675702Y-75623981D01*
X121731875Y-75488701D01*
X121732003Y-75342222D01*
X121732003Y-85759500D01*
X119783823Y-85759500D01*
X119783823Y-60414642D01*
X119727886Y-60279264D01*
X119624401Y-60175598D01*
X119575543Y-60155310D01*
X119575543Y-57275202D01*
X119519606Y-57139824D01*
X119416121Y-57036158D01*
X119280841Y-56979985D01*
X119134362Y-56979857D01*
X118998984Y-57035794D01*
X118895318Y-57139279D01*
X118839145Y-57274559D01*
X118839017Y-57421038D01*
X118894954Y-57556416D01*
X118998439Y-57660082D01*
X119133719Y-57716255D01*
X119280198Y-57716383D01*
X119415576Y-57660446D01*
X119519242Y-57556961D01*
X119575415Y-57421681D01*
X119575543Y-57275202D01*
X119575543Y-60155310D01*
X119489121Y-60119425D01*
X119342642Y-60119297D01*
X119207264Y-60175234D01*
X119103598Y-60278719D01*
X119047425Y-60413999D01*
X119047297Y-60560478D01*
X119103234Y-60695856D01*
X119206719Y-60799522D01*
X119341999Y-60855695D01*
X119488478Y-60855823D01*
X119623856Y-60799886D01*
X119727522Y-60696401D01*
X119783695Y-60561121D01*
X119783823Y-60414642D01*
X119783823Y-85759500D01*
X119727943Y-85759500D01*
X119727943Y-72187542D01*
X119672006Y-72052164D01*
X119568521Y-71948498D01*
X119433241Y-71892325D01*
X119286762Y-71892197D01*
X119151384Y-71948134D01*
X119047718Y-72051619D01*
X118991545Y-72186899D01*
X118991417Y-72333378D01*
X119047354Y-72468756D01*
X119150839Y-72572422D01*
X119286119Y-72628595D01*
X119432598Y-72628723D01*
X119567976Y-72572786D01*
X119671642Y-72469301D01*
X119727815Y-72334021D01*
X119727943Y-72187542D01*
X119727943Y-85759500D01*
X118744963Y-85759500D01*
X118744963Y-80668602D01*
X118689026Y-80533224D01*
X118585541Y-80429558D01*
X118463023Y-80378684D01*
X118463023Y-67719682D01*
X118407086Y-67584304D01*
X118303601Y-67480638D01*
X118168321Y-67424465D01*
X118021842Y-67424337D01*
X117886464Y-67480274D01*
X117782798Y-67583759D01*
X117726625Y-67719039D01*
X117726497Y-67865518D01*
X117782434Y-68000896D01*
X117885919Y-68104562D01*
X118021199Y-68160735D01*
X118167678Y-68160863D01*
X118303056Y-68104926D01*
X118406722Y-68001441D01*
X118462895Y-67866161D01*
X118463023Y-67719682D01*
X118463023Y-80378684D01*
X118450261Y-80373385D01*
X118303782Y-80373257D01*
X118168404Y-80429194D01*
X118087103Y-80510353D01*
X118087103Y-75243162D01*
X118031166Y-75107784D01*
X117927681Y-75004118D01*
X117792401Y-74947945D01*
X117650223Y-74947820D01*
X117650223Y-73764882D01*
X117594286Y-73629504D01*
X117490801Y-73525838D01*
X117355521Y-73469665D01*
X117209042Y-73469537D01*
X117073664Y-73525474D01*
X116969998Y-73628959D01*
X116913825Y-73764239D01*
X116913697Y-73910718D01*
X116969634Y-74046096D01*
X117073119Y-74149762D01*
X117208399Y-74205935D01*
X117354878Y-74206063D01*
X117490256Y-74150126D01*
X117593922Y-74046641D01*
X117650095Y-73911361D01*
X117650223Y-73764882D01*
X117650223Y-74947820D01*
X117645922Y-74947817D01*
X117510544Y-75003754D01*
X117406878Y-75107239D01*
X117350705Y-75242519D01*
X117350577Y-75388998D01*
X117406514Y-75524376D01*
X117509999Y-75628042D01*
X117645279Y-75684215D01*
X117791758Y-75684343D01*
X117927136Y-75628406D01*
X118030802Y-75524921D01*
X118086975Y-75389641D01*
X118087103Y-75243162D01*
X118087103Y-80510353D01*
X118064738Y-80532679D01*
X118008565Y-80667959D01*
X118008437Y-80814438D01*
X118064374Y-80949816D01*
X118167859Y-81053482D01*
X118303139Y-81109655D01*
X118449618Y-81109783D01*
X118584996Y-81053846D01*
X118688662Y-80950361D01*
X118744835Y-80815081D01*
X118744963Y-80668602D01*
X118744963Y-85759500D01*
X116608823Y-85759500D01*
X116608823Y-68547722D01*
X116552886Y-68412344D01*
X116449401Y-68308678D01*
X116314121Y-68252505D01*
X116167642Y-68252377D01*
X116032264Y-68308314D01*
X115928598Y-68411799D01*
X115872425Y-68547079D01*
X115872297Y-68693558D01*
X115928234Y-68828936D01*
X116031719Y-68932602D01*
X116166999Y-68988775D01*
X116313478Y-68988903D01*
X116448856Y-68932966D01*
X116552522Y-68829481D01*
X116608695Y-68694201D01*
X116608823Y-68547722D01*
X116608823Y-85759500D01*
X116448803Y-85759500D01*
X116448803Y-72207862D01*
X116392866Y-72072484D01*
X116289381Y-71968818D01*
X116154101Y-71912645D01*
X116085583Y-71912585D01*
X116085583Y-69352902D01*
X116029646Y-69217524D01*
X115926161Y-69113858D01*
X115790881Y-69057685D01*
X115644402Y-69057557D01*
X115509024Y-69113494D01*
X115430263Y-69192117D01*
X115430263Y-67417422D01*
X115374326Y-67282044D01*
X115270841Y-67178378D01*
X115135561Y-67122205D01*
X114989082Y-67122077D01*
X114853704Y-67178014D01*
X114774943Y-67256637D01*
X114774943Y-57305682D01*
X114719006Y-57170304D01*
X114615521Y-57066638D01*
X114480241Y-57010465D01*
X114333762Y-57010337D01*
X114198384Y-57066274D01*
X114094718Y-57169759D01*
X114038545Y-57305039D01*
X114038417Y-57451518D01*
X114094354Y-57586896D01*
X114197839Y-57690562D01*
X114333119Y-57746735D01*
X114479598Y-57746863D01*
X114614976Y-57690926D01*
X114718642Y-57587441D01*
X114774815Y-57452161D01*
X114774943Y-57305682D01*
X114774943Y-67256637D01*
X114750038Y-67281499D01*
X114693865Y-67416779D01*
X114693737Y-67563258D01*
X114749674Y-67698636D01*
X114853159Y-67802302D01*
X114988439Y-67858475D01*
X115134918Y-67858603D01*
X115270296Y-67802666D01*
X115373962Y-67699181D01*
X115430135Y-67563901D01*
X115430263Y-67417422D01*
X115430263Y-69192117D01*
X115405358Y-69216979D01*
X115349185Y-69352259D01*
X115349057Y-69498738D01*
X115404994Y-69634116D01*
X115508479Y-69737782D01*
X115643759Y-69793955D01*
X115790238Y-69794083D01*
X115925616Y-69738146D01*
X116029282Y-69634661D01*
X116085455Y-69499381D01*
X116085583Y-69352902D01*
X116085583Y-71912585D01*
X116007622Y-71912517D01*
X115872244Y-71968454D01*
X115768578Y-72071939D01*
X115712405Y-72207219D01*
X115712277Y-72353698D01*
X115768214Y-72489076D01*
X115871699Y-72592742D01*
X116006979Y-72648915D01*
X116153458Y-72649043D01*
X116288836Y-72593106D01*
X116392502Y-72489621D01*
X116448675Y-72354341D01*
X116448803Y-72207862D01*
X116448803Y-85759500D01*
X115379463Y-85759500D01*
X115379463Y-74547202D01*
X115323526Y-74411824D01*
X115220041Y-74308158D01*
X115084761Y-74251985D01*
X114938282Y-74251857D01*
X114828283Y-74297307D01*
X114828283Y-68301342D01*
X114772346Y-68165964D01*
X114668861Y-68062298D01*
X114533581Y-68006125D01*
X114387102Y-68005997D01*
X114251724Y-68061934D01*
X114148058Y-68165419D01*
X114109463Y-68258366D01*
X114109463Y-59558662D01*
X114053526Y-59423284D01*
X113950041Y-59319618D01*
X113814761Y-59263445D01*
X113668282Y-59263317D01*
X113532904Y-59319254D01*
X113525263Y-59326881D01*
X113525263Y-58301362D01*
X113469326Y-58165984D01*
X113365841Y-58062318D01*
X113230561Y-58006145D01*
X113084082Y-58006017D01*
X112948704Y-58061954D01*
X112845038Y-58165439D01*
X112788865Y-58300719D01*
X112788737Y-58447198D01*
X112844674Y-58582576D01*
X112948159Y-58686242D01*
X113029879Y-58720175D01*
X112938544Y-58757914D01*
X112834878Y-58861399D01*
X112778705Y-58996679D01*
X112778577Y-59143158D01*
X112834514Y-59278536D01*
X112937999Y-59382202D01*
X113073279Y-59438375D01*
X113219758Y-59438503D01*
X113355136Y-59382566D01*
X113458802Y-59279081D01*
X113514975Y-59143801D01*
X113515103Y-58997322D01*
X113459166Y-58861944D01*
X113355681Y-58758278D01*
X113273960Y-58724344D01*
X113365296Y-58686606D01*
X113468962Y-58583121D01*
X113525135Y-58447841D01*
X113525263Y-58301362D01*
X113525263Y-59326881D01*
X113429238Y-59422739D01*
X113373065Y-59558019D01*
X113372937Y-59704498D01*
X113428874Y-59839876D01*
X113532359Y-59943542D01*
X113667639Y-59999715D01*
X113814118Y-59999843D01*
X113949496Y-59943906D01*
X114053162Y-59840421D01*
X114109335Y-59705141D01*
X114109463Y-59558662D01*
X114109463Y-68258366D01*
X114091885Y-68300699D01*
X114091757Y-68447178D01*
X114147694Y-68582556D01*
X114251179Y-68686222D01*
X114386459Y-68742395D01*
X114532938Y-68742523D01*
X114668316Y-68686586D01*
X114771982Y-68583101D01*
X114828155Y-68447821D01*
X114828283Y-68301342D01*
X114828283Y-74297307D01*
X114802904Y-74307794D01*
X114699238Y-74411279D01*
X114643065Y-74546559D01*
X114642937Y-74693038D01*
X114698874Y-74828416D01*
X114802359Y-74932082D01*
X114937639Y-74988255D01*
X115084118Y-74988383D01*
X115219496Y-74932446D01*
X115323162Y-74828961D01*
X115379335Y-74693681D01*
X115379463Y-74547202D01*
X115379463Y-85759500D01*
X113990083Y-85759500D01*
X113990083Y-69091282D01*
X113934146Y-68955904D01*
X113830661Y-68852238D01*
X113695381Y-68796065D01*
X113548902Y-68795937D01*
X113413524Y-68851874D01*
X113309858Y-68955359D01*
X113253685Y-69090639D01*
X113253557Y-69237118D01*
X113309494Y-69372496D01*
X113412979Y-69476162D01*
X113548259Y-69532335D01*
X113694738Y-69532463D01*
X113830116Y-69476526D01*
X113933782Y-69373041D01*
X113989955Y-69237761D01*
X113990083Y-69091282D01*
X113990083Y-85759500D01*
X113581143Y-85759500D01*
X113581143Y-71417922D01*
X113525206Y-71282544D01*
X113421721Y-71178878D01*
X113286441Y-71122705D01*
X113139962Y-71122577D01*
X113004584Y-71178514D01*
X112900918Y-71281999D01*
X112844745Y-71417279D01*
X112844617Y-71563758D01*
X112900554Y-71699136D01*
X113004039Y-71802802D01*
X113139319Y-71858975D01*
X113285798Y-71859103D01*
X113421176Y-71803166D01*
X113524842Y-71699681D01*
X113581015Y-71564401D01*
X113581143Y-71417922D01*
X113581143Y-85759500D01*
X113316983Y-85759500D01*
X113316983Y-81191842D01*
X113261046Y-81056464D01*
X113157561Y-80952798D01*
X113022281Y-80896625D01*
X112875802Y-80896497D01*
X112740424Y-80952434D01*
X112636758Y-81055919D01*
X112580585Y-81191199D01*
X112580457Y-81337678D01*
X112636394Y-81473056D01*
X112739879Y-81576722D01*
X112875159Y-81632895D01*
X113021638Y-81633023D01*
X113157016Y-81577086D01*
X113260682Y-81473601D01*
X113316855Y-81338321D01*
X113316983Y-81191842D01*
X113316983Y-85759500D01*
X111983483Y-85759500D01*
X111983483Y-74564982D01*
X111927546Y-74429604D01*
X111824061Y-74325938D01*
X111688781Y-74269765D01*
X111542302Y-74269637D01*
X111452623Y-74306691D01*
X111452623Y-65207622D01*
X111396686Y-65072244D01*
X111293201Y-64968578D01*
X111157921Y-64912405D01*
X111011442Y-64912277D01*
X110876064Y-64968214D01*
X110772398Y-65071699D01*
X110716225Y-65206979D01*
X110716097Y-65353458D01*
X110772034Y-65488836D01*
X110875519Y-65592502D01*
X111010799Y-65648675D01*
X111157278Y-65648803D01*
X111292656Y-65592866D01*
X111396322Y-65489381D01*
X111452495Y-65354101D01*
X111452623Y-65207622D01*
X111452623Y-74306691D01*
X111406924Y-74325574D01*
X111303258Y-74429059D01*
X111247085Y-74564339D01*
X111246957Y-74710818D01*
X111302894Y-74846196D01*
X111406379Y-74949862D01*
X111541659Y-75006035D01*
X111688138Y-75006163D01*
X111823516Y-74950226D01*
X111927182Y-74846741D01*
X111983355Y-74711461D01*
X111983483Y-74564982D01*
X111983483Y-85759500D01*
X111376423Y-85759500D01*
X111376423Y-81062302D01*
X111320486Y-80926924D01*
X111217001Y-80823258D01*
X111081721Y-80767085D01*
X110935242Y-80766957D01*
X110799864Y-80822894D01*
X110696198Y-80926379D01*
X110640025Y-81061659D01*
X110639897Y-81208138D01*
X110695834Y-81343516D01*
X110799319Y-81447182D01*
X110934599Y-81503355D01*
X111081078Y-81503483D01*
X111216456Y-81447546D01*
X111320122Y-81344061D01*
X111376295Y-81208781D01*
X111376423Y-81062302D01*
X111376423Y-85759500D01*
X108917703Y-85759500D01*
X108917703Y-81613482D01*
X108861766Y-81478104D01*
X108800863Y-81417094D01*
X108800863Y-78474042D01*
X108744926Y-78338664D01*
X108641441Y-78234998D01*
X108506161Y-78178825D01*
X108496063Y-78178816D01*
X108496063Y-71593182D01*
X108440126Y-71457804D01*
X108336641Y-71354138D01*
X108201361Y-71297965D01*
X108107443Y-71297882D01*
X108107443Y-63340722D01*
X108051506Y-63205344D01*
X107948021Y-63101678D01*
X107812741Y-63045505D01*
X107666262Y-63045377D01*
X107530884Y-63101314D01*
X107427218Y-63204799D01*
X107371045Y-63340079D01*
X107370917Y-63486558D01*
X107426854Y-63621936D01*
X107530339Y-63725602D01*
X107665619Y-63781775D01*
X107812098Y-63781903D01*
X107947476Y-63725966D01*
X108051142Y-63622481D01*
X108107315Y-63487201D01*
X108107443Y-63340722D01*
X108107443Y-71297882D01*
X108054882Y-71297837D01*
X107919504Y-71353774D01*
X107815838Y-71457259D01*
X107759665Y-71592539D01*
X107759537Y-71739018D01*
X107815474Y-71874396D01*
X107918959Y-71978062D01*
X108054239Y-72034235D01*
X108200718Y-72034363D01*
X108336096Y-71978426D01*
X108439762Y-71874941D01*
X108495935Y-71739661D01*
X108496063Y-71593182D01*
X108496063Y-78178816D01*
X108389383Y-78178722D01*
X108389383Y-77818722D01*
X108333446Y-77683344D01*
X108229961Y-77579678D01*
X108094681Y-77523505D01*
X107948202Y-77523377D01*
X107812824Y-77579314D01*
X107709158Y-77682799D01*
X107652985Y-77818079D01*
X107652857Y-77964558D01*
X107708794Y-78099936D01*
X107812279Y-78203602D01*
X107947559Y-78259775D01*
X108094038Y-78259903D01*
X108229416Y-78203966D01*
X108333082Y-78100481D01*
X108389255Y-77965201D01*
X108389383Y-77818722D01*
X108389383Y-78178722D01*
X108359682Y-78178697D01*
X108224304Y-78234634D01*
X108120638Y-78338119D01*
X108064465Y-78473399D01*
X108064337Y-78619878D01*
X108120274Y-78755256D01*
X108223759Y-78858922D01*
X108359039Y-78915095D01*
X108505518Y-78915223D01*
X108640896Y-78859286D01*
X108744562Y-78755801D01*
X108800735Y-78620521D01*
X108800863Y-78474042D01*
X108800863Y-81417094D01*
X108758281Y-81374438D01*
X108623001Y-81318265D01*
X108476522Y-81318137D01*
X108341144Y-81374074D01*
X108237478Y-81477559D01*
X108181305Y-81612839D01*
X108181177Y-81759318D01*
X108237114Y-81894696D01*
X108340599Y-81998362D01*
X108475879Y-82054535D01*
X108622358Y-82054663D01*
X108757736Y-81998726D01*
X108861402Y-81895241D01*
X108917575Y-81759961D01*
X108917703Y-81613482D01*
X108917703Y-85759500D01*
X108724663Y-85759500D01*
X108724663Y-83023182D01*
X108668726Y-82887804D01*
X108565241Y-82784138D01*
X108429961Y-82727965D01*
X108283482Y-82727837D01*
X108148104Y-82783774D01*
X108044438Y-82887259D01*
X107988265Y-83022539D01*
X107988137Y-83169018D01*
X108044074Y-83304396D01*
X108147559Y-83408062D01*
X108282839Y-83464235D01*
X108429318Y-83464363D01*
X108564696Y-83408426D01*
X108668362Y-83304941D01*
X108724535Y-83169661D01*
X108724663Y-83023182D01*
X108724663Y-85759500D01*
X107342903Y-85759500D01*
X107342903Y-63729342D01*
X107286966Y-63593964D01*
X107183481Y-63490298D01*
X107048201Y-63434125D01*
X106901722Y-63433997D01*
X106766344Y-63489934D01*
X106662678Y-63593419D01*
X106606505Y-63728699D01*
X106606377Y-63875178D01*
X106662314Y-64010556D01*
X106765799Y-64114222D01*
X106901079Y-64170395D01*
X107047558Y-64170523D01*
X107182936Y-64114586D01*
X107286602Y-64011101D01*
X107342775Y-63875821D01*
X107342903Y-63729342D01*
X107342903Y-85759500D01*
X107292103Y-85759500D01*
X107292103Y-72982562D01*
X107236166Y-72847184D01*
X107231143Y-72842152D01*
X107231143Y-71448402D01*
X107175206Y-71313024D01*
X107071721Y-71209358D01*
X106936441Y-71153185D01*
X106789962Y-71153057D01*
X106654584Y-71208994D01*
X106550918Y-71312479D01*
X106494745Y-71447759D01*
X106494617Y-71594238D01*
X106550554Y-71729616D01*
X106654039Y-71833282D01*
X106789319Y-71889455D01*
X106935798Y-71889583D01*
X107071176Y-71833646D01*
X107174842Y-71730161D01*
X107231015Y-71594881D01*
X107231143Y-71448402D01*
X107231143Y-72842152D01*
X107132681Y-72743518D01*
X106997401Y-72687345D01*
X106850922Y-72687217D01*
X106715544Y-72743154D01*
X106611878Y-72846639D01*
X106555705Y-72981919D01*
X106555577Y-73128398D01*
X106611514Y-73263776D01*
X106714999Y-73367442D01*
X106850279Y-73423615D01*
X106996758Y-73423743D01*
X107132136Y-73367806D01*
X107235802Y-73264321D01*
X107291975Y-73129041D01*
X107292103Y-72982562D01*
X107292103Y-85759500D01*
X106819663Y-85759500D01*
X106819663Y-82527882D01*
X106819663Y-80953082D01*
X106763726Y-80817704D01*
X106660241Y-80714038D01*
X106524961Y-80657865D01*
X106378482Y-80657737D01*
X106243104Y-80713674D01*
X106139438Y-80817159D01*
X106083265Y-80952439D01*
X106083137Y-81098918D01*
X106139074Y-81234296D01*
X106242559Y-81337962D01*
X106377839Y-81394135D01*
X106524318Y-81394263D01*
X106659696Y-81338326D01*
X106763362Y-81234841D01*
X106819535Y-81099561D01*
X106819663Y-80953082D01*
X106819663Y-82527882D01*
X106763726Y-82392504D01*
X106660241Y-82288838D01*
X106524961Y-82232665D01*
X106378482Y-82232537D01*
X106243104Y-82288474D01*
X106139438Y-82391959D01*
X106083265Y-82527239D01*
X106083137Y-82673718D01*
X106139074Y-82809096D01*
X106242559Y-82912762D01*
X106377839Y-82968935D01*
X106524318Y-82969063D01*
X106659696Y-82913126D01*
X106763362Y-82809641D01*
X106819535Y-82674361D01*
X106819663Y-82527882D01*
X106819663Y-85759500D01*
X106072903Y-85759500D01*
X106072903Y-81057222D01*
X106039883Y-80977307D01*
X106039883Y-74417662D01*
X105983946Y-74282284D01*
X105880461Y-74178618D01*
X105745181Y-74122445D01*
X105598702Y-74122317D01*
X105463324Y-74178254D01*
X105359658Y-74281739D01*
X105303485Y-74417019D01*
X105303357Y-74563498D01*
X105359294Y-74698876D01*
X105462779Y-74802542D01*
X105598059Y-74858715D01*
X105744538Y-74858843D01*
X105879916Y-74802906D01*
X105983582Y-74699421D01*
X106039755Y-74564141D01*
X106039883Y-74417662D01*
X106039883Y-80977307D01*
X106016966Y-80921844D01*
X105913481Y-80818178D01*
X105778201Y-80762005D01*
X105631722Y-80761877D01*
X105496344Y-80817814D01*
X105392678Y-80921299D01*
X105336505Y-81056579D01*
X105336377Y-81203058D01*
X105392314Y-81338436D01*
X105495799Y-81442102D01*
X105631079Y-81498275D01*
X105777558Y-81498403D01*
X105912936Y-81442466D01*
X106016602Y-81338981D01*
X106072775Y-81203701D01*
X106072903Y-81057222D01*
X106072903Y-85759500D01*
X105890023Y-85759500D01*
X105890023Y-82121482D01*
X105834086Y-81986104D01*
X105730601Y-81882438D01*
X105595321Y-81826265D01*
X105448842Y-81826137D01*
X105313464Y-81882074D01*
X105209798Y-81985559D01*
X105153625Y-82120839D01*
X105153497Y-82267318D01*
X105209434Y-82402696D01*
X105312919Y-82506362D01*
X105448199Y-82562535D01*
X105594678Y-82562663D01*
X105730056Y-82506726D01*
X105833722Y-82403241D01*
X105889895Y-82267961D01*
X105890023Y-82121482D01*
X105890023Y-85759500D01*
X103827543Y-85759500D01*
X103827543Y-59281802D01*
X103771606Y-59146424D01*
X103668121Y-59042758D01*
X103532841Y-58986585D01*
X103386362Y-58986457D01*
X103250984Y-59042394D01*
X103147318Y-59145879D01*
X103091145Y-59281159D01*
X103091017Y-59427638D01*
X103146954Y-59563016D01*
X103250439Y-59666682D01*
X103385719Y-59722855D01*
X103532198Y-59722983D01*
X103667576Y-59667046D01*
X103771242Y-59563561D01*
X103827415Y-59428281D01*
X103827543Y-59281802D01*
X103827543Y-85759500D01*
X103710703Y-85759500D01*
X103710703Y-60589902D01*
X103654766Y-60454524D01*
X103551281Y-60350858D01*
X103416001Y-60294685D01*
X103324580Y-60294605D01*
X103380082Y-60239201D01*
X103436255Y-60103921D01*
X103436383Y-59957442D01*
X103380446Y-59822064D01*
X103276961Y-59718398D01*
X103141681Y-59662225D01*
X102995202Y-59662097D01*
X102859824Y-59718034D01*
X102756158Y-59821519D01*
X102699985Y-59956799D01*
X102699857Y-60103278D01*
X102755794Y-60238656D01*
X102859279Y-60342322D01*
X102994559Y-60398495D01*
X103085979Y-60398574D01*
X103030478Y-60453979D01*
X102974305Y-60589259D01*
X102974177Y-60735738D01*
X103030114Y-60871116D01*
X103047996Y-60889029D01*
X102919002Y-60888917D01*
X102783624Y-60944854D01*
X102679958Y-61048339D01*
X102623785Y-61183619D01*
X102623657Y-61330098D01*
X102679594Y-61465476D01*
X102783079Y-61569142D01*
X102918359Y-61625315D01*
X103064838Y-61625443D01*
X103200216Y-61569506D01*
X103303882Y-61466021D01*
X103360055Y-61330741D01*
X103360183Y-61184262D01*
X103304246Y-61048884D01*
X103286363Y-61030970D01*
X103415358Y-61031083D01*
X103550736Y-60975146D01*
X103654402Y-60871661D01*
X103710575Y-60736381D01*
X103710703Y-60589902D01*
X103710703Y-85759500D01*
X103695463Y-85759500D01*
X103695463Y-66663042D01*
X103639526Y-66527664D01*
X103638021Y-66526156D01*
X103634446Y-66517504D01*
X103530961Y-66413838D01*
X103395681Y-66357665D01*
X103249202Y-66357537D01*
X103113824Y-66413474D01*
X103010158Y-66516959D01*
X102953985Y-66652239D01*
X102953857Y-66798718D01*
X103009794Y-66934096D01*
X103011298Y-66935603D01*
X103014874Y-66944256D01*
X103118359Y-67047922D01*
X103253639Y-67104095D01*
X103400118Y-67104223D01*
X103535496Y-67048286D01*
X103639162Y-66944801D01*
X103695335Y-66809521D01*
X103695463Y-66663042D01*
X103695463Y-85759500D01*
X103611643Y-85759500D01*
X103611643Y-72347562D01*
X103555706Y-72212184D01*
X103452221Y-72108518D01*
X103444003Y-72105105D01*
X103444003Y-70457802D01*
X103388066Y-70322424D01*
X103284581Y-70218758D01*
X103149301Y-70162585D01*
X103002822Y-70162457D01*
X102867444Y-70218394D01*
X102763778Y-70321879D01*
X102707605Y-70457159D01*
X102707477Y-70603638D01*
X102763414Y-70739016D01*
X102866899Y-70842682D01*
X103002179Y-70898855D01*
X103148658Y-70898983D01*
X103284036Y-70843046D01*
X103387702Y-70739561D01*
X103443875Y-70604281D01*
X103444003Y-70457802D01*
X103444003Y-72105105D01*
X103316941Y-72052345D01*
X103170462Y-72052217D01*
X103035084Y-72108154D01*
X102931418Y-72211639D01*
X102875245Y-72346919D01*
X102875117Y-72493398D01*
X102931054Y-72628776D01*
X103034539Y-72732442D01*
X103169819Y-72788615D01*
X103316298Y-72788743D01*
X103451676Y-72732806D01*
X103555342Y-72629321D01*
X103611515Y-72494041D01*
X103611643Y-72347562D01*
X103611643Y-85759500D01*
X103009663Y-85759500D01*
X103009663Y-75126322D01*
X102953726Y-74990944D01*
X102850241Y-74887278D01*
X102714961Y-74831105D01*
X102568482Y-74830977D01*
X102433104Y-74886914D01*
X102329438Y-74990399D01*
X102273265Y-75125679D01*
X102273137Y-75272158D01*
X102329074Y-75407536D01*
X102432559Y-75511202D01*
X102567839Y-75567375D01*
X102714318Y-75567503D01*
X102849696Y-75511566D01*
X102953362Y-75408081D01*
X103009535Y-75272801D01*
X103009663Y-75126322D01*
X103009663Y-85759500D01*
X101569483Y-85759500D01*
X101569483Y-66622402D01*
X101513546Y-66487024D01*
X101410061Y-66383358D01*
X101274781Y-66327185D01*
X101128302Y-66327057D01*
X100992924Y-66382994D01*
X100889258Y-66486479D01*
X100868263Y-66537040D01*
X100868263Y-65427082D01*
X100812326Y-65291704D01*
X100708841Y-65188038D01*
X100573561Y-65131865D01*
X100427082Y-65131737D01*
X100291704Y-65187674D01*
X100188038Y-65291159D01*
X100131865Y-65426439D01*
X100131737Y-65572918D01*
X100187674Y-65708296D01*
X100291159Y-65811962D01*
X100426439Y-65868135D01*
X100572918Y-65868263D01*
X100708296Y-65812326D01*
X100811962Y-65708841D01*
X100868135Y-65573561D01*
X100868263Y-65427082D01*
X100868263Y-66537040D01*
X100833085Y-66621759D01*
X100832957Y-66768238D01*
X100888894Y-66903616D01*
X100992379Y-67007282D01*
X101127659Y-67063455D01*
X101274138Y-67063583D01*
X101409516Y-67007646D01*
X101513182Y-66904161D01*
X101569355Y-66768881D01*
X101569483Y-66622402D01*
X101569483Y-85759500D01*
X101559323Y-85759500D01*
X101559323Y-67628242D01*
X101503386Y-67492864D01*
X101399901Y-67389198D01*
X101264621Y-67333025D01*
X101118142Y-67332897D01*
X100982764Y-67388834D01*
X100879098Y-67492319D01*
X100822925Y-67627599D01*
X100822797Y-67774078D01*
X100878734Y-67909456D01*
X100982219Y-68013122D01*
X101117499Y-68069295D01*
X101263978Y-68069423D01*
X101399356Y-68013486D01*
X101503022Y-67910001D01*
X101559195Y-67774721D01*
X101559323Y-67628242D01*
X101559323Y-85759500D01*
X101521223Y-85759500D01*
X101521223Y-82177362D01*
X101465286Y-82041984D01*
X101361801Y-81938318D01*
X101226521Y-81882145D01*
X101211343Y-81882131D01*
X101211343Y-76744302D01*
X101155406Y-76608924D01*
X101051921Y-76505258D01*
X100916641Y-76449085D01*
X100868263Y-76449042D01*
X100868263Y-72427082D01*
X100812326Y-72291704D01*
X100708841Y-72188038D01*
X100573561Y-72131865D01*
X100427082Y-72131737D01*
X100291704Y-72187674D01*
X100188038Y-72291159D01*
X100131865Y-72426439D01*
X100131737Y-72572918D01*
X100187674Y-72708296D01*
X100291159Y-72811962D01*
X100426439Y-72868135D01*
X100572918Y-72868263D01*
X100708296Y-72812326D01*
X100811962Y-72708841D01*
X100868135Y-72573561D01*
X100868263Y-72427082D01*
X100868263Y-76449042D01*
X100770162Y-76448957D01*
X100634784Y-76504894D01*
X100531118Y-76608379D01*
X100474945Y-76743659D01*
X100474817Y-76890138D01*
X100530754Y-77025516D01*
X100634239Y-77129182D01*
X100769519Y-77185355D01*
X100915998Y-77185483D01*
X101051376Y-77129546D01*
X101155042Y-77026061D01*
X101211215Y-76890781D01*
X101211343Y-76744302D01*
X101211343Y-81882131D01*
X101080042Y-81882017D01*
X100944664Y-81937954D01*
X100840998Y-82041439D01*
X100784825Y-82176719D01*
X100784697Y-82323198D01*
X100840634Y-82458576D01*
X100944119Y-82562242D01*
X101079399Y-82618415D01*
X101225878Y-82618543D01*
X101361256Y-82562606D01*
X101464922Y-82459121D01*
X101521095Y-82323841D01*
X101521223Y-82177362D01*
X101521223Y-85759500D01*
X100060723Y-85759500D01*
X100060723Y-69505302D01*
X100004786Y-69369924D01*
X99901301Y-69266258D01*
X99766021Y-69210085D01*
X99619542Y-69209957D01*
X99484164Y-69265894D01*
X99380498Y-69369379D01*
X99324325Y-69504659D01*
X99324324Y-69504665D01*
X99299321Y-69479618D01*
X99164041Y-69423445D01*
X99017562Y-69423317D01*
X98882184Y-69479254D01*
X98778518Y-69582739D01*
X98722345Y-69718019D01*
X98722217Y-69864498D01*
X98760703Y-69957642D01*
X98722081Y-69941605D01*
X98575602Y-69941477D01*
X98440224Y-69997414D01*
X98439038Y-69998597D01*
X98418702Y-69978225D01*
X98472802Y-69924221D01*
X98528975Y-69788941D01*
X98529103Y-69642462D01*
X98473166Y-69507084D01*
X98369681Y-69403418D01*
X98234401Y-69347245D01*
X98087922Y-69347117D01*
X97952544Y-69403054D01*
X97848878Y-69506539D01*
X97792705Y-69641819D01*
X97792694Y-69653491D01*
X97741646Y-69529944D01*
X97638161Y-69426278D01*
X97529261Y-69381058D01*
X97530755Y-69377461D01*
X97530883Y-69230982D01*
X97474946Y-69095604D01*
X97371461Y-68991938D01*
X97370863Y-68991689D01*
X97370863Y-68484222D01*
X97314926Y-68348844D01*
X97211441Y-68245178D01*
X97076161Y-68189005D01*
X96931591Y-68188878D01*
X96931591Y-64932799D01*
X96834350Y-64697457D01*
X96654450Y-64517243D01*
X96419278Y-64419591D01*
X96164639Y-64419369D01*
X95929297Y-64516610D01*
X95749083Y-64696510D01*
X95651431Y-64931682D01*
X95651209Y-65186321D01*
X95748450Y-65421663D01*
X95928350Y-65601877D01*
X96163522Y-65699529D01*
X96418161Y-65699751D01*
X96653503Y-65602510D01*
X96833717Y-65422610D01*
X96931369Y-65187438D01*
X96931591Y-64932799D01*
X96931591Y-68188878D01*
X96929682Y-68188877D01*
X96794304Y-68244814D01*
X96690638Y-68348299D01*
X96634465Y-68483579D01*
X96634337Y-68630058D01*
X96690274Y-68765436D01*
X96793759Y-68869102D01*
X96929039Y-68925275D01*
X97075518Y-68925403D01*
X97210896Y-68869466D01*
X97314562Y-68765981D01*
X97370735Y-68630701D01*
X97370863Y-68484222D01*
X97370863Y-68991689D01*
X97236181Y-68935765D01*
X97089702Y-68935637D01*
X96954324Y-68991574D01*
X96850658Y-69095059D01*
X96842136Y-69115581D01*
X96834350Y-69096737D01*
X96654450Y-68916523D01*
X96419278Y-68818871D01*
X96164639Y-68818649D01*
X95929297Y-68915890D01*
X95749083Y-69095790D01*
X95651431Y-69330962D01*
X95651209Y-69585601D01*
X95748450Y-69820943D01*
X95928350Y-70001157D01*
X96163522Y-70098809D01*
X96418161Y-70099031D01*
X96550572Y-70044319D01*
X96550517Y-70108338D01*
X96606454Y-70243716D01*
X96709939Y-70347382D01*
X96845219Y-70403555D01*
X96991698Y-70403683D01*
X97006292Y-70397652D01*
X97056034Y-70518036D01*
X97159519Y-70621702D01*
X97294799Y-70677875D01*
X97441278Y-70678003D01*
X97576656Y-70622066D01*
X97680322Y-70518581D01*
X97736495Y-70383301D01*
X97736623Y-70236822D01*
X97680686Y-70101444D01*
X97632150Y-70052824D01*
X97637616Y-70050566D01*
X97741282Y-69947081D01*
X97797455Y-69811801D01*
X97797465Y-69800128D01*
X97848514Y-69923676D01*
X97948697Y-70024034D01*
X97894598Y-70078039D01*
X97838425Y-70213319D01*
X97838297Y-70359798D01*
X97894234Y-70495176D01*
X97997719Y-70598842D01*
X98132999Y-70655015D01*
X98279478Y-70655143D01*
X98414856Y-70599206D01*
X98416041Y-70598022D01*
X98439679Y-70621702D01*
X98574959Y-70677875D01*
X98721438Y-70678003D01*
X98856816Y-70622066D01*
X98960482Y-70518581D01*
X99016655Y-70383301D01*
X99016783Y-70236822D01*
X98978296Y-70143677D01*
X99016919Y-70159715D01*
X99163398Y-70159843D01*
X99298776Y-70103906D01*
X99402442Y-70000421D01*
X99458615Y-69865141D01*
X99458615Y-69865134D01*
X99483619Y-69890182D01*
X99618899Y-69946355D01*
X99765378Y-69946483D01*
X99900756Y-69890546D01*
X100004422Y-69787061D01*
X100060595Y-69651781D01*
X100060723Y-69505302D01*
X100060723Y-85759500D01*
X99984523Y-85759500D01*
X99984523Y-70259682D01*
X99928586Y-70124304D01*
X99825101Y-70020638D01*
X99689821Y-69964465D01*
X99543342Y-69964337D01*
X99407964Y-70020274D01*
X99304298Y-70123759D01*
X99248125Y-70259039D01*
X99247997Y-70405518D01*
X99303934Y-70540896D01*
X99407419Y-70644562D01*
X99542699Y-70700735D01*
X99689178Y-70700863D01*
X99824556Y-70644926D01*
X99928222Y-70541441D01*
X99984395Y-70406161D01*
X99984523Y-70259682D01*
X99984523Y-85759500D01*
X99565423Y-85759500D01*
X99565423Y-78214962D01*
X99509486Y-78079584D01*
X99406001Y-77975918D01*
X99270721Y-77919745D01*
X99124242Y-77919617D01*
X98988864Y-77975554D01*
X98885198Y-78079039D01*
X98829025Y-78214319D01*
X98828897Y-78360798D01*
X98884834Y-78496176D01*
X98988319Y-78599842D01*
X99123599Y-78656015D01*
X99270078Y-78656143D01*
X99405456Y-78600206D01*
X99509122Y-78496721D01*
X99565295Y-78361441D01*
X99565423Y-78214962D01*
X99565423Y-85759500D01*
X98244623Y-85759500D01*
X98244623Y-82182442D01*
X98188686Y-82047064D01*
X98085201Y-81943398D01*
X97949921Y-81887225D01*
X97803442Y-81887097D01*
X97668064Y-81943034D01*
X97564398Y-82046519D01*
X97508225Y-82181799D01*
X97508097Y-82328278D01*
X97564034Y-82463656D01*
X97667519Y-82567322D01*
X97802799Y-82623495D01*
X97949278Y-82623623D01*
X98084656Y-82567686D01*
X98188322Y-82464201D01*
X98244495Y-82328921D01*
X98244623Y-82182442D01*
X98244623Y-85759500D01*
X96969543Y-85759500D01*
X96969543Y-78667082D01*
X96913606Y-78531704D01*
X96810121Y-78428038D01*
X96674841Y-78371865D01*
X96528362Y-78371737D01*
X96517423Y-78376256D01*
X96517423Y-76980522D01*
X96461486Y-76845144D01*
X96358001Y-76741478D01*
X96222721Y-76685305D01*
X96076242Y-76685177D01*
X95940864Y-76741114D01*
X95837198Y-76844599D01*
X95781025Y-76979879D01*
X95780897Y-77126358D01*
X95836834Y-77261736D01*
X95940319Y-77365402D01*
X96075599Y-77421575D01*
X96222078Y-77421703D01*
X96357456Y-77365766D01*
X96461122Y-77262281D01*
X96517295Y-77127001D01*
X96517423Y-76980522D01*
X96517423Y-78376256D01*
X96392984Y-78427674D01*
X96289318Y-78531159D01*
X96233145Y-78666439D01*
X96233017Y-78812918D01*
X96288954Y-78948296D01*
X96392439Y-79051962D01*
X96527719Y-79108135D01*
X96674198Y-79108263D01*
X96809576Y-79052326D01*
X96913242Y-78948841D01*
X96969415Y-78813561D01*
X96969543Y-78667082D01*
X96969543Y-85759500D01*
X94575137Y-85759500D01*
X94575137Y-83134200D01*
X94575137Y-80594200D01*
X94555232Y-80494131D01*
X94555232Y-78917800D01*
X94555232Y-77190600D01*
X94541139Y-77117963D01*
X94499202Y-77054122D01*
X94435892Y-77011387D01*
X94361000Y-76996368D01*
X92329000Y-76996368D01*
X92256363Y-77010461D01*
X92192522Y-77052398D01*
X92149787Y-77115708D01*
X92134768Y-77190600D01*
X92134768Y-78917800D01*
X92148861Y-78990437D01*
X92190798Y-79054278D01*
X92254108Y-79097013D01*
X92329000Y-79112032D01*
X94361000Y-79112032D01*
X94433637Y-79097939D01*
X94497478Y-79056002D01*
X94540213Y-78992692D01*
X94555232Y-78917800D01*
X94555232Y-80494131D01*
X94494898Y-80190813D01*
X94266398Y-79848839D01*
X93924424Y-79620339D01*
X93521037Y-79540100D01*
X93168963Y-79540100D01*
X92765576Y-79620339D01*
X92423602Y-79848839D01*
X92195102Y-80190813D01*
X92114863Y-80594200D01*
X92195102Y-80997587D01*
X92423602Y-81339561D01*
X92765576Y-81568061D01*
X93168963Y-81648300D01*
X93521037Y-81648300D01*
X93924424Y-81568061D01*
X94266398Y-81339561D01*
X94494898Y-80997587D01*
X94575137Y-80594200D01*
X94575137Y-83134200D01*
X94494898Y-82730813D01*
X94266398Y-82388839D01*
X93924424Y-82160339D01*
X93521037Y-82080100D01*
X93168963Y-82080100D01*
X92765576Y-82160339D01*
X92423602Y-82388839D01*
X92195102Y-82730813D01*
X92114863Y-83134200D01*
X92195102Y-83537587D01*
X92423602Y-83879561D01*
X92765576Y-84108061D01*
X93168963Y-84188300D01*
X93521037Y-84188300D01*
X93924424Y-84108061D01*
X94266398Y-83879561D01*
X94494898Y-83537587D01*
X94575137Y-83134200D01*
X94575137Y-85759500D01*
X91240500Y-85759500D01*
X91240500Y-55240500D01*
X133000000Y-55240500D01*
X136759500Y-55240500D01*
X136759500Y-85759500D01*
X136759500Y-85759500D01*
G37*
X136759500Y-85759500D02*
X135455623Y-85759500D01*
X135455623Y-71483962D01*
X135399686Y-71348584D01*
X135313383Y-71262130D01*
X135313383Y-66068682D01*
X135257446Y-65933304D01*
X135153961Y-65829638D01*
X135018681Y-65773465D01*
X134872202Y-65773337D01*
X134736824Y-65829274D01*
X134633158Y-65932759D01*
X134576985Y-66068039D01*
X134576857Y-66214518D01*
X134632794Y-66349896D01*
X134736279Y-66453562D01*
X134871559Y-66509735D01*
X135018038Y-66509863D01*
X135153416Y-66453926D01*
X135257082Y-66350441D01*
X135313255Y-66215161D01*
X135313383Y-66068682D01*
X135313383Y-71262130D01*
X135296201Y-71244918D01*
X135160921Y-71188745D01*
X135014442Y-71188617D01*
X134879064Y-71244554D01*
X134775398Y-71348039D01*
X134719225Y-71483319D01*
X134719097Y-71629798D01*
X134775034Y-71765176D01*
X134878519Y-71868842D01*
X135013799Y-71925015D01*
X135160278Y-71925143D01*
X135295656Y-71869206D01*
X135399322Y-71765721D01*
X135455495Y-71630441D01*
X135455623Y-71483962D01*
X135455623Y-85759500D01*
X134945083Y-85759500D01*
X134945083Y-74257642D01*
X134889146Y-74122264D01*
X134785661Y-74018598D01*
X134650381Y-73962425D01*
X134503902Y-73962297D01*
X134368524Y-74018234D01*
X134264858Y-74121719D01*
X134208685Y-74256999D01*
X134208557Y-74403478D01*
X134264494Y-74538856D01*
X134367979Y-74642522D01*
X134503259Y-74698695D01*
X134649738Y-74698823D01*
X134785116Y-74642886D01*
X134888782Y-74539401D01*
X134944955Y-74404121D01*
X134945083Y-74257642D01*
X134945083Y-85759500D01*
X133901143Y-85759500D01*
X133901143Y-65946762D01*
X133845206Y-65811384D01*
X133741721Y-65707718D01*
X133606441Y-65651545D01*
X133459962Y-65651417D01*
X133324584Y-65707354D01*
X133241349Y-65790443D01*
X133241349Y-62084424D01*
X133241349Y-57004424D01*
X133022508Y-56474788D01*
X132617643Y-56069216D01*
X132088390Y-55849451D01*
X131515324Y-55848951D01*
X130985688Y-56067792D01*
X130580116Y-56472657D01*
X130360351Y-57001910D01*
X130359851Y-57574976D01*
X130578692Y-58104612D01*
X130983557Y-58510184D01*
X131512810Y-58729949D01*
X132085876Y-58730449D01*
X132615512Y-58511608D01*
X133021084Y-58106743D01*
X133240849Y-57577490D01*
X133241349Y-57004424D01*
X133241349Y-62084424D01*
X133022508Y-61554788D01*
X132617643Y-61149216D01*
X132088390Y-60929451D01*
X131515324Y-60928951D01*
X130985688Y-61147792D01*
X130601332Y-61531477D01*
X130601332Y-59564228D01*
X130397683Y-59071360D01*
X130020924Y-58693942D01*
X129528412Y-58489433D01*
X128995128Y-58488968D01*
X128502260Y-58692617D01*
X128161349Y-59032932D01*
X128161349Y-57004424D01*
X127942508Y-56474788D01*
X127537643Y-56069216D01*
X127008390Y-55849451D01*
X126435324Y-55848951D01*
X125905688Y-56067792D01*
X125500116Y-56472657D01*
X125280351Y-57001910D01*
X125279851Y-57574976D01*
X125498692Y-58104612D01*
X125903557Y-58510184D01*
X126432810Y-58729949D01*
X127005876Y-58730449D01*
X127535512Y-58511608D01*
X127941084Y-58106743D01*
X128160849Y-57577490D01*
X128161349Y-57004424D01*
X128161349Y-59032932D01*
X128124842Y-59069376D01*
X127920333Y-59561888D01*
X127919868Y-60095172D01*
X128123517Y-60588040D01*
X128500276Y-60965458D01*
X128992788Y-61169967D01*
X129526072Y-61170432D01*
X130018940Y-60966783D01*
X130396358Y-60590024D01*
X130600867Y-60097512D01*
X130601332Y-59564228D01*
X130601332Y-61531477D01*
X130580116Y-61552657D01*
X130360351Y-62081910D01*
X130359851Y-62654976D01*
X130578692Y-63184612D01*
X130983557Y-63590184D01*
X131512810Y-63809949D01*
X132085876Y-63810449D01*
X132615512Y-63591608D01*
X133021084Y-63186743D01*
X133240849Y-62657490D01*
X133241349Y-62084424D01*
X133241349Y-65790443D01*
X133220918Y-65810839D01*
X133164745Y-65946119D01*
X133164617Y-66092598D01*
X133220554Y-66227976D01*
X133324039Y-66331642D01*
X133459319Y-66387815D01*
X133605798Y-66387943D01*
X133741176Y-66332006D01*
X133844842Y-66228521D01*
X133901015Y-66093241D01*
X133901143Y-65946762D01*
X133901143Y-85759500D01*
X132438103Y-85759500D01*
X132438103Y-72766662D01*
X132382166Y-72631284D01*
X132278681Y-72527618D01*
X132143401Y-72471445D01*
X131996922Y-72471317D01*
X131935183Y-72496827D01*
X131935183Y-71524602D01*
X131879246Y-71389224D01*
X131775761Y-71285558D01*
X131640481Y-71229385D01*
X131494002Y-71229257D01*
X131358624Y-71285194D01*
X131254958Y-71388679D01*
X131198785Y-71523959D01*
X131198657Y-71670438D01*
X131254594Y-71805816D01*
X131358079Y-71909482D01*
X131493359Y-71965655D01*
X131639838Y-71965783D01*
X131775216Y-71909846D01*
X131878882Y-71806361D01*
X131935055Y-71671081D01*
X131935183Y-71524602D01*
X131935183Y-72496827D01*
X131861544Y-72527254D01*
X131757878Y-72630739D01*
X131701705Y-72766019D01*
X131701577Y-72912498D01*
X131757514Y-73047876D01*
X131860999Y-73151542D01*
X131996279Y-73207715D01*
X132142758Y-73207843D01*
X132278136Y-73151906D01*
X132381802Y-73048421D01*
X132437975Y-72913141D01*
X132438103Y-72766662D01*
X132438103Y-85759500D01*
X130888703Y-85759500D01*
X130888703Y-66896722D01*
X130832766Y-66761344D01*
X130729281Y-66657678D01*
X130594001Y-66601505D01*
X130447522Y-66601377D01*
X130312144Y-66657314D01*
X130208478Y-66760799D01*
X130152305Y-66896079D01*
X130152177Y-67042558D01*
X130208114Y-67177936D01*
X130311599Y-67281602D01*
X130446879Y-67337775D01*
X130593358Y-67337903D01*
X130728736Y-67281966D01*
X130832402Y-67178481D01*
X130888575Y-67043201D01*
X130888703Y-66896722D01*
X130888703Y-85759500D01*
X129915883Y-85759500D01*
X129915883Y-72360262D01*
X129900643Y-72323378D01*
X129900643Y-68743302D01*
X129844706Y-68607924D01*
X129741221Y-68504258D01*
X129605941Y-68448085D01*
X129459462Y-68447957D01*
X129324084Y-68503894D01*
X129245323Y-68582517D01*
X129245323Y-66876402D01*
X129189386Y-66741024D01*
X129085901Y-66637358D01*
X128950621Y-66581185D01*
X128804142Y-66581057D01*
X128668764Y-66636994D01*
X128565098Y-66740479D01*
X128508925Y-66875759D01*
X128508797Y-67022238D01*
X128564734Y-67157616D01*
X128668219Y-67261282D01*
X128803499Y-67317455D01*
X128949978Y-67317583D01*
X129085356Y-67261646D01*
X129189022Y-67158161D01*
X129245195Y-67022881D01*
X129245323Y-66876402D01*
X129245323Y-68582517D01*
X129220418Y-68607379D01*
X129164245Y-68742659D01*
X129164117Y-68889138D01*
X129220054Y-69024516D01*
X129323539Y-69128182D01*
X129458819Y-69184355D01*
X129605298Y-69184483D01*
X129740676Y-69128546D01*
X129844342Y-69025061D01*
X129900515Y-68889781D01*
X129900643Y-68743302D01*
X129900643Y-72323378D01*
X129859946Y-72224884D01*
X129756461Y-72121218D01*
X129621181Y-72065045D01*
X129474702Y-72064917D01*
X129339324Y-72120854D01*
X129235658Y-72224339D01*
X129186903Y-72341754D01*
X129186903Y-71108042D01*
X129130966Y-70972664D01*
X129027481Y-70868998D01*
X128892201Y-70812825D01*
X128745722Y-70812697D01*
X128610344Y-70868634D01*
X128506678Y-70972119D01*
X128450505Y-71107399D01*
X128450377Y-71253878D01*
X128506314Y-71389256D01*
X128609799Y-71492922D01*
X128745079Y-71549095D01*
X128891558Y-71549223D01*
X129026936Y-71493286D01*
X129130602Y-71389801D01*
X129186775Y-71254521D01*
X129186903Y-71108042D01*
X129186903Y-72341754D01*
X129179485Y-72359619D01*
X129179357Y-72506098D01*
X129235294Y-72641476D01*
X129338779Y-72745142D01*
X129474059Y-72801315D01*
X129620538Y-72801443D01*
X129755916Y-72745506D01*
X129859582Y-72642021D01*
X129915755Y-72506741D01*
X129915883Y-72360262D01*
X129915883Y-85759500D01*
X129870163Y-85759500D01*
X129870163Y-73315302D01*
X129814226Y-73179924D01*
X129710741Y-73076258D01*
X129575461Y-73020085D01*
X129428982Y-73019957D01*
X129293604Y-73075894D01*
X129189938Y-73179379D01*
X129133765Y-73314659D01*
X129133637Y-73461138D01*
X129189574Y-73596516D01*
X129293059Y-73700182D01*
X129428339Y-73756355D01*
X129574818Y-73756483D01*
X129710196Y-73700546D01*
X129813862Y-73597061D01*
X129870035Y-73461781D01*
X129870163Y-73315302D01*
X129870163Y-85759500D01*
X129552663Y-85759500D01*
X129552663Y-75568282D01*
X129496726Y-75432904D01*
X129393241Y-75329238D01*
X129257961Y-75273065D01*
X129111482Y-75272937D01*
X128976104Y-75328874D01*
X128872438Y-75432359D01*
X128816265Y-75567639D01*
X128816137Y-75714118D01*
X128872074Y-75849496D01*
X128975559Y-75953162D01*
X129110839Y-76009335D01*
X129257318Y-76009463D01*
X129392696Y-75953526D01*
X129496362Y-75850041D01*
X129552535Y-75714761D01*
X129552663Y-75568282D01*
X129552663Y-85759500D01*
X128161349Y-85759500D01*
X128161349Y-62084424D01*
X127942508Y-61554788D01*
X127537643Y-61149216D01*
X127008390Y-60929451D01*
X126435324Y-60928951D01*
X125905688Y-61147792D01*
X125500116Y-61552657D01*
X125280351Y-62081910D01*
X125279851Y-62654976D01*
X125498692Y-63184612D01*
X125903557Y-63590184D01*
X126432810Y-63809949D01*
X127005876Y-63810449D01*
X127535512Y-63591608D01*
X127941084Y-63186743D01*
X128160849Y-62657490D01*
X128161349Y-62084424D01*
X128161349Y-85759500D01*
X126936463Y-85759500D01*
X126936463Y-67028802D01*
X126880526Y-66893424D01*
X126777041Y-66789758D01*
X126641761Y-66733585D01*
X126495282Y-66733457D01*
X126359904Y-66789394D01*
X126256238Y-66892879D01*
X126200065Y-67028159D01*
X126199937Y-67174638D01*
X126255874Y-67310016D01*
X126359359Y-67413682D01*
X126494639Y-67469855D01*
X126641118Y-67469983D01*
X126776496Y-67414046D01*
X126880162Y-67310561D01*
X126936335Y-67175281D01*
X126936463Y-67028802D01*
X126936463Y-85759500D01*
X126166843Y-85759500D01*
X126166843Y-69624682D01*
X126110906Y-69489304D01*
X126007421Y-69385638D01*
X125872141Y-69329465D01*
X125725662Y-69329337D01*
X125590284Y-69385274D01*
X125486618Y-69488759D01*
X125430445Y-69624039D01*
X125430317Y-69770518D01*
X125486254Y-69905896D01*
X125589739Y-70009562D01*
X125725019Y-70065735D01*
X125871498Y-70065863D01*
X126006876Y-70009926D01*
X126110542Y-69906441D01*
X126166715Y-69771161D01*
X126166843Y-69624682D01*
X126166843Y-85759500D01*
X126019523Y-85759500D01*
X126019523Y-71743042D01*
X125963586Y-71607664D01*
X125860101Y-71503998D01*
X125724821Y-71447825D01*
X125578342Y-71447697D01*
X125442964Y-71503634D01*
X125339298Y-71607119D01*
X125283125Y-71742399D01*
X125282997Y-71888878D01*
X125338934Y-72024256D01*
X125442419Y-72127922D01*
X125577699Y-72184095D01*
X125724178Y-72184223D01*
X125859556Y-72128286D01*
X125963222Y-72024801D01*
X126019395Y-71889521D01*
X126019523Y-71743042D01*
X126019523Y-85759500D01*
X125526763Y-85759500D01*
X125526763Y-74298282D01*
X125470826Y-74162904D01*
X125367341Y-74059238D01*
X125232061Y-74003065D01*
X125085582Y-74002937D01*
X124950204Y-74058874D01*
X124846538Y-74162359D01*
X124833343Y-74194136D01*
X124833343Y-68293722D01*
X124777406Y-68158344D01*
X124673921Y-68054678D01*
X124538641Y-67998505D01*
X124392162Y-67998377D01*
X124256784Y-68054314D01*
X124153118Y-68157799D01*
X124096945Y-68293079D01*
X124096817Y-68439558D01*
X124152754Y-68574936D01*
X124256239Y-68678602D01*
X124391519Y-68734775D01*
X124537998Y-68734903D01*
X124673376Y-68678966D01*
X124777042Y-68575481D01*
X124833215Y-68440201D01*
X124833343Y-68293722D01*
X124833343Y-74194136D01*
X124790365Y-74297639D01*
X124790237Y-74444118D01*
X124846174Y-74579496D01*
X124949659Y-74683162D01*
X125084939Y-74739335D01*
X125231418Y-74739463D01*
X125366796Y-74683526D01*
X125470462Y-74580041D01*
X125526635Y-74444761D01*
X125526763Y-74298282D01*
X125526763Y-85759500D01*
X124106903Y-85759500D01*
X124106903Y-77361522D01*
X124050966Y-77226144D01*
X123947481Y-77122478D01*
X123812201Y-77066305D01*
X123665722Y-77066177D01*
X123530344Y-77122114D01*
X123426678Y-77225599D01*
X123370505Y-77360879D01*
X123370377Y-77507358D01*
X123426314Y-77642736D01*
X123529799Y-77746402D01*
X123665079Y-77802575D01*
X123811558Y-77802703D01*
X123946936Y-77746766D01*
X124050602Y-77643281D01*
X124106775Y-77508001D01*
X124106903Y-77361522D01*
X124106903Y-85759500D01*
X123278863Y-85759500D01*
X123278863Y-75357462D01*
X123222926Y-75222084D01*
X123119441Y-75118418D01*
X122984161Y-75062245D01*
X122920723Y-75062189D01*
X122920723Y-68941422D01*
X122864786Y-68806044D01*
X122852143Y-68793378D01*
X122852143Y-65855322D01*
X122796206Y-65719944D01*
X122692721Y-65616278D01*
X122557441Y-65560105D01*
X122410962Y-65559977D01*
X122275584Y-65615914D01*
X122171918Y-65719399D01*
X122115745Y-65854679D01*
X122115617Y-66001158D01*
X122171554Y-66136536D01*
X122275039Y-66240202D01*
X122410319Y-66296375D01*
X122556798Y-66296503D01*
X122692176Y-66240566D01*
X122795842Y-66137081D01*
X122852015Y-66001801D01*
X122852143Y-65855322D01*
X122852143Y-68793378D01*
X122761301Y-68702378D01*
X122626021Y-68646205D01*
X122479542Y-68646077D01*
X122344164Y-68702014D01*
X122240498Y-68805499D01*
X122184325Y-68940779D01*
X122184197Y-69087258D01*
X122240134Y-69222636D01*
X122343619Y-69326302D01*
X122478899Y-69382475D01*
X122625378Y-69382603D01*
X122760756Y-69326666D01*
X122864422Y-69223181D01*
X122920595Y-69087901D01*
X122920723Y-68941422D01*
X122920723Y-75062189D01*
X122837682Y-75062117D01*
X122702304Y-75118054D01*
X122654023Y-75166250D01*
X122654023Y-72271362D01*
X122598086Y-72135984D01*
X122494601Y-72032318D01*
X122359321Y-71976145D01*
X122212842Y-71976017D01*
X122077464Y-72031954D01*
X121973798Y-72135439D01*
X121917625Y-72270719D01*
X121917497Y-72417198D01*
X121973434Y-72552576D01*
X122076919Y-72656242D01*
X122212199Y-72712415D01*
X122358678Y-72712543D01*
X122494056Y-72656606D01*
X122597722Y-72553121D01*
X122653895Y-72417841D01*
X122654023Y-72271362D01*
X122654023Y-75166250D01*
X122598638Y-75221539D01*
X122542465Y-75356819D01*
X122542337Y-75503298D01*
X122598274Y-75638676D01*
X122701759Y-75742342D01*
X122837039Y-75798515D01*
X122983518Y-75798643D01*
X123118896Y-75742706D01*
X123222562Y-75639221D01*
X123278735Y-75503941D01*
X123278863Y-75357462D01*
X123278863Y-85759500D01*
X121732003Y-85759500D01*
X121732003Y-75342222D01*
X121676066Y-75206844D01*
X121572581Y-75103178D01*
X121437301Y-75047005D01*
X121290822Y-75046877D01*
X121155444Y-75102814D01*
X121051778Y-75206299D01*
X120995605Y-75341579D01*
X120995477Y-75488058D01*
X121051414Y-75623436D01*
X121154899Y-75727102D01*
X121290179Y-75783275D01*
X121436658Y-75783403D01*
X121572036Y-75727466D01*
X121675702Y-75623981D01*
X121731875Y-75488701D01*
X121732003Y-75342222D01*
X121732003Y-85759500D01*
X119783823Y-85759500D01*
X119783823Y-60414642D01*
X119727886Y-60279264D01*
X119624401Y-60175598D01*
X119575543Y-60155310D01*
X119575543Y-57275202D01*
X119519606Y-57139824D01*
X119416121Y-57036158D01*
X119280841Y-56979985D01*
X119134362Y-56979857D01*
X118998984Y-57035794D01*
X118895318Y-57139279D01*
X118839145Y-57274559D01*
X118839017Y-57421038D01*
X118894954Y-57556416D01*
X118998439Y-57660082D01*
X119133719Y-57716255D01*
X119280198Y-57716383D01*
X119415576Y-57660446D01*
X119519242Y-57556961D01*
X119575415Y-57421681D01*
X119575543Y-57275202D01*
X119575543Y-60155310D01*
X119489121Y-60119425D01*
X119342642Y-60119297D01*
X119207264Y-60175234D01*
X119103598Y-60278719D01*
X119047425Y-60413999D01*
X119047297Y-60560478D01*
X119103234Y-60695856D01*
X119206719Y-60799522D01*
X119341999Y-60855695D01*
X119488478Y-60855823D01*
X119623856Y-60799886D01*
X119727522Y-60696401D01*
X119783695Y-60561121D01*
X119783823Y-60414642D01*
X119783823Y-85759500D01*
X119727943Y-85759500D01*
X119727943Y-72187542D01*
X119672006Y-72052164D01*
X119568521Y-71948498D01*
X119433241Y-71892325D01*
X119286762Y-71892197D01*
X119151384Y-71948134D01*
X119047718Y-72051619D01*
X118991545Y-72186899D01*
X118991417Y-72333378D01*
X119047354Y-72468756D01*
X119150839Y-72572422D01*
X119286119Y-72628595D01*
X119432598Y-72628723D01*
X119567976Y-72572786D01*
X119671642Y-72469301D01*
X119727815Y-72334021D01*
X119727943Y-72187542D01*
X119727943Y-85759500D01*
X118744963Y-85759500D01*
X118744963Y-80668602D01*
X118689026Y-80533224D01*
X118585541Y-80429558D01*
X118463023Y-80378684D01*
X118463023Y-67719682D01*
X118407086Y-67584304D01*
X118303601Y-67480638D01*
X118168321Y-67424465D01*
X118021842Y-67424337D01*
X117886464Y-67480274D01*
X117782798Y-67583759D01*
X117726625Y-67719039D01*
X117726497Y-67865518D01*
X117782434Y-68000896D01*
X117885919Y-68104562D01*
X118021199Y-68160735D01*
X118167678Y-68160863D01*
X118303056Y-68104926D01*
X118406722Y-68001441D01*
X118462895Y-67866161D01*
X118463023Y-67719682D01*
X118463023Y-80378684D01*
X118450261Y-80373385D01*
X118303782Y-80373257D01*
X118168404Y-80429194D01*
X118087103Y-80510353D01*
X118087103Y-75243162D01*
X118031166Y-75107784D01*
X117927681Y-75004118D01*
X117792401Y-74947945D01*
X117650223Y-74947820D01*
X117650223Y-73764882D01*
X117594286Y-73629504D01*
X117490801Y-73525838D01*
X117355521Y-73469665D01*
X117209042Y-73469537D01*
X117073664Y-73525474D01*
X116969998Y-73628959D01*
X116913825Y-73764239D01*
X116913697Y-73910718D01*
X116969634Y-74046096D01*
X117073119Y-74149762D01*
X117208399Y-74205935D01*
X117354878Y-74206063D01*
X117490256Y-74150126D01*
X117593922Y-74046641D01*
X117650095Y-73911361D01*
X117650223Y-73764882D01*
X117650223Y-74947820D01*
X117645922Y-74947817D01*
X117510544Y-75003754D01*
X117406878Y-75107239D01*
X117350705Y-75242519D01*
X117350577Y-75388998D01*
X117406514Y-75524376D01*
X117509999Y-75628042D01*
X117645279Y-75684215D01*
X117791758Y-75684343D01*
X117927136Y-75628406D01*
X118030802Y-75524921D01*
X118086975Y-75389641D01*
X118087103Y-75243162D01*
X118087103Y-80510353D01*
X118064738Y-80532679D01*
X118008565Y-80667959D01*
X118008437Y-80814438D01*
X118064374Y-80949816D01*
X118167859Y-81053482D01*
X118303139Y-81109655D01*
X118449618Y-81109783D01*
X118584996Y-81053846D01*
X118688662Y-80950361D01*
X118744835Y-80815081D01*
X118744963Y-80668602D01*
X118744963Y-85759500D01*
X116608823Y-85759500D01*
X116608823Y-68547722D01*
X116552886Y-68412344D01*
X116449401Y-68308678D01*
X116314121Y-68252505D01*
X116167642Y-68252377D01*
X116032264Y-68308314D01*
X115928598Y-68411799D01*
X115872425Y-68547079D01*
X115872297Y-68693558D01*
X115928234Y-68828936D01*
X116031719Y-68932602D01*
X116166999Y-68988775D01*
X116313478Y-68988903D01*
X116448856Y-68932966D01*
X116552522Y-68829481D01*
X116608695Y-68694201D01*
X116608823Y-68547722D01*
X116608823Y-85759500D01*
X116448803Y-85759500D01*
X116448803Y-72207862D01*
X116392866Y-72072484D01*
X116289381Y-71968818D01*
X116154101Y-71912645D01*
X116085583Y-71912585D01*
X116085583Y-69352902D01*
X116029646Y-69217524D01*
X115926161Y-69113858D01*
X115790881Y-69057685D01*
X115644402Y-69057557D01*
X115509024Y-69113494D01*
X115430263Y-69192117D01*
X115430263Y-67417422D01*
X115374326Y-67282044D01*
X115270841Y-67178378D01*
X115135561Y-67122205D01*
X114989082Y-67122077D01*
X114853704Y-67178014D01*
X114774943Y-67256637D01*
X114774943Y-57305682D01*
X114719006Y-57170304D01*
X114615521Y-57066638D01*
X114480241Y-57010465D01*
X114333762Y-57010337D01*
X114198384Y-57066274D01*
X114094718Y-57169759D01*
X114038545Y-57305039D01*
X114038417Y-57451518D01*
X114094354Y-57586896D01*
X114197839Y-57690562D01*
X114333119Y-57746735D01*
X114479598Y-57746863D01*
X114614976Y-57690926D01*
X114718642Y-57587441D01*
X114774815Y-57452161D01*
X114774943Y-57305682D01*
X114774943Y-67256637D01*
X114750038Y-67281499D01*
X114693865Y-67416779D01*
X114693737Y-67563258D01*
X114749674Y-67698636D01*
X114853159Y-67802302D01*
X114988439Y-67858475D01*
X115134918Y-67858603D01*
X115270296Y-67802666D01*
X115373962Y-67699181D01*
X115430135Y-67563901D01*
X115430263Y-67417422D01*
X115430263Y-69192117D01*
X115405358Y-69216979D01*
X115349185Y-69352259D01*
X115349057Y-69498738D01*
X115404994Y-69634116D01*
X115508479Y-69737782D01*
X115643759Y-69793955D01*
X115790238Y-69794083D01*
X115925616Y-69738146D01*
X116029282Y-69634661D01*
X116085455Y-69499381D01*
X116085583Y-69352902D01*
X116085583Y-71912585D01*
X116007622Y-71912517D01*
X115872244Y-71968454D01*
X115768578Y-72071939D01*
X115712405Y-72207219D01*
X115712277Y-72353698D01*
X115768214Y-72489076D01*
X115871699Y-72592742D01*
X116006979Y-72648915D01*
X116153458Y-72649043D01*
X116288836Y-72593106D01*
X116392502Y-72489621D01*
X116448675Y-72354341D01*
X116448803Y-72207862D01*
X116448803Y-85759500D01*
X115379463Y-85759500D01*
X115379463Y-74547202D01*
X115323526Y-74411824D01*
X115220041Y-74308158D01*
X115084761Y-74251985D01*
X114938282Y-74251857D01*
X114828283Y-74297307D01*
X114828283Y-68301342D01*
X114772346Y-68165964D01*
X114668861Y-68062298D01*
X114533581Y-68006125D01*
X114387102Y-68005997D01*
X114251724Y-68061934D01*
X114148058Y-68165419D01*
X114109463Y-68258366D01*
X114109463Y-59558662D01*
X114053526Y-59423284D01*
X113950041Y-59319618D01*
X113814761Y-59263445D01*
X113668282Y-59263317D01*
X113532904Y-59319254D01*
X113525263Y-59326881D01*
X113525263Y-58301362D01*
X113469326Y-58165984D01*
X113365841Y-58062318D01*
X113230561Y-58006145D01*
X113084082Y-58006017D01*
X112948704Y-58061954D01*
X112845038Y-58165439D01*
X112788865Y-58300719D01*
X112788737Y-58447198D01*
X112844674Y-58582576D01*
X112948159Y-58686242D01*
X113029879Y-58720175D01*
X112938544Y-58757914D01*
X112834878Y-58861399D01*
X112778705Y-58996679D01*
X112778577Y-59143158D01*
X112834514Y-59278536D01*
X112937999Y-59382202D01*
X113073279Y-59438375D01*
X113219758Y-59438503D01*
X113355136Y-59382566D01*
X113458802Y-59279081D01*
X113514975Y-59143801D01*
X113515103Y-58997322D01*
X113459166Y-58861944D01*
X113355681Y-58758278D01*
X113273960Y-58724344D01*
X113365296Y-58686606D01*
X113468962Y-58583121D01*
X113525135Y-58447841D01*
X113525263Y-58301362D01*
X113525263Y-59326881D01*
X113429238Y-59422739D01*
X113373065Y-59558019D01*
X113372937Y-59704498D01*
X113428874Y-59839876D01*
X113532359Y-59943542D01*
X113667639Y-59999715D01*
X113814118Y-59999843D01*
X113949496Y-59943906D01*
X114053162Y-59840421D01*
X114109335Y-59705141D01*
X114109463Y-59558662D01*
X114109463Y-68258366D01*
X114091885Y-68300699D01*
X114091757Y-68447178D01*
X114147694Y-68582556D01*
X114251179Y-68686222D01*
X114386459Y-68742395D01*
X114532938Y-68742523D01*
X114668316Y-68686586D01*
X114771982Y-68583101D01*
X114828155Y-68447821D01*
X114828283Y-68301342D01*
X114828283Y-74297307D01*
X114802904Y-74307794D01*
X114699238Y-74411279D01*
X114643065Y-74546559D01*
X114642937Y-74693038D01*
X114698874Y-74828416D01*
X114802359Y-74932082D01*
X114937639Y-74988255D01*
X115084118Y-74988383D01*
X115219496Y-74932446D01*
X115323162Y-74828961D01*
X115379335Y-74693681D01*
X115379463Y-74547202D01*
X115379463Y-85759500D01*
X113990083Y-85759500D01*
X113990083Y-69091282D01*
X113934146Y-68955904D01*
X113830661Y-68852238D01*
X113695381Y-68796065D01*
X113548902Y-68795937D01*
X113413524Y-68851874D01*
X113309858Y-68955359D01*
X113253685Y-69090639D01*
X113253557Y-69237118D01*
X113309494Y-69372496D01*
X113412979Y-69476162D01*
X113548259Y-69532335D01*
X113694738Y-69532463D01*
X113830116Y-69476526D01*
X113933782Y-69373041D01*
X113989955Y-69237761D01*
X113990083Y-69091282D01*
X113990083Y-85759500D01*
X113581143Y-85759500D01*
X113581143Y-71417922D01*
X113525206Y-71282544D01*
X113421721Y-71178878D01*
X113286441Y-71122705D01*
X113139962Y-71122577D01*
X113004584Y-71178514D01*
X112900918Y-71281999D01*
X112844745Y-71417279D01*
X112844617Y-71563758D01*
X112900554Y-71699136D01*
X113004039Y-71802802D01*
X113139319Y-71858975D01*
X113285798Y-71859103D01*
X113421176Y-71803166D01*
X113524842Y-71699681D01*
X113581015Y-71564401D01*
X113581143Y-71417922D01*
X113581143Y-85759500D01*
X113316983Y-85759500D01*
X113316983Y-81191842D01*
X113261046Y-81056464D01*
X113157561Y-80952798D01*
X113022281Y-80896625D01*
X112875802Y-80896497D01*
X112740424Y-80952434D01*
X112636758Y-81055919D01*
X112580585Y-81191199D01*
X112580457Y-81337678D01*
X112636394Y-81473056D01*
X112739879Y-81576722D01*
X112875159Y-81632895D01*
X113021638Y-81633023D01*
X113157016Y-81577086D01*
X113260682Y-81473601D01*
X113316855Y-81338321D01*
X113316983Y-81191842D01*
X113316983Y-85759500D01*
X111983483Y-85759500D01*
X111983483Y-74564982D01*
X111927546Y-74429604D01*
X111824061Y-74325938D01*
X111688781Y-74269765D01*
X111542302Y-74269637D01*
X111452623Y-74306691D01*
X111452623Y-65207622D01*
X111396686Y-65072244D01*
X111293201Y-64968578D01*
X111157921Y-64912405D01*
X111011442Y-64912277D01*
X110876064Y-64968214D01*
X110772398Y-65071699D01*
X110716225Y-65206979D01*
X110716097Y-65353458D01*
X110772034Y-65488836D01*
X110875519Y-65592502D01*
X111010799Y-65648675D01*
X111157278Y-65648803D01*
X111292656Y-65592866D01*
X111396322Y-65489381D01*
X111452495Y-65354101D01*
X111452623Y-65207622D01*
X111452623Y-74306691D01*
X111406924Y-74325574D01*
X111303258Y-74429059D01*
X111247085Y-74564339D01*
X111246957Y-74710818D01*
X111302894Y-74846196D01*
X111406379Y-74949862D01*
X111541659Y-75006035D01*
X111688138Y-75006163D01*
X111823516Y-74950226D01*
X111927182Y-74846741D01*
X111983355Y-74711461D01*
X111983483Y-74564982D01*
X111983483Y-85759500D01*
X111376423Y-85759500D01*
X111376423Y-81062302D01*
X111320486Y-80926924D01*
X111217001Y-80823258D01*
X111081721Y-80767085D01*
X110935242Y-80766957D01*
X110799864Y-80822894D01*
X110696198Y-80926379D01*
X110640025Y-81061659D01*
X110639897Y-81208138D01*
X110695834Y-81343516D01*
X110799319Y-81447182D01*
X110934599Y-81503355D01*
X111081078Y-81503483D01*
X111216456Y-81447546D01*
X111320122Y-81344061D01*
X111376295Y-81208781D01*
X111376423Y-81062302D01*
X111376423Y-85759500D01*
X108917703Y-85759500D01*
X108917703Y-81613482D01*
X108861766Y-81478104D01*
X108800863Y-81417094D01*
X108800863Y-78474042D01*
X108744926Y-78338664D01*
X108641441Y-78234998D01*
X108506161Y-78178825D01*
X108496063Y-78178816D01*
X108496063Y-71593182D01*
X108440126Y-71457804D01*
X108336641Y-71354138D01*
X108201361Y-71297965D01*
X108107443Y-71297882D01*
X108107443Y-63340722D01*
X108051506Y-63205344D01*
X107948021Y-63101678D01*
X107812741Y-63045505D01*
X107666262Y-63045377D01*
X107530884Y-63101314D01*
X107427218Y-63204799D01*
X107371045Y-63340079D01*
X107370917Y-63486558D01*
X107426854Y-63621936D01*
X107530339Y-63725602D01*
X107665619Y-63781775D01*
X107812098Y-63781903D01*
X107947476Y-63725966D01*
X108051142Y-63622481D01*
X108107315Y-63487201D01*
X108107443Y-63340722D01*
X108107443Y-71297882D01*
X108054882Y-71297837D01*
X107919504Y-71353774D01*
X107815838Y-71457259D01*
X107759665Y-71592539D01*
X107759537Y-71739018D01*
X107815474Y-71874396D01*
X107918959Y-71978062D01*
X108054239Y-72034235D01*
X108200718Y-72034363D01*
X108336096Y-71978426D01*
X108439762Y-71874941D01*
X108495935Y-71739661D01*
X108496063Y-71593182D01*
X108496063Y-78178816D01*
X108389383Y-78178722D01*
X108389383Y-77818722D01*
X108333446Y-77683344D01*
X108229961Y-77579678D01*
X108094681Y-77523505D01*
X107948202Y-77523377D01*
X107812824Y-77579314D01*
X107709158Y-77682799D01*
X107652985Y-77818079D01*
X107652857Y-77964558D01*
X107708794Y-78099936D01*
X107812279Y-78203602D01*
X107947559Y-78259775D01*
X108094038Y-78259903D01*
X108229416Y-78203966D01*
X108333082Y-78100481D01*
X108389255Y-77965201D01*
X108389383Y-77818722D01*
X108389383Y-78178722D01*
X108359682Y-78178697D01*
X108224304Y-78234634D01*
X108120638Y-78338119D01*
X108064465Y-78473399D01*
X108064337Y-78619878D01*
X108120274Y-78755256D01*
X108223759Y-78858922D01*
X108359039Y-78915095D01*
X108505518Y-78915223D01*
X108640896Y-78859286D01*
X108744562Y-78755801D01*
X108800735Y-78620521D01*
X108800863Y-78474042D01*
X108800863Y-81417094D01*
X108758281Y-81374438D01*
X108623001Y-81318265D01*
X108476522Y-81318137D01*
X108341144Y-81374074D01*
X108237478Y-81477559D01*
X108181305Y-81612839D01*
X108181177Y-81759318D01*
X108237114Y-81894696D01*
X108340599Y-81998362D01*
X108475879Y-82054535D01*
X108622358Y-82054663D01*
X108757736Y-81998726D01*
X108861402Y-81895241D01*
X108917575Y-81759961D01*
X108917703Y-81613482D01*
X108917703Y-85759500D01*
X108724663Y-85759500D01*
X108724663Y-83023182D01*
X108668726Y-82887804D01*
X108565241Y-82784138D01*
X108429961Y-82727965D01*
X108283482Y-82727837D01*
X108148104Y-82783774D01*
X108044438Y-82887259D01*
X107988265Y-83022539D01*
X107988137Y-83169018D01*
X108044074Y-83304396D01*
X108147559Y-83408062D01*
X108282839Y-83464235D01*
X108429318Y-83464363D01*
X108564696Y-83408426D01*
X108668362Y-83304941D01*
X108724535Y-83169661D01*
X108724663Y-83023182D01*
X108724663Y-85759500D01*
X107342903Y-85759500D01*
X107342903Y-63729342D01*
X107286966Y-63593964D01*
X107183481Y-63490298D01*
X107048201Y-63434125D01*
X106901722Y-63433997D01*
X106766344Y-63489934D01*
X106662678Y-63593419D01*
X106606505Y-63728699D01*
X106606377Y-63875178D01*
X106662314Y-64010556D01*
X106765799Y-64114222D01*
X106901079Y-64170395D01*
X107047558Y-64170523D01*
X107182936Y-64114586D01*
X107286602Y-64011101D01*
X107342775Y-63875821D01*
X107342903Y-63729342D01*
X107342903Y-85759500D01*
X107292103Y-85759500D01*
X107292103Y-72982562D01*
X107236166Y-72847184D01*
X107231143Y-72842152D01*
X107231143Y-71448402D01*
X107175206Y-71313024D01*
X107071721Y-71209358D01*
X106936441Y-71153185D01*
X106789962Y-71153057D01*
X106654584Y-71208994D01*
X106550918Y-71312479D01*
X106494745Y-71447759D01*
X106494617Y-71594238D01*
X106550554Y-71729616D01*
X106654039Y-71833282D01*
X106789319Y-71889455D01*
X106935798Y-71889583D01*
X107071176Y-71833646D01*
X107174842Y-71730161D01*
X107231015Y-71594881D01*
X107231143Y-71448402D01*
X107231143Y-72842152D01*
X107132681Y-72743518D01*
X106997401Y-72687345D01*
X106850922Y-72687217D01*
X106715544Y-72743154D01*
X106611878Y-72846639D01*
X106555705Y-72981919D01*
X106555577Y-73128398D01*
X106611514Y-73263776D01*
X106714999Y-73367442D01*
X106850279Y-73423615D01*
X106996758Y-73423743D01*
X107132136Y-73367806D01*
X107235802Y-73264321D01*
X107291975Y-73129041D01*
X107292103Y-72982562D01*
X107292103Y-85759500D01*
X106819663Y-85759500D01*
X106819663Y-82527882D01*
X106819663Y-80953082D01*
X106763726Y-80817704D01*
X106660241Y-80714038D01*
X106524961Y-80657865D01*
X106378482Y-80657737D01*
X106243104Y-80713674D01*
X106139438Y-80817159D01*
X106083265Y-80952439D01*
X106083137Y-81098918D01*
X106139074Y-81234296D01*
X106242559Y-81337962D01*
X106377839Y-81394135D01*
X106524318Y-81394263D01*
X106659696Y-81338326D01*
X106763362Y-81234841D01*
X106819535Y-81099561D01*
X106819663Y-80953082D01*
X106819663Y-82527882D01*
X106763726Y-82392504D01*
X106660241Y-82288838D01*
X106524961Y-82232665D01*
X106378482Y-82232537D01*
X106243104Y-82288474D01*
X106139438Y-82391959D01*
X106083265Y-82527239D01*
X106083137Y-82673718D01*
X106139074Y-82809096D01*
X106242559Y-82912762D01*
X106377839Y-82968935D01*
X106524318Y-82969063D01*
X106659696Y-82913126D01*
X106763362Y-82809641D01*
X106819535Y-82674361D01*
X106819663Y-82527882D01*
X106819663Y-85759500D01*
X106072903Y-85759500D01*
X106072903Y-81057222D01*
X106039883Y-80977307D01*
X106039883Y-74417662D01*
X105983946Y-74282284D01*
X105880461Y-74178618D01*
X105745181Y-74122445D01*
X105598702Y-74122317D01*
X105463324Y-74178254D01*
X105359658Y-74281739D01*
X105303485Y-74417019D01*
X105303357Y-74563498D01*
X105359294Y-74698876D01*
X105462779Y-74802542D01*
X105598059Y-74858715D01*
X105744538Y-74858843D01*
X105879916Y-74802906D01*
X105983582Y-74699421D01*
X106039755Y-74564141D01*
X106039883Y-74417662D01*
X106039883Y-80977307D01*
X106016966Y-80921844D01*
X105913481Y-80818178D01*
X105778201Y-80762005D01*
X105631722Y-80761877D01*
X105496344Y-80817814D01*
X105392678Y-80921299D01*
X105336505Y-81056579D01*
X105336377Y-81203058D01*
X105392314Y-81338436D01*
X105495799Y-81442102D01*
X105631079Y-81498275D01*
X105777558Y-81498403D01*
X105912936Y-81442466D01*
X106016602Y-81338981D01*
X106072775Y-81203701D01*
X106072903Y-81057222D01*
X106072903Y-85759500D01*
X105890023Y-85759500D01*
X105890023Y-82121482D01*
X105834086Y-81986104D01*
X105730601Y-81882438D01*
X105595321Y-81826265D01*
X105448842Y-81826137D01*
X105313464Y-81882074D01*
X105209798Y-81985559D01*
X105153625Y-82120839D01*
X105153497Y-82267318D01*
X105209434Y-82402696D01*
X105312919Y-82506362D01*
X105448199Y-82562535D01*
X105594678Y-82562663D01*
X105730056Y-82506726D01*
X105833722Y-82403241D01*
X105889895Y-82267961D01*
X105890023Y-82121482D01*
X105890023Y-85759500D01*
X103827543Y-85759500D01*
X103827543Y-59281802D01*
X103771606Y-59146424D01*
X103668121Y-59042758D01*
X103532841Y-58986585D01*
X103386362Y-58986457D01*
X103250984Y-59042394D01*
X103147318Y-59145879D01*
X103091145Y-59281159D01*
X103091017Y-59427638D01*
X103146954Y-59563016D01*
X103250439Y-59666682D01*
X103385719Y-59722855D01*
X103532198Y-59722983D01*
X103667576Y-59667046D01*
X103771242Y-59563561D01*
X103827415Y-59428281D01*
X103827543Y-59281802D01*
X103827543Y-85759500D01*
X103710703Y-85759500D01*
X103710703Y-60589902D01*
X103654766Y-60454524D01*
X103551281Y-60350858D01*
X103416001Y-60294685D01*
X103324580Y-60294605D01*
X103380082Y-60239201D01*
X103436255Y-60103921D01*
X103436383Y-59957442D01*
X103380446Y-59822064D01*
X103276961Y-59718398D01*
X103141681Y-59662225D01*
X102995202Y-59662097D01*
X102859824Y-59718034D01*
X102756158Y-59821519D01*
X102699985Y-59956799D01*
X102699857Y-60103278D01*
X102755794Y-60238656D01*
X102859279Y-60342322D01*
X102994559Y-60398495D01*
X103085979Y-60398574D01*
X103030478Y-60453979D01*
X102974305Y-60589259D01*
X102974177Y-60735738D01*
X103030114Y-60871116D01*
X103047996Y-60889029D01*
X102919002Y-60888917D01*
X102783624Y-60944854D01*
X102679958Y-61048339D01*
X102623785Y-61183619D01*
X102623657Y-61330098D01*
X102679594Y-61465476D01*
X102783079Y-61569142D01*
X102918359Y-61625315D01*
X103064838Y-61625443D01*
X103200216Y-61569506D01*
X103303882Y-61466021D01*
X103360055Y-61330741D01*
X103360183Y-61184262D01*
X103304246Y-61048884D01*
X103286363Y-61030970D01*
X103415358Y-61031083D01*
X103550736Y-60975146D01*
X103654402Y-60871661D01*
X103710575Y-60736381D01*
X103710703Y-60589902D01*
X103710703Y-85759500D01*
X103695463Y-85759500D01*
X103695463Y-66663042D01*
X103639526Y-66527664D01*
X103638021Y-66526156D01*
X103634446Y-66517504D01*
X103530961Y-66413838D01*
X103395681Y-66357665D01*
X103249202Y-66357537D01*
X103113824Y-66413474D01*
X103010158Y-66516959D01*
X102953985Y-66652239D01*
X102953857Y-66798718D01*
X103009794Y-66934096D01*
X103011298Y-66935603D01*
X103014874Y-66944256D01*
X103118359Y-67047922D01*
X103253639Y-67104095D01*
X103400118Y-67104223D01*
X103535496Y-67048286D01*
X103639162Y-66944801D01*
X103695335Y-66809521D01*
X103695463Y-66663042D01*
X103695463Y-85759500D01*
X103611643Y-85759500D01*
X103611643Y-72347562D01*
X103555706Y-72212184D01*
X103452221Y-72108518D01*
X103444003Y-72105105D01*
X103444003Y-70457802D01*
X103388066Y-70322424D01*
X103284581Y-70218758D01*
X103149301Y-70162585D01*
X103002822Y-70162457D01*
X102867444Y-70218394D01*
X102763778Y-70321879D01*
X102707605Y-70457159D01*
X102707477Y-70603638D01*
X102763414Y-70739016D01*
X102866899Y-70842682D01*
X103002179Y-70898855D01*
X103148658Y-70898983D01*
X103284036Y-70843046D01*
X103387702Y-70739561D01*
X103443875Y-70604281D01*
X103444003Y-70457802D01*
X103444003Y-72105105D01*
X103316941Y-72052345D01*
X103170462Y-72052217D01*
X103035084Y-72108154D01*
X102931418Y-72211639D01*
X102875245Y-72346919D01*
X102875117Y-72493398D01*
X102931054Y-72628776D01*
X103034539Y-72732442D01*
X103169819Y-72788615D01*
X103316298Y-72788743D01*
X103451676Y-72732806D01*
X103555342Y-72629321D01*
X103611515Y-72494041D01*
X103611643Y-72347562D01*
X103611643Y-85759500D01*
X103009663Y-85759500D01*
X103009663Y-75126322D01*
X102953726Y-74990944D01*
X102850241Y-74887278D01*
X102714961Y-74831105D01*
X102568482Y-74830977D01*
X102433104Y-74886914D01*
X102329438Y-74990399D01*
X102273265Y-75125679D01*
X102273137Y-75272158D01*
X102329074Y-75407536D01*
X102432559Y-75511202D01*
X102567839Y-75567375D01*
X102714318Y-75567503D01*
X102849696Y-75511566D01*
X102953362Y-75408081D01*
X103009535Y-75272801D01*
X103009663Y-75126322D01*
X103009663Y-85759500D01*
X101569483Y-85759500D01*
X101569483Y-66622402D01*
X101513546Y-66487024D01*
X101410061Y-66383358D01*
X101274781Y-66327185D01*
X101128302Y-66327057D01*
X100992924Y-66382994D01*
X100889258Y-66486479D01*
X100868263Y-66537040D01*
X100868263Y-65427082D01*
X100812326Y-65291704D01*
X100708841Y-65188038D01*
X100573561Y-65131865D01*
X100427082Y-65131737D01*
X100291704Y-65187674D01*
X100188038Y-65291159D01*
X100131865Y-65426439D01*
X100131737Y-65572918D01*
X100187674Y-65708296D01*
X100291159Y-65811962D01*
X100426439Y-65868135D01*
X100572918Y-65868263D01*
X100708296Y-65812326D01*
X100811962Y-65708841D01*
X100868135Y-65573561D01*
X100868263Y-65427082D01*
X100868263Y-66537040D01*
X100833085Y-66621759D01*
X100832957Y-66768238D01*
X100888894Y-66903616D01*
X100992379Y-67007282D01*
X101127659Y-67063455D01*
X101274138Y-67063583D01*
X101409516Y-67007646D01*
X101513182Y-66904161D01*
X101569355Y-66768881D01*
X101569483Y-66622402D01*
X101569483Y-85759500D01*
X101559323Y-85759500D01*
X101559323Y-67628242D01*
X101503386Y-67492864D01*
X101399901Y-67389198D01*
X101264621Y-67333025D01*
X101118142Y-67332897D01*
X100982764Y-67388834D01*
X100879098Y-67492319D01*
X100822925Y-67627599D01*
X100822797Y-67774078D01*
X100878734Y-67909456D01*
X100982219Y-68013122D01*
X101117499Y-68069295D01*
X101263978Y-68069423D01*
X101399356Y-68013486D01*
X101503022Y-67910001D01*
X101559195Y-67774721D01*
X101559323Y-67628242D01*
X101559323Y-85759500D01*
X101521223Y-85759500D01*
X101521223Y-82177362D01*
X101465286Y-82041984D01*
X101361801Y-81938318D01*
X101226521Y-81882145D01*
X101211343Y-81882131D01*
X101211343Y-76744302D01*
X101155406Y-76608924D01*
X101051921Y-76505258D01*
X100916641Y-76449085D01*
X100868263Y-76449042D01*
X100868263Y-72427082D01*
X100812326Y-72291704D01*
X100708841Y-72188038D01*
X100573561Y-72131865D01*
X100427082Y-72131737D01*
X100291704Y-72187674D01*
X100188038Y-72291159D01*
X100131865Y-72426439D01*
X100131737Y-72572918D01*
X100187674Y-72708296D01*
X100291159Y-72811962D01*
X100426439Y-72868135D01*
X100572918Y-72868263D01*
X100708296Y-72812326D01*
X100811962Y-72708841D01*
X100868135Y-72573561D01*
X100868263Y-72427082D01*
X100868263Y-76449042D01*
X100770162Y-76448957D01*
X100634784Y-76504894D01*
X100531118Y-76608379D01*
X100474945Y-76743659D01*
X100474817Y-76890138D01*
X100530754Y-77025516D01*
X100634239Y-77129182D01*
X100769519Y-77185355D01*
X100915998Y-77185483D01*
X101051376Y-77129546D01*
X101155042Y-77026061D01*
X101211215Y-76890781D01*
X101211343Y-76744302D01*
X101211343Y-81882131D01*
X101080042Y-81882017D01*
X100944664Y-81937954D01*
X100840998Y-82041439D01*
X100784825Y-82176719D01*
X100784697Y-82323198D01*
X100840634Y-82458576D01*
X100944119Y-82562242D01*
X101079399Y-82618415D01*
X101225878Y-82618543D01*
X101361256Y-82562606D01*
X101464922Y-82459121D01*
X101521095Y-82323841D01*
X101521223Y-82177362D01*
X101521223Y-85759500D01*
X100060723Y-85759500D01*
X100060723Y-69505302D01*
X100004786Y-69369924D01*
X99901301Y-69266258D01*
X99766021Y-69210085D01*
X99619542Y-69209957D01*
X99484164Y-69265894D01*
X99380498Y-69369379D01*
X99324325Y-69504659D01*
X99324324Y-69504665D01*
X99299321Y-69479618D01*
X99164041Y-69423445D01*
X99017562Y-69423317D01*
X98882184Y-69479254D01*
X98778518Y-69582739D01*
X98722345Y-69718019D01*
X98722217Y-69864498D01*
X98760703Y-69957642D01*
X98722081Y-69941605D01*
X98575602Y-69941477D01*
X98440224Y-69997414D01*
X98439038Y-69998597D01*
X98418702Y-69978225D01*
X98472802Y-69924221D01*
X98528975Y-69788941D01*
X98529103Y-69642462D01*
X98473166Y-69507084D01*
X98369681Y-69403418D01*
X98234401Y-69347245D01*
X98087922Y-69347117D01*
X97952544Y-69403054D01*
X97848878Y-69506539D01*
X97792705Y-69641819D01*
X97792694Y-69653491D01*
X97741646Y-69529944D01*
X97638161Y-69426278D01*
X97529261Y-69381058D01*
X97530755Y-69377461D01*
X97530883Y-69230982D01*
X97474946Y-69095604D01*
X97371461Y-68991938D01*
X97370863Y-68991689D01*
X97370863Y-68484222D01*
X97314926Y-68348844D01*
X97211441Y-68245178D01*
X97076161Y-68189005D01*
X96931591Y-68188878D01*
X96931591Y-64932799D01*
X96834350Y-64697457D01*
X96654450Y-64517243D01*
X96419278Y-64419591D01*
X96164639Y-64419369D01*
X95929297Y-64516610D01*
X95749083Y-64696510D01*
X95651431Y-64931682D01*
X95651209Y-65186321D01*
X95748450Y-65421663D01*
X95928350Y-65601877D01*
X96163522Y-65699529D01*
X96418161Y-65699751D01*
X96653503Y-65602510D01*
X96833717Y-65422610D01*
X96931369Y-65187438D01*
X96931591Y-64932799D01*
X96931591Y-68188878D01*
X96929682Y-68188877D01*
X96794304Y-68244814D01*
X96690638Y-68348299D01*
X96634465Y-68483579D01*
X96634337Y-68630058D01*
X96690274Y-68765436D01*
X96793759Y-68869102D01*
X96929039Y-68925275D01*
X97075518Y-68925403D01*
X97210896Y-68869466D01*
X97314562Y-68765981D01*
X97370735Y-68630701D01*
X97370863Y-68484222D01*
X97370863Y-68991689D01*
X97236181Y-68935765D01*
X97089702Y-68935637D01*
X96954324Y-68991574D01*
X96850658Y-69095059D01*
X96842136Y-69115581D01*
X96834350Y-69096737D01*
X96654450Y-68916523D01*
X96419278Y-68818871D01*
X96164639Y-68818649D01*
X95929297Y-68915890D01*
X95749083Y-69095790D01*
X95651431Y-69330962D01*
X95651209Y-69585601D01*
X95748450Y-69820943D01*
X95928350Y-70001157D01*
X96163522Y-70098809D01*
X96418161Y-70099031D01*
X96550572Y-70044319D01*
X96550517Y-70108338D01*
X96606454Y-70243716D01*
X96709939Y-70347382D01*
X96845219Y-70403555D01*
X96991698Y-70403683D01*
X97006292Y-70397652D01*
X97056034Y-70518036D01*
X97159519Y-70621702D01*
X97294799Y-70677875D01*
X97441278Y-70678003D01*
X97576656Y-70622066D01*
X97680322Y-70518581D01*
X97736495Y-70383301D01*
X97736623Y-70236822D01*
X97680686Y-70101444D01*
X97632150Y-70052824D01*
X97637616Y-70050566D01*
X97741282Y-69947081D01*
X97797455Y-69811801D01*
X97797465Y-69800128D01*
X97848514Y-69923676D01*
X97948697Y-70024034D01*
X97894598Y-70078039D01*
X97838425Y-70213319D01*
X97838297Y-70359798D01*
X97894234Y-70495176D01*
X97997719Y-70598842D01*
X98132999Y-70655015D01*
X98279478Y-70655143D01*
X98414856Y-70599206D01*
X98416041Y-70598022D01*
X98439679Y-70621702D01*
X98574959Y-70677875D01*
X98721438Y-70678003D01*
X98856816Y-70622066D01*
X98960482Y-70518581D01*
X99016655Y-70383301D01*
X99016783Y-70236822D01*
X98978296Y-70143677D01*
X99016919Y-70159715D01*
X99163398Y-70159843D01*
X99298776Y-70103906D01*
X99402442Y-70000421D01*
X99458615Y-69865141D01*
X99458615Y-69865134D01*
X99483619Y-69890182D01*
X99618899Y-69946355D01*
X99765378Y-69946483D01*
X99900756Y-69890546D01*
X100004422Y-69787061D01*
X100060595Y-69651781D01*
X100060723Y-69505302D01*
X100060723Y-85759500D01*
X99984523Y-85759500D01*
X99984523Y-70259682D01*
X99928586Y-70124304D01*
X99825101Y-70020638D01*
X99689821Y-69964465D01*
X99543342Y-69964337D01*
X99407964Y-70020274D01*
X99304298Y-70123759D01*
X99248125Y-70259039D01*
X99247997Y-70405518D01*
X99303934Y-70540896D01*
X99407419Y-70644562D01*
X99542699Y-70700735D01*
X99689178Y-70700863D01*
X99824556Y-70644926D01*
X99928222Y-70541441D01*
X99984395Y-70406161D01*
X99984523Y-70259682D01*
X99984523Y-85759500D01*
X99565423Y-85759500D01*
X99565423Y-78214962D01*
X99509486Y-78079584D01*
X99406001Y-77975918D01*
X99270721Y-77919745D01*
X99124242Y-77919617D01*
X98988864Y-77975554D01*
X98885198Y-78079039D01*
X98829025Y-78214319D01*
X98828897Y-78360798D01*
X98884834Y-78496176D01*
X98988319Y-78599842D01*
X99123599Y-78656015D01*
X99270078Y-78656143D01*
X99405456Y-78600206D01*
X99509122Y-78496721D01*
X99565295Y-78361441D01*
X99565423Y-78214962D01*
X99565423Y-85759500D01*
X98244623Y-85759500D01*
X98244623Y-82182442D01*
X98188686Y-82047064D01*
X98085201Y-81943398D01*
X97949921Y-81887225D01*
X97803442Y-81887097D01*
X97668064Y-81943034D01*
X97564398Y-82046519D01*
X97508225Y-82181799D01*
X97508097Y-82328278D01*
X97564034Y-82463656D01*
X97667519Y-82567322D01*
X97802799Y-82623495D01*
X97949278Y-82623623D01*
X98084656Y-82567686D01*
X98188322Y-82464201D01*
X98244495Y-82328921D01*
X98244623Y-82182442D01*
X98244623Y-85759500D01*
X96969543Y-85759500D01*
X96969543Y-78667082D01*
X96913606Y-78531704D01*
X96810121Y-78428038D01*
X96674841Y-78371865D01*
X96528362Y-78371737D01*
X96517423Y-78376256D01*
X96517423Y-76980522D01*
X96461486Y-76845144D01*
X96358001Y-76741478D01*
X96222721Y-76685305D01*
X96076242Y-76685177D01*
X95940864Y-76741114D01*
X95837198Y-76844599D01*
X95781025Y-76979879D01*
X95780897Y-77126358D01*
X95836834Y-77261736D01*
X95940319Y-77365402D01*
X96075599Y-77421575D01*
X96222078Y-77421703D01*
X96357456Y-77365766D01*
X96461122Y-77262281D01*
X96517295Y-77127001D01*
X96517423Y-76980522D01*
X96517423Y-78376256D01*
X96392984Y-78427674D01*
X96289318Y-78531159D01*
X96233145Y-78666439D01*
X96233017Y-78812918D01*
X96288954Y-78948296D01*
X96392439Y-79051962D01*
X96527719Y-79108135D01*
X96674198Y-79108263D01*
X96809576Y-79052326D01*
X96913242Y-78948841D01*
X96969415Y-78813561D01*
X96969543Y-78667082D01*
X96969543Y-85759500D01*
X94575137Y-85759500D01*
X94575137Y-83134200D01*
X94575137Y-80594200D01*
X94555232Y-80494131D01*
X94555232Y-78917800D01*
X94555232Y-77190600D01*
X94541139Y-77117963D01*
X94499202Y-77054122D01*
X94435892Y-77011387D01*
X94361000Y-76996368D01*
X92329000Y-76996368D01*
X92256363Y-77010461D01*
X92192522Y-77052398D01*
X92149787Y-77115708D01*
X92134768Y-77190600D01*
X92134768Y-78917800D01*
X92148861Y-78990437D01*
X92190798Y-79054278D01*
X92254108Y-79097013D01*
X92329000Y-79112032D01*
X94361000Y-79112032D01*
X94433637Y-79097939D01*
X94497478Y-79056002D01*
X94540213Y-78992692D01*
X94555232Y-78917800D01*
X94555232Y-80494131D01*
X94494898Y-80190813D01*
X94266398Y-79848839D01*
X93924424Y-79620339D01*
X93521037Y-79540100D01*
X93168963Y-79540100D01*
X92765576Y-79620339D01*
X92423602Y-79848839D01*
X92195102Y-80190813D01*
X92114863Y-80594200D01*
X92195102Y-80997587D01*
X92423602Y-81339561D01*
X92765576Y-81568061D01*
X93168963Y-81648300D01*
X93521037Y-81648300D01*
X93924424Y-81568061D01*
X94266398Y-81339561D01*
X94494898Y-80997587D01*
X94575137Y-80594200D01*
X94575137Y-83134200D01*
X94494898Y-82730813D01*
X94266398Y-82388839D01*
X93924424Y-82160339D01*
X93521037Y-82080100D01*
X93168963Y-82080100D01*
X92765576Y-82160339D01*
X92423602Y-82388839D01*
X92195102Y-82730813D01*
X92114863Y-83134200D01*
X92195102Y-83537587D01*
X92423602Y-83879561D01*
X92765576Y-84108061D01*
X93168963Y-84188300D01*
X93521037Y-84188300D01*
X93924424Y-84108061D01*
X94266398Y-83879561D01*
X94494898Y-83537587D01*
X94575137Y-83134200D01*
X94575137Y-85759500D01*
X91240500Y-85759500D01*
X91240500Y-55240500D01*
X133000000Y-55240500D01*
X136759500Y-55240500D01*
X136759500Y-85759500D01*
M02*
